<ttFont>
          <CharString index="0">
            -85 34.5 -45.5 98 vhcurveto
            101 hlineto
            101 33.5 45.5 85 hvcurveto
            122 vlineto
            85 -34.5 45.5 -98 vhcurveto
            -101 hlineto
            -101 -33.5 -45.5 -85 hvcurveto
            return
          </CharString>
          <CharString index="1">
            89 vlineto
            38.9499969482 12.049987793 10.0500030518 38.200012207 vhcurveto
            73.5 hlineto
            34.8999938965 13.3500061035 -8.80000305176 -40.1999969482 hvcurveto
            -89 vlineto
            -32.3500061035 -5.45001220703 -16.6499938965 -44.799987793 vhcurveto
            -73.5 hlineto
            -39.3000030518 -8.94999694824 14.8500061035 34.1499938965 hvcurveto
            return
          </CharString>
          <CharString index="2">
            104 0 442.949996948 732 -100.149993896 0 rlineto
            return
          </CharString>
          <CharString index="3">
            -84.9999847412 33.9499969482 -45.5 98 vhcurveto
            101.550003052 hlineto
            101 1.52587890625e-05 33.5 45.5 0 85 rrcurveto
            122 vlineto
            return
          </CharString>
          <CharString index="4">
            85.0000152588 -34.5 45.5 -98 vhcurveto
            -101.550003052 hlineto
            -100.999984741 1.52587890625e-05 -32.9499969482 -45.5 0 -85 rrcurveto
            return
          </CharString>
          <CharString index="5">
            89 vlineto
            38.950012207 12.049987793 10.0500030518 38.200012207 vhcurveto
            72.9499969482 hlineto
            34.9000091553 1.52587890625e-05 13.9000091553 -8.80000305176 0 -40.1999969482 rrcurveto
            -89 vlineto
            -32.3499908447 -6 -16.6499938965 -44.8000030518 vhcurveto
            -72.9499969482 hlineto
            -39.3000030518 1.52587890625e-05 -8.94999694824 14.8499908447 0 34.1500091553 rrcurveto
            return
          </CharString>
          <CharString index="6">
            -360.550003052 175.5 -175.449996948 0 vhcurveto
            130.5 hlineto
            0 -166 227.199996948 308.800003052 281.899993896 166 252.100006104 0 hvcurveto
            -130.5 hlineto
            0 -175.5 -209.399993896 -324.600006104 hvcurveto
            return
          </CharString>
          <CharString index="7">
            130.5 hlineto
            1.52587890625e-05 175.5 175.449996948 360.550003052 324.600006104 -175.5 209.399993896 0 hvcurveto
            -130.5 hlineto
            1.52587890625e-05 166 -252.100006104 -281.899993896 -308.800003052 -166 -227.199996948 0 hvcurveto
            return
          </CharString>
          <CharString index="8">
            148 -149 118 149 150 118 -150 149 -118 -149 -148 hlineto
            return
          </CharString>
          <CharString index="9">
            314 118 -314 hlineto
            return
          </CharString>
          <CharString index="10">
            -14 10 -9 14 vhcurveto
            86 hlineto
            14 11 5 18 hvcurveto
            90 vlineto
            16 -7 9 -18 vhcurveto
            -86 hlineto
            -16 -8 -10 -15 hvcurveto
            return
          </CharString>
          <CharString index="11">
            -1.52587890625e-05 -120 71.1000061035 -58.5 112.449996948 0 rrcurveto
            164 hlineto
            110.550003052 66.8999938965 59.5 119 hvcurveto
            375 vlineto
            -1.52587890625e-05 95.8999938965 -42.25 82.6000061035 -134.649993896 0 rrcurveto
            -164 hlineto
            -111.499984741 -72.6000061035 -63.8999938965 -120.100006104 hvcurveto
            return
          </CharString>
          <CharString index="12">
            -129.150009155 0 -83.8499908447 -9.75 -91 -15.75 rrcurveto
            return
          </CharString>
          <CharString index="13">
            267 hlineto
            52 46.5 -11.6999969482 -57.3000030518 hvcurveto
            -36 vlineto
            0 -52.75 -29.5 -15.75 -69 -3 rrcurveto
            return
          </CharString>
          <CharString index="14">
            -117 2 -118.5 1 -88 -31 rrcurveto
            return
          </CharString>
          <CharString index="15">
            34 -64.5 343 0 0 -157.5 140 0 0 157.5 73.5 24.5 0 108.5 -73.5 0 0 243.5 -108.5 0 -31.5 -76.6499938965 0 -166.850006104 -181.149993896 0 218.649993896 439.5 -154 0 rlineto
            return
          </CharString>
          <CharString index="16">
            0 -315 77.8999938965 -69.5500030518 116.149993896 -0.449996948242 rrcurveto
            142.949996948 hlineto
            106.099990845 71.4000091553 43.6000061035 121.899993896 hvcurveto
            109 vlineto
            95.0500030518 -30.5 75.9499969482 -141.5 vhcurveto
            return
          </CharString>
          <CharString index="17">
            -79.5 0 -64.4000091553 -6.05000305176 -58.5999908447 -14.9499969482 0.899993896484 77.9499969482 8.10000610352 107.550003052 91 0 rrcurveto
            250.5 106.149993896 hlineto
            -93.9000091553 16.8500061035 -124.149993896 12.0500030518 -100.449996948 -8.80000305176 rrcurveto
            -86.3000030518 -7.69999694824 -85.6999969482 -78.5500030518 0 -265 rrcurveto
            return
          </CharString>
          <CharString index="18">
            174.449996948 hlineto
            41.0500183105 19.4499969482 -12.8999938965 -51.1000061035 hvcurveto
            -67.25 vlineto
            1.52587890625e-05 -52.3000030518 -22.1500091553 -9.44999694824 -41.0999908447 0 rrcurveto
            -76.3999938965 hlineto
            -85.25 -10.049987793 92.3999938965 100.600006104 hvcurveto
            return
          </CharString>
          <CharString index="19">
            336 0 -225 -603 152.899993896 0 245.199996948 667.5 -38 64.5 -471.100006104 0 rlineto
            return
          </CharString>
          <CharString index="20">
            -53.6499938965 5.09999084473 -114.100006104 181.900009155 vhcurveto
            150.5 hlineto
            82.1499938965 91.8500061035 22.8999938965 148.150009155 hvcurveto
            85.8999938965 vlineto
            0.449996948242 42.9999847412 -13.1999969482 82.4000091553 -62.25 11.6499938965 68.1499938965 11.6999969482 7.30000305176 79.5500030518 -0.449996948242 24.75 rrcurveto
            53.4499969482 vlineto
            125.749984741 -59.950012207 47.8000030518 -113.049987793 vhcurveto
            -151.5 hlineto
            -103 -84 -35.6999969482 -137.300003052 hvcurveto
            -65 vlineto
            0 -57.3999938965 9.44999694824 -57.8500061035 69.5 -30.25 -48.8000030518 -10.8000030518 -30.1499938965 -40.8999938965 0 -60.8000030518 rrcurveto
            return
          </CharString>
          <CharString index="21">
            69.25 vlineto
            42.7499847412 23 19.5500030518 43.799987793 vhcurveto
            101.25 hlineto
            41.25 22.200012207 -22.3500061035 -39.9499969482 hvcurveto
            -69.25 vlineto
            -39.2500152588 -22.3500061035 -20.6999969482 -43.5500030518 vhcurveto
            -93.8500061035 hlineto
            -52.1000061035 -19.6499938965 18.6499938965 41.3000030518 hvcurveto
            return
          </CharString>
          <CharString index="22">
            47.1000061035 vlineto
            65.799987793 26.4499969482 6.60000610352 45.3000030518 vhcurveto
            94.3000030518 hlineto
            39.75 25.700012207 -12.6999969482 -59.6999969482 hvcurveto
            -47.1000061035 vlineto
            -32.6999969482 -7.5 -29.3000030518 -57.0500030518 vhcurveto
            -100.149993896 hlineto
            -34 -32.799987793 10.3999938965 51.6000061035 hvcurveto
            return
          </CharString>
          <CharString index="23">
            -14.0000152588 10 -9 14 vhcurveto
            86 hlineto
            14 -1.52587890625e-05 11 5 0 18 rrcurveto
            90 vlineto
            15.9999847412 -7 9 -18 vhcurveto
            -86 hlineto
            -16 -1.52587890625e-05 -8 -10 0 -15 rrcurveto
            return
          </CharString>
          <CharString index="24">
            1.52587890625e-05 -14 10 -9 14 0 rrcurveto
            86 hlineto
            14.0000152588 11 5 18 hvcurveto
            90 vlineto
            1.52587890625e-05 16 -7 9 -18 0 rrcurveto
            -86 hlineto
            -15.9999847412 -8 -10 -15 hvcurveto
            return
          </CharString>
          <CharString index="25">
            -126 1 -130.5 -18 -48 -10 rrcurveto
            -85.5 vlineto
            return
          </CharString>
          <CharString index="26">
            88 261.25 82.25 -261.25 rlineto
            return
          </CharString>
          <CharString index="27">
            295.550003052 9.44999694824 0 115.100006104 rlineto
            return
          </CharString>
          <CharString index="28">
            -295.550003052 10.5500030518 0 114.199996948 rlineto
            27 0 29 52 vhcurveto
            return
          </CharString>
          <CharString index="29">
            289.050003052 115.75 hlineto
            return
          </CharString>
          <CharString index="30">
            140 289.5 251 -289.5 140 732 -140 -313.5 -251 313.5 -140 hlineto
            return
          </CharString>
          <CharString index="31">
            140 732 -140 hlineto
            return
          </CharString>
          <CharString index="32">
            -113 72.75 -29.5 79.75 vhcurveto
            300.5 129 -251 hlineto
            -29 -33 -1 53 hvcurveto
            551 -140 vlineto
            return
          </CharString>
          <CharString index="33">
            197.5 -603 140 603 203.5 129 -541 hlineto
            return
          </CharString>
          <CharString index="34">
            504 129 -319 hlineto
            319 474 0 129 -504 0 0 -129 335.5 0 -335.5 -474 rlineto
            return
          </CharString>
          <CharString index="35">
            122 -138.5 91 0 -90.5 138.5 rlineto
            return
          </CharString>
          <CharString index="36">
            83.25 -424 hlineto
            return
          </CharString>
          <CharString index="37">
            140 531 -140 hlineto
            return
          </CharString>
          <CharString index="38">
            -27.5 56.5 -112.5 0 rlineto
            return
          </CharString>
          <CharString index="39">
            85.8000030518 -235 hlineto
            -141 51.6999969482 -49.1000061035 78.6499938965 vhcurveto
            122.100006104 86 hlineto
            -6.99998474121 -60 21 0 hvcurveto
            -27.4000091553 10.200012207 -18.049987793 16.6999969482 0 78.1999969482 rrcurveto
            213 118.699996948 107 -118.699996948 148 -116.5 vlineto
            -23.5 -148 -85.8000030518 -29 rlineto
            return
          </CharString>
          <CharString index="40">
            27.5 -56.5 112.5 0 0 531 -140 0 0 -381.5 rlineto
            return
          </CharString>
          <CharString index="41">
            -32.3999938965 26.8500061035 -26.8500061035 32.3999938965 32.4000091553 25.8499908447 26.8500061035 32.3999938965 32.3999938965 -25.8499908447 25.8500061035 -32.4000091553 -32.3999938965 -26.8500061035 -25.8500061035 -32.3999938965 vhcurveto
            return
          </CharString>
          <CharString index="42">
            1.52587890625e-05 -181.850006104 65.5500030518 -186.149993896 188.949996948 0 rrcurveto
            231.5 hlineto
            151.000015259 80.5 138.699996948 229.300003052 174.050003052 -31.6500091553 189.949996948 -199.849990845 hvcurveto
            -231.5 hlineto
            -212.349990845 -42.1499938965 -183.399993896 -180.600006104 hvcurveto
            return
          </CharString>
          <CharString index="43">
            1.52587890625e-05 227.149993896 74 50.8500061035 89 0 rrcurveto
            231.5 hlineto
            131.000015259 9 -158 -120 hvcurveto
            0 -204 -60.9000091553 -77.5500030518 -84.5999908447 -0.449996948242 rrcurveto
            -226 hlineto
            -113.999984741 0.449996948242 -49 129.75 0 151.800003052 rrcurveto
            return
          </CharString>
          <CharString index="44">
            211 -208 74.5500030518 77.3000030518 -133.050003052 130.699996948 130.25 127.350006104 -76.75 75.6499938965 rlineto
            return
          </CharString>
          <CharString index="45">
            292 79.5 -292 hlineto
            return
          </CharString>
          <CharString index="46">
            -57 46 -45 56 56 45 45 57 57 -45 46 -56 -56 -46 -46 -57 vhcurveto
            return
          </CharString>
          <CharString index="47">
            91 0 122 138.5 -122.5 0 rlineto
            return
          </CharString>
          <CharString index="48">
            101.050003052 22.8999938965 0 -383.899993896 108.199996948 0 0 482.050003052 -107.100006104 0 -102.149993896 -55 rlineto
            return
          </CharString>
          <CharString index="49">
            322.399993896 69 -322.399993896 hlineto
            return
          </CharString>
          <CharString index="50">
            74.5500030518 -77.3000030518 211 208 -206 203 -76.75 -75.6499938965 130.25 -127.350006104 rlineto
            return
          </CharString>
          <CharString index="51">
            101.300003052 0 412.899993896 752.899993896 -101.300003052 0 rlineto
            return
          </CharString>
          <CharString index="52">
            170.600006104 hlineto
            40.049987793 26.75 -8.10000610352 -32.1000061035 hvcurveto
            -12.6499938965 vlineto
            0 -30.1000061035 -20.1499938965 -9.89999389648 -46.6500091553 -1.44999694824 rrcurveto
            return
          </CharString>
          <CharString index="53">
            -125.5 -7.55000305176 0 -86.0500030518 rlineto
            return
          </CharString>
          <CharString index="54">
            -79.8500061035 1.09999084473 -76.299987793 0.900009155273 -59.75 -21.6500091553 rrcurveto
            return
          </CharString>
          <CharString index="55">
            150.400390625 0 52.7998046875 162.200195312 239.75 0 52 -162.200195312 149.049804688 0 -237.75 732 -159.25 0 rlineto
            return
          </CharString>
          <CharString index="56">
            94 0 62.599609375 60 58.900390625 -60 93 0 -96.849609375 135.5 -104 0 rlineto
            return
          </CharString>
          <CharString index="57">
            24.2998046875 -55.2998046875 rlineto
            33.7001953125 19.5 18.9501953125 15.0498046875 41.25 0.4501953125 rrcurveto
            return
          </CharString>
          <CharString index="58">
            37.6494140625 0.4501953125 25.4501953125 -33.650390625 48.8505859375 -1.349609375 46.94921875 -0.900390625 39.4501953125 39.4501953125 26.9501953125 29.400390625 rrcurveto
            -24.2001953125 59.599609375 rlineto
            -26.5 -20.2998046875 -32.7998046875 -19.4501953125 -32.7998046875 1.5498046875 rrcurveto
            return
          </CharString>
          <CharString index="59">
            -34.6005859375 0.4501953125 -25.1494140625 33.2001953125 -46.7001953125 1.349609375 rrcurveto
            -49.25 0 -39.75 -34.849609375 -31.75 -34.650390625 rrcurveto
            return
          </CharString>
          <CharString index="60">
            -32.400390625 26.849609375 -26.849609375 32.400390625 32.400390625 25.849609375 26.849609375 32.400390625 32.400390625 -25.849609375 25.849609375 -32.400390625 -32.400390625 -26.849609375 -25.849609375 -32.400390625 vhcurveto
            return
          </CharString>
          <CharString index="61">
            23.9501953125 19.5 19.5 23.9501953125 23.9501953125 18.5 -19.5 -23.9501953125 -23.9501953125 -18.5 -18.5 -23.9501953125 -23.9501953125 -19.5 18.5 23.9501953125 vhcurveto
            return
          </CharString>
          <CharString index="62">
            -60.099609375 56.5 vlineto
            86.599609375 25.400390625 39.5 102 hvcurveto
            -94.5 hlineto
            0 -38 -1.7998046875 -16.400390625 -28 -12 rrcurveto
            return
          </CharString>
          <CharString index="63">
            0 -232.049804688 63.9501953125 -140.299804688 185 -1.650390625 104.799804688 -1.650390625 84.6005859375 9 65.599609375 20.150390625 rrcurveto
            109.599609375 vlineto
            0 -116.450195312 -8.099609375 -105 -115.399414062 -27.1005859375 79 164 221.549804688 39.5 23.4501953125 102.450195312 vhcurveto
            98.0498046875 0 122.950195312 -13.849609375 1 0 rrcurveto
            109.599609375 vlineto
            -78.7998046875 23.4501953125 -73.6005859375 9.7998046875 -102.599609375 0 -199 0 -49.9501953125 -138 0 -234 rrcurveto
            return
          </CharString>
          <CharString index="64">
            0 -135 103.71484375 -14.80078125 65.28515625 2.900390625 rrcurveto
            return
          </CharString>
          <CharString index="65">
            0 0 255.400390625 9.2998046875 56.6494140625 7.7001953125 rrcurveto
            114.75 vlineto
            return
          </CharString>
          <CharString index="66">
            -279.049804688 hlineto
            -29 0 -32.5498046875 -1 -0.4501953125 53 rrcurveto
            0 114.200195312 rlineto
            return
          </CharString>
          <CharString index="67">
            295.549804688 9.4501953125 0 115.099609375 rlineto
            return
          </CharString>
          <CharString index="68">
            -295.549804688 10.5498046875 0 114.200195312 rlineto
            27 0 29 52 vhcurveto
            return
          </CharString>
          <CharString index="69">
            289.049804688 115.75 hlineto
            return
          </CharString>
          <CharString index="70">
            -64.349609375 8.7998046875 -257.700195312 7.2001953125 0 0 -69.03515625 1.349609375 -89.96484375 -26.32421875 0 -127.025390625 rrcurveto
            return
          </CharString>
          <CharString index="71">
            94 0 62.599609375 60 58.900390625 -60 93 0 -96.8505859375 135.5 -104 0 rlineto
            return
          </CharString>
          <CharString index="72">
            -32.400390625 26.8505859375 -26.849609375 32.3994140625 32.400390625 25.849609375 26.849609375 32.400390625 32.400390625 -25.849609375 25.849609375 -32.400390625 -32.3994140625 -26.8505859375 -25.849609375 -32.400390625 vhcurveto
            return
          </CharString>
          <CharString index="73">
            -34.599609375 0.4501953125 -25.150390625 33.2001953125 -46.7001953125 1.349609375 rrcurveto
            -49.25 0 -39.75 -34.849609375 -31.75 -34.650390625 rrcurveto
            return
          </CharString>
          <CharString index="74">
            141 467.5 hlineto
            291.450195312 -467.5 140 0 0 732 -140 0 0 -473 -290.450195312 473 -142 0 rlineto
            return
          </CharString>
          <CharString index="75">
            -333 114.450195312 -32 180 180 113.549804688 42 323 343 -120.549804688 33 -173 -168 -126.450195312 -33 -343 vhcurveto
            return
          </CharString>
          <CharString index="76">
            233 46.2001953125 14 108.25 111.25 42.2998046875 -18.9501953125 -228.049804688 -197.299804688 -36.0498046875 -38.7001953125 -117.5 -125 -29.4501953125 36.2001953125 199.799804688 vhcurveto
            return
          </CharString>
          <CharString index="77">
            94 0 62.6005859375 60 58.8994140625 -60 93 0 -96.849609375 135.5 -104 0 rlineto
            return
          </CharString>
          <CharString index="78">
            37.650390625 0.4501953125 25.44921875 -33.650390625 48.8505859375 -1.349609375 46.9501953125 -0.900390625 39.44921875 39.4501953125 26.9501953125 29.400390625 rrcurveto
            -24.2001953125 59.599609375 rlineto
            -26.5 -20.2998046875 -32.7998046875 -19.4501953125 -32.7998046875 1.5498046875 rrcurveto
            return
          </CharString>
          <CharString index="79">
            -333 146 8 136 121 156 2 323 vhcurveto
            412 -141 -412 vlineto
            -161.549804688 -42.5 -34.4501953125 -93.5 -104.900390625 -37.099609375 28.650390625 167.349609375 vhcurveto
            412 -140 vlineto
            return
          </CharString>
          <CharString index="80">
            223.099609375 -505 0 -227 140 0 0 227 240.900390625 505 -152.5 0 -156.200195312 -351 -142.799804688 351 rlineto
            return
          </CharString>
          <CharString index="81">
            0 -69.0498046875 47.900390625 -69.5498046875 102.150390625 -2.75 81.099609375 -1.650390625 74.5498046875 54.6005859375 5.8505859375 11.5498046875 rrcurveto
            29.44921875 -58.5 110.55078125 0 0 370.5 rlineto
            0 131.450195312 -77.7001953125 39.5 -114.350585938 -0.4501953125 -99 -0.4501953125 -73.0498046875 -7.8994140625 -69.8994140625 -27.150390625 rrcurveto
            -86.4501953125 vlineto
            43.6494140625 3.150390625 133.200195312 8.2998046875 46.150390625 0 44.5 0 26.5 -8.900390625 0 -56.599609375 1 -1 -1 -33 0 0 rrcurveto
            -1 -156 1 0 -113.80078125 -41.75 -68.400390625 -77.25 vhcurveto
            return
          </CharString>
          <CharString index="82">
            25.7998046875 vlineto
            0 23.2001953125 6.1005859375 27.349609375 36.9501953125 3.4501953125 rrcurveto
            128.5 9.9501953125 0 -97.3505859375 rlineto
            0 -63.3505859375 -41.099609375 -58.5498046875 -25.75 -23.900390625 4.5498046875 44.150390625 vhcurveto
            return
          </CharString>
          <CharString index="83">
            -32.3994140625 26.849609375 -26.8505859375 32.400390625 32.3994140625 25.8505859375 26.8505859375 32.3994140625 32.400390625 -25.8505859375 25.849609375 -32.3994140625 -32.400390625 -26.849609375 -25.849609375 -32.400390625 vhcurveto
            return
          </CharString>
          <CharString index="84">
            -194.799804688 40 -78.2001953125 135 vhcurveto
            83 0 114.049804688 0.0498046875 74.9501953125 27.9501953125 rrcurveto
            94.5 vlineto
            -75 -11 -39 0.4501953125 -81 0 rrcurveto
            -75.80078125 -36.19921875 5.7001953125 95.849609375 hvcurveto
            169 hlineto
            96 52 38.400390625 94.599609375 176 -71.400390625 17.5 -153.599609375 -168.400390625 -63.599609375 -38.7998046875 -228.200195312 hvcurveto
            return
          </CharString>
          <CharString index="85">
            -1.1005859375 114.700195312 27.2998046875 4.2998046875 73.9501953125 0 rrcurveto
            67.2998046875 9.55078125 -12.2998046875 -67.0498046875 -25.30078125 -15.150390625 -14.349609375 -29.150390625 hvcurveto
            return
          </CharString>
          <CharString index="86">
            -32.400390625 26.849609375 -26.849609375 32.400390625 32.3994140625 25.8505859375 26.849609375 32.400390625 32.400390625 -25.8505859375 25.849609375 -32.3994140625 -32.400390625 -26.849609375 -25.849609375 -32.400390625 vhcurveto
            return
          </CharString>
          <CharString index="87">
            37.6494140625 0.4501953125 25.4501953125 -33.650390625 48.849609375 -1.349609375 46.9501953125 -0.900390625 39.4501953125 39.4501953125 26.9501953125 29.400390625 rrcurveto
            -24.2001953125 59.599609375 rlineto
            -26.5 -20.2998046875 -32.7998046875 -19.4501953125 -32.7998046875 1.5498046875 rrcurveto
            return
          </CharString>
          <CharString index="88">
            140 381.5 hlineto
            41.25 31.5 30.75 14.5 56.349609375 0 rrcurveto
            35.0498046875 23.6005859375 -19 -52.7998046875 hvcurveto
            -355.700195312 140 353.5 vlineto
            101.200195312 -34.900390625 85.2998046875 -123.599609375 vhcurveto
            -81 0 -41.900390625 -32.7001953125 -45.599609375 -32.7998046875 rrcurveto
            return
          </CharString>
          <CharString index="89">
            -190 58.849609375 -73 183.400390625 185.599609375 56.650390625 66 197 211 -59.400390625 67 -182.849609375 -179.5 -62.75 -61 -217 vhcurveto
            return
          </CharString>
          <CharString index="90">
            148.650390625 19.3994140625 16.849609375 82.8505859375 83.44921875 18.80078125 -16.75 -148.75 -139.799804688 -23.400390625 -10.7001953125 -78.849609375 -74.400390625 -27.849609375 13.099609375 137.400390625 vhcurveto
            return
          </CharString>
          <CharString index="91">
            -101.200195312 34.8994140625 -85.2998046875 123.600585938 vhcurveto
            81 0 34.75 33.7998046875 52.75 31.7001953125 rrcurveto
            return
          </CharString>
          <CharString index="92">
            -41.25 -31.5 -30.75 -14.5 -56.3505859375 0 rrcurveto
            -35.0498046875 -23.599609375 19 52.7998046875 hvcurveto
            355.700195312 -140 vlineto
            return
          </CharString>
          <CharString index="93">
            104.150390625 -395.700195312 rlineto
            25.849609375 -98.099609375 58.2998046875 -37.2001953125 73.80078125 0 rrcurveto
            -74.75 -270 99.8994140625 0 72.7998046875 102 183.950195312 699 -145.700195312 0 -106.349609375 -410.549804688 rlineto
            -8.349609375 0.5498046875 -33.6005859375 -4.25 -11.3994140625 42.7001953125 rrcurveto
            -91.6005859375 371.549804688 rlineto
            return
          </CharString>
          <CharString index="94">
            -20 13 -12 20 vhcurveto
            112.5 hlineto
            20 15 8 24 hvcurveto
            118.5 vlineto
            22 -10 13 -25 vhcurveto
            -112.5 hlineto
            -22 -11 -14 -21 hvcurveto
            return
          </CharString>
          <CharString index="95">
            -17.8999938965 11.450012207 -8.44999694824 14.4499969482 vhcurveto
            return
          </CharString>
          <CharString index="96">
            132.550003052 vlineto
            15.450012207 -6.44999694824 12.8999938965 -18.8999938965 vhcurveto
            -86.25 hlineto
            -16.8999938965 -9 -9.44999694824 -18.9000091553 hvcurveto
            return
          </CharString>
          <CharString index="97">
            -17.8999938965 11.8999938965 -8.44999694824 14.4499969482 vhcurveto
            return
          </CharString>
          <CharString index="98">
            132.550003052 vlineto
            15.450012207 -6 12.8999938965 -18.9000091553 vhcurveto
            -86.25 hlineto
            -16.9000091553 -9.44999694824 -9.44999694824 -18.9000091553 hvcurveto
            return
          </CharString>
          <CharString index="99">
            -1.52587890625e-05 -89 50.8500061035 -30.8999938965 78.8000030518 0 rrcurveto
            118.649993896 hlineto
            76.6499938965 48.450012207 33.25 86.6499938965 hvcurveto
            241.800003052 vlineto
            68.0999908447 -30 51.8000030518 -95.1000061035 vhcurveto
            -118.100006104 hlineto
            -82 -48.1999969482 -38.1000061035 -85.1000061035 hvcurveto
            return
          </CharString>
          <CharString index="100">
            196.949996948 vlineto
            18.3500061035 -0.150009155273 23.75 44.4000091553 vhcurveto
            69.9499969482 hlineto
            31.5000152588 11.3000030518 -11.5 -30.5999908447 hvcurveto
            -197.5 vlineto
            -33.3499908447 -10.5 -8.75 -35.0500030518 vhcurveto
            -64.4499969482 hlineto
            -29.75 -1.52587890625e-05 -17.25 6.5 0 36.1500091553 rrcurveto
            return
          </CharString>
          <CharString index="101">
            0 106.800003052 rlineto
            return
          </CharString>
          <CharString index="102">
            48.5500030518 8.05000305176 0 85 rlineto
            return
          </CharString>
          <CharString index="103">
            115.25 hlineto
            27.2499847412 7.65000915527 -6.45001220703 -27.75 hvcurveto
            -32.9499969482 vlineto
            -26.1000061035 -10.1500091553 -8.95001220703 -26.9499969482 vhcurveto
            -53.75 hlineto
            -52.8999938965 -6.40000915527 58.75 43.450012207 hvcurveto
            return
          </CharString>
          <CharString index="104">
            234.100006104 0 -161.100006104 -382.100006104 118.399993896 0 183.100006104 435.649993896 -27.4499969482 46.3999938965 -347.050003052 0 rlineto
            return
          </CharString>
          <CharString index="105">
            34.0500030518 vlineto
            25.700012207 10.1999969482 10.8999938965 28.9000091553 vhcurveto
            71.5500030518 hlineto
            27.3500061035 9.85000610352 -12.25 -24.3499908447 hvcurveto
            -34.0500030518 vlineto
            -23 -9.65000915527 -10.4499969482 -28.5500030518 vhcurveto
            -69.6499938965 hlineto
            -31.1000061035 1.52587890625e-05 -8.89999389648 9.14999389648 0 24.3000030518 rrcurveto
            return
          </CharString>
          <CharString index="106">
            22.6499938965 vlineto
            33.3500061035 11.8999938965 6.39999389648 31.25 vhcurveto
            62.8999938965 hlineto
            25.9000091553 15.9000091553 -4.94999694824 -34.8000030518 hvcurveto
            -22.6499938965 vlineto
            -18.6000061035 -2.45001220703 -18.25 -37.0999908447 vhcurveto
            -69.1999969482 hlineto
            -22.5500030518 -16.5500030518 6.60000610352 30.25 hvcurveto
            return
          </CharString>
          <CharString index="107">
            32.9499969482 vlineto
            -1.52587890625e-05 27.200012207 10.1500091553 9.5 26.9499969482 0 rrcurveto
            55.1000061035 hlineto
            52.9000091553 5.05000305176 -59.3000030518 -46.1999969482 hvcurveto
            -114.699996948 hlineto
            -27.25 -8.19999694824 7 28.8500061035 hvcurveto
            return
          </CharString>
          <CharString index="108">
            -88.5 0 -50.5 -8.10000610352 -61.6000061035 -10.75 rrcurveto
            -0.449996948242 0.449996948242 -0.449996948242 -81.549987793 0.899993896484 0 rrcurveto
            return
          </CharString>
          <CharString index="109">
            170.600006104 hlineto
            40.049987793 1.52587890625e-05 26.75 -8.10000610352 0 -32.0999908447 rrcurveto
            -12.1000061035 vlineto
            0 -30.1000061035 -20.1499938965 -9.89999389648 -46.6500091553 -1.44999694824 rrcurveto
            return
          </CharString>
          <CharString index="110">
            125.5 -5 rlineto
            39.9499816895 -1.00001525879 25.3000030518 -8.75 0 -34.5 rrcurveto
            -12.5500030518 vlineto
            -1.52587890625e-05 -31.8999938965 -15.8000030518 -7.64999389648 -53.4499969482 0 rrcurveto
            0 -147.199996948 -0.450012207031 -14.3999938965 vhcurveto
            -1 -79.8500061035 rlineto
            60.299987793 -21.6499938965 68.75 2 77.8500061035 0 rrcurveto
            92.3999938965 40.75 46.3500061035 75.9499969482 hvcurveto
            23.0500030518 vlineto
            0 50.1000061035 -18.6999969482 34.049987793 -38 14.8000030518 37 12.75 19.6999969482 32.1000061035 0 48.0999908447 rrcurveto
            30.0500030518 vlineto
            0 70.9999847412 -46.0999908447 49.3000030518 -82.0500030518 0.550003051758 rrcurveto
            return
          </CharString>
          <CharString index="111">
            -79.8500061035 1.09999084473 -76.299987793 0.350006103516 -59.75 -21.6499938965 rrcurveto
            return
          </CharString>
          <CharString index="112">
            22.5500030518 -46.5500030518 231.449996948 0 0 -96.8999938965 108.199996948 0 rlineto
            return
          </CharString>
          <CharString index="113">
            134.000396729 -23 51.5 -1 124 0 rrcurveto
            81.799987793 103.650009155 44 137 hvcurveto
            103 vlineto
            1.52587890625e-05 101.949996948 -49.3000030518 75.0500030518 -116.899993896 5.5 -21.1000061035 0.550003051758 -49.6000061035 3.69999694824 -38.5999908447 -4.25 -21.5500030518 -2.35000610352 -26.8999938965 -5.69999694824 -20.6000061035 -16.4499969482 rrcurveto
            7.60000610352 165 310 0 0 129 -444.550201416 0 -22 -451.5 132.000198364 0 rlineto
            1.52587890625e-05 41.3500061035 25.9499969482 17.1499938965 35.1499938965 0 rrcurveto
            93.5 hlineto
            60.950012207 5.94999694824 -38.4499969482 -33 hvcurveto
            -66.5500030518 vlineto
            1.52587890625e-05 -30.7998046875 -7.80000305176 -40.2001953125 -65.1499938965 0 rrcurveto
            return
          </CharString>
          <CharString index="114">
            473 119 -473 hlineto
            return
          </CharString>
          <CharString index="115">
            696 119 -696 hlineto
            return
          </CharString>
          <CharString index="116">
            -14 10 -9 14 vhcurveto
            72 hlineto
            14 9 8 15 hvcurveto
            76 vlineto
            14 -8 11 -15 vhcurveto
            -72 hlineto
            -16 -8 -10 -15 hvcurveto
            return
          </CharString>
          <CharString index="117">
            11 -134 75 0 10 134 0 67 -96 0 rlineto
            return
          </CharString>
          <CharString index="118">
            -63.650390625 12.5 -130.349609375 176.5 vhcurveto
            112.5 hlineto
            53.4501953125 12.6005859375 -26.7001953125 -41.599609375 hvcurveto
            -39.400390625 vlineto
            -56.099609375 -47.9501953125 -6.9501953125 -42.1005859375 vhcurveto
            -93 0 -121.94921875 7 -40 4 rrcurveto
            -110.049804688 vlineto
            75.69921875 -22.2998046875 81.8505859375 -7.650390625 124.899414062 0 rrcurveto
            99 103.55078125 30.7998046875 166.200195312 hvcurveto
            48.75 vlineto
            80.900390625 -29.6005859375 113.099609375 -143.450195312 vhcurveto
            -115.599609375 hlineto
            -56.7001953125 -22.2001953125 12.5 58 hvcurveto
            35.75 vlineto
            0 68.099609375 35.30078125 4.25 61.19921875 -1.349609375 36.30078125 0 144.19921875 -4.349609375 64 -5.650390625 rrcurveto
            110.049804688 vlineto
            -57.7998046875 17.1005859375 -119.950195312 14.0498046875 -105.25 -2.2001953125 -112 -1.650390625 -86 -42.349609375 0 -145 rrcurveto
            return
          </CharString>
          <CharString index="119">
            102.700195312 -135.5 104 0 101.799804688 135.5 -93.5498046875 0 -58.5498046875 -60 -62.9501953125 60 rlineto
            return
          </CharString>
          <CharString index="120">
            -60.1005859375 56.5 vlineto
            86.599609375 25.400390625 39.5 102 hvcurveto
            -94.5 hlineto
            0 -38 -1.7998046875 -16.3994140625 -28 -12 rrcurveto
            return
          </CharString>
          <CharString index="121">
            -142.299804688 -71.7001953125 100.099609375 -140.700195312 106.200195312 25.900390625 rrcurveto
            76.5 vlineto
            -55.349609375 -2.400390625 -32.8505859375 52.650390625 79.7001953125 59.75 rrcurveto
            return
          </CharString>
          <CharString index="122">
            -103 55 -39.5498046875 94 vhcurveto
            123.900390625 hlineto
            28.599609375 6.5 -12.2998046875 -22.3505859375 hvcurveto
            -24.7998046875 vlineto
            -32.5 -25.75 -1.150390625 -9.349609375 vhcurveto
            -250.900390625 -87.44921875 hlineto
            36.900390625 -24.3505859375 158.400390625 -4.5498046875 100.69921875 0 rrcurveto
            64 66 30 109 hvcurveto
            54.5 vlineto
            77.2001953125 -39.69921875 60.0498046875 -101.30078125 vhcurveto
            -126.099609375 hlineto
            -23.25 -17.650390625 0.900390625 33.5498046875 hvcurveto
            24 vlineto
            25.2001953125 4.9501953125 11.25 35.9501953125 vhcurveto
            240.650390625 88.349609375 hlineto
            -41 23.7001953125 -140.5 3.2998046875 -102.05078125 0 rrcurveto
            -103 -35 -61 -82 hvcurveto
            return
          </CharString>
          <CharString index="123">
            253.400390625 0 -238.400390625 -295.099609375 0 -116.900390625 414 0 rlineto
            0 0 1 117 -1 1 rrcurveto
            -227.349609375 0 227.349609375 294 0 118 -429 0 rlineto
            return
          </CharString>
          <CharString index="124">
            140 291 hlineto
            123 -14 121 -277 157.549804688 0 -138.599609375 288.25 rlineto
            40.6494140625 12.7998046875 75.900390625 21.5 0 181.200195312 rrcurveto
            174.799804688 -85 53.4501953125 -114.25 vhcurveto
            -320.25 hlineto
            return
          </CharString>
          <CharString index="125">
            206.5 165.950195312 vlineto
            44 28 -20.599609375 -83.150390625 -88.4501953125 -23.25 -14.2998046875 -48.75 hvcurveto
            return
          </CharString>
          <CharString index="126">
            -69.7998046875 51.2998046875 -44.2001953125 62.7001953125 63.7998046875 52.2001953125 42.400390625 71.599609375 vhcurveto
            -58 hlineto
            -34.2998046875 -20 -21.7001953125 -38 -32.4501953125 -23.5498046875 21.9501953125 34.0498046875 vhcurveto
            return
          </CharString>
          <CharString index="127">
            102.69921875 -135.5 104 0 101.80078125 135.5 -93.55078125 0 -58.5498046875 -60 -62.9501953125 60 rlineto
            return
          </CharString>
          <CharString index="128">
            311.049804688 hlineto
            178.700195312 75.25 147.5 215.5 181.349609375 -43.25 187.650390625 -210.700195312 hvcurveto
            -311.049804688 hlineto
            return
          </CharString>
          <CharString index="129">
            483.650390625 160.049804688 vlineto
            78.0498046875 46.900390625 -48.650390625 -195.849609375 -146.849609375 -34.2001953125 -92.30078125 -90.75 hvcurveto
            return
          </CharString>
          <CharString index="130">
            140 338.549804688 hlineto
            34.6494140625 49.650390625 42.1005859375 9.4501953125 58 0 30.099609375 0 32.4501953125 -1.3505859375 14.2001953125 -1.349609375 rrcurveto
            135.149414062 vlineto
            -14.2001953125 5.4501953125 -22 0.900390625 -22.9501953125 0 -66.0498046875 0 -49.5 -36.900390625 -36.7998046875 -35.5498046875 rrcurveto
            -22 67 -118 0 rlineto
            return
          </CharString>
          <CharString index="131">
            -141 50.599609375 -48 86.900390625 vhcurveto
            115.5 86 hlineto
            -7 -60 21 0 hvcurveto
            -27.400390625 10.2001953125 -18.599609375 16.7001953125 0 77.099609375 rrcurveto
            572 -140 vlineto
            return
          </CharString>
          <CharString index="132">
            -219.25 76 -51.75 99 vhcurveto
            83 1 90.7998046875 -6.5498046875 77.7001953125 39.5 rrcurveto
            87.8994140625 vlineto
            0 -99.55078125 -9.349609375 -92 -72 -22.94921875 19.650390625 135.94921875 156.55078125 30.5498046875 3.849609375 64.3994140625 89 95.55078125 -6 0 vhcurveto
            87 vlineto
            -87.6005859375 28.400390625 -104.899414062 3.099609375 -52 0 rrcurveto
            -102 -73 -51.2001953125 -218.799804688 hvcurveto
            return
          </CharString>
          <CharString index="133">
            -142.30078125 -71.7001953125 100.100585938 -140.700195312 106.200195312 25.900390625 rrcurveto
            76.5 vlineto
            -55.3505859375 -2.400390625 -32.849609375 52.650390625 79.7001953125 59.75 rrcurveto
            return
          </CharString>
          <CharString index="134">
            102.700195312 -135.5 104 0 101.799804688 135.5 -93.5498046875 0 -58.55078125 -60 -62.94921875 60 rlineto
            return
          </CharString>
          <CharString index="135">
            23.9501953125 19.5 19.5 23.9501953125 23.94921875 18.5 -19.5 -23.9501953125 -23.9501953125 -18.5 -18.5 -23.94921875 -23.9501953125 -19.5 18.5 23.9501953125 vhcurveto
            return
          </CharString>
          <CharString index="136">
            85.7998046875 -235 hlineto
            -141 51.7001953125 -49.099609375 78.650390625 vhcurveto
            122.099609375 86 hlineto
            -7 -60 21 0 hvcurveto
            -27.3994140625 10.19921875 -18.05078125 16.7001953125 0 78.2001953125 rrcurveto
            213 118.700195312 107 -118.700195312 148 -116.5 vlineto
            -23.5 -148 -85.7998046875 -29 rlineto
            return
          </CharString>
          <CharString index="137">
            -176.699981689 41.450012207 -101.300003052 153 vhcurveto
            45 0 51.5999908447 11.3499908447 40.9000091553 27.1000061035 rrcurveto
            -97.25 vlineto
            -64 -32 -31 -53 vhcurveto
            -225 -93 hlineto
            241.5 -24 rlineto
            126.649993896 -13.0500030518 81.8500061035 88.9499969482 0 136.100006104 rrcurveto
            570.149993896 vlineto
            -50.8500061035 13.9000091553 -120.649993896 16.25 -106 0 rrcurveto
            -125 -69.450012207 -83.9499969482 -179.550003052 hvcurveto
            return
          </CharString>
          <CharString index="138">
            61.3500061035 1.90000915527 91.3000030518 80.0500030518 vhcurveto
            110 -302.5 hlineto
            -43.950012207 -17.6999816895 -22.8499908447 -4 -44.3000030518 0 rrcurveto
            -79.8999938965 -0.950012207031 70.799987793 100.75 hvcurveto
            return
          </CharString>
          <CharString index="139">
            94 0 62.6000061035 60 58.8999938965 -60 93 0 -96.8500061035 135.5 -104 0 rlineto
            return
          </CharString>
          <CharString index="140">
            24.3000030518 -55.3000030518 rlineto
            33.6999816895 19.5 18.950012207 15.0500030518 41.25 0.449996948242 rrcurveto
            return
          </CharString>
          <CharString index="141">
            37.6499938965 0.449996948242 25.4499969482 -33.6499938965 48.8500061035 -1.35000610352 46.9499969482 -0.899993896484 39.4499969482 39.4499969482 26.9499969482 29.3999938965 rrcurveto
            -24.1999969482 59.6000061035 rlineto
            -26.5000152588 -20.3000030518 -32.8000030518 -19.4499969482 -32.799987793 1.55000305176 rrcurveto
            return
          </CharString>
          <CharString index="142">
            -34.6000061035 0.449996948242 -25.1499938965 33.1999969482 -46.700012207 1.35000610352 rrcurveto
            -49.25 0 -39.75 -34.8500061035 -31.75 -34.6499938965 rrcurveto
            return
          </CharString>
          <CharString index="143">
            -84.1499938965 -17 rlineto
            return
          </CharString>
          <CharString index="144">
            -198.550003052 -10 0 -113 rlineto
            return
          </CharString>
          <CharString index="145">
            34 -64.5 343.449996948 0 0 -157.5 140 0 0 157.5 73.5 24.5 0 108.5 -73.5 0 0 243.5 -108.949996948 0 -31.0500030518 -76.6499938965 0 -166.850006104 -181.149993896 0 218.649993896 439.5 -154 0 rlineto
            return
          </CharString>
          <CharString index="146">
            0 -315 77.9000091553 -69.5500030518 116.149993896 -0.449996948242 rrcurveto
            142.949996948 hlineto
            106.100006104 71.3999938965 43.6000061035 121.899993896 hvcurveto
            109 vlineto
            95.0500030518 -30.5 75.9499969482 -141.5 vhcurveto
            return
          </CharString>
          <CharString index="147">
            -79.5 0 -64.3999938965 -6.05000305176 -58.6000061035 -14.9499969482 0.900009155273 77.9499969482 8.09999084473 107.550003052 91 0 rrcurveto
            250.5 106.149993896 hlineto
            -95.6999969482 16.8500061035 -122.349990845 12.0500030518 -100.450012207 -8.80000305176 rrcurveto
            -86.299987793 -7.69999694824 -85.700012207 -78.5500030518 0 -265 rrcurveto
            return
          </CharString>
          <CharString index="148">
            174.449996948 hlineto
            41.049987793 19.450012207 -12.8999938965 -51.1000061035 hvcurveto
            -67.25 vlineto
            -52.3000030518 -22.1500091553 -9.44999694824 -41.0999908447 vhcurveto
            -76.3999938965 hlineto
            -85.2500152588 -10.0500030518 92.3999938965 100.600006104 hvcurveto
            return
          </CharString>
          <CharString index="149">
            -53.6499938965 5.10000610352 -114.100006104 181.899993896 vhcurveto
            150.5 hlineto
            82.1499938965 91.8500061035 22.8999938965 148.150009155 hvcurveto
            85.8999938965 vlineto
            0.449996948242 42.9999847412 -13.1999969482 82.4000091553 -62.25 11.6499938965 68.1499938965 11.6999969482 7.30000305176 79.5500030518 -0.449996948242 24.75 rrcurveto
            53.4499969482 vlineto
            125.749984741 -59.9499969482 47.8000030518 -113.050003052 vhcurveto
            -151.5 hlineto
            -103 -84 -35.6999969482 -137.300003052 hvcurveto
            -65 vlineto
            0 -57.3999938965 9.44999694824 -57.8500061035 69.5 -30.25 -48.8000030518 -10.8000030518 -30.1499938965 -40.8999938965 0 -60.8000030518 rrcurveto
            return
          </CharString>
          <CharString index="150">
            69.25 vlineto
            42.7499847412 23 19.5500030518 43.8000030518 vhcurveto
            101.25 hlineto
            41.2500152588 22.1999969482 -22.3500061035 -39.9499969482 hvcurveto
            -69.25 vlineto
            -39.2500152588 -22.3500061035 -20.6999969482 -43.549987793 vhcurveto
            -93.8500061035 hlineto
            -52.1000061035 -19.6499938965 18.6499938965 41.3000030518 hvcurveto
            return
          </CharString>
          <CharString index="151">
            47.1000061035 vlineto
            65.799987793 26.4499969482 6.60000610352 45.3000030518 vhcurveto
            94.3000030518 hlineto
            39.7500152588 25.6999969482 -12.6999969482 -59.6999969482 hvcurveto
            -47.1000061035 vlineto
            -32.6999969482 -7.5 -29.3000030518 -57.0500030518 vhcurveto
            -100.149993896 hlineto
            -33.9999847412 -32.8000030518 10.3999938965 51.6000061035 hvcurveto
            return
          </CharString>
          <CharString index="152">
            0 -208.700195312 31 -174.349609375 207 8.0498046875 84.5 2.75 38.5 21.4501953125 32.5 29.7998046875 rrcurveto
            37.4501953125 -49 100.549804688 0 0 413.5 rlineto
            -24 2 -23 1 -21 0 rrcurveto
            return
          </CharString>
          <CharString index="153">
            -72.75 0 -59.0498046875 -6.849609375 -42.75 -18.150390625 rrcurveto
            -88.5 vlineto
            return
          </CharString>
          <CharString index="154">
            102.549804688 -131.25 hlineto
            0 0 -57.7001953125 -46.4501953125 -68.2998046875 0.4501953125 -103.75 0.900390625 -21.75 51.25 0 190.099609375 0 180.549804688 21.400390625 67.9501953125 110.549804688 0 114.400390625 0 128.099609375 -17.5 6 0 rrcurveto
            108.5 vlineto
            -105.75 26.2001953125 -64.900390625 6.2998046875 -110.849609375 0 rrcurveto
            -199 -39.9501953125 -157.349609375 -212.650390625 hvcurveto
            return
          </CharString>
          <CharString index="155">
            0 -50.6494140625 23.30078125 -36.2001953125 28 -15.599609375 rrcurveto
            -46.6005859375 -48.5 0 -67.400390625 rlineto
            -105.099609375 71.5 -48.900390625 94 vhcurveto
            150 hlineto
            131 35.5 77.5 76.5 hvcurveto
            57.5 vlineto
            107.200195312 -61.0302734375 50.0498046875 -96.01953125 vhcurveto
            -162.950195312 hlineto
            -22.1416015625 -18.30859375 3.599609375 23.25 23.25 24.4501953125 0.150390625 16 hvcurveto
            123 hlineto
            return
          </CharString>
          <CharString index="156">
            149.700195312 31.7998046875 102 76.5 hvcurveto
            0 63.650390625 -10.6494140625 18.25 -9.3505859375 22.099609375 rrcurveto
            59 18 0 83.5 -323 0 rlineto
            -119.649414062 -64.3505859375 -62 -127 hvcurveto
            0 -53 14.5498046875 -66.099609375 44 -28 rrcurveto
            -43.19921875 -13.5 -18.55078125 -39.25 0 -41.80078125 rrcurveto
            return
          </CharString>
          <CharString index="157">
            88.25 vlineto
            0 22.7734375 -3.599609375 19.4765625 vhcurveto
            107.700195312 hlineto
            return
          </CharString>
          <CharString index="158">
            39.70703125 -0.41796875 12.3427734375 -18.2822265625 0 -29.9501953125 rrcurveto
            -38.75 vlineto
            -31.0498046875 -6 -24.75 -50.19921875 vhcurveto
            -82.900390625 hlineto
            -35 -27.900390625 5.900390625 52.6494140625 hvcurveto
            return
          </CharString>
          <CharString index="159">
            39.599609375 9.2998046875 36.900390625 56.7001953125 vhcurveto
            53.7001953125 hlineto
            49.2998046875 0 17.650390625 -21.32421875 1.349609375 -55.17578125 0.900390625 -48.099609375 -15.150390625 -34.400390625 -53.0498046875 0 rrcurveto
            -56.2001953125 hlineto
            -49.5 -15 33.5 49 hvcurveto
            return
          </CharString>
          <CharString index="160">
            -176.700195312 41.44921875 -101.299804688 153 vhcurveto
            45 0 51.6005859375 11.3505859375 40.8994140625 27.099609375 rrcurveto
            -97.25 vlineto
            -64 -32 -31 -53 vhcurveto
            -225 -93 hlineto
            241.5 -24 rlineto
            126.650390625 -13.0498046875 81.849609375 88.9501953125 0 136.099609375 rrcurveto
            570.150390625 vlineto
            -50.849609375 13.8994140625 -120.650390625 16.25 -106 0 rrcurveto
            -125 -69.44921875 -83.9501953125 -179.549804688 hvcurveto
            return
          </CharString>
          <CharString index="161">
            61.349609375 1.8994140625 91.2998046875 80.0498046875 vhcurveto
            110 -302.5 hlineto
            -43.94921875 -17.7001953125 -22.8505859375 -4 -44.2998046875 0 rrcurveto
            -79.900390625 -0.94921875 70.80078125 100.75 hvcurveto
            return
          </CharString>
          <CharString index="162">
            -15.2998046875 9.900390625 -7.2001953125 12.599609375 vhcurveto
            return
          </CharString>
          <CharString index="163">
            9.900390625 -12.6005859375 hlineto
            0 -9.404296875 -0.900390625 -14.4453125 -27 0.900390625 rrcurveto
            -43.650390625 vlineto
            0 115.200195312 -30.5546875 99.8544921875 hvcurveto
            return
          </CharString>
          <CharString index="164">
            9.900390625 -12.599609375 hlineto
            0 -9.4052734375 -0.900390625 -14.4443359375 -27 0.8994140625 rrcurveto
            -43.6494140625 vlineto
            0 115.200195312 -30.5556640625 99.85546875 hvcurveto
            return
          </CharString>
          <CharString index="165">
            110.700195312 vlineto
            13.5 -5.400390625 10.7998046875 -16.2001953125 vhcurveto
            -75.599609375 hlineto
            -14.400390625 -8.099609375 -8.1005859375 -16.19921875 hvcurveto
            return
          </CharString>
          <CharString index="166">
            -15.2998046875 9.8994140625 -7.2001953125 12.6005859375 vhcurveto
            return
          </CharString>
          <CharString index="167">
            9.8994140625 -12.599609375 hlineto
            0 -9.4052734375 -0.8994140625 -14.4443359375 -27 0.8994140625 rrcurveto
            -43.6494140625 vlineto
            0 115.19921875 -30.5556640625 99.85546875 hvcurveto
            return
          </CharString>
          <CharString index="168">
            110.700195312 vlineto
            13.5 -5.3994140625 10.7998046875 -16.2001953125 vhcurveto
            -75.599609375 hlineto
            -14.400390625 -8.099609375 -8.1005859375 -16.19921875 hvcurveto
            return
          </CharString>
          <CharString index="169">
            110.700195312 vlineto
            13.5 -5.3994140625 10.7998046875 -16.2001953125 vhcurveto
            -75.6005859375 hlineto
            -14.3994140625 -8.1005859375 -8.1005859375 -16.19921875 hvcurveto
            return
          </CharString>
          <CharString index="170">
            9.8994140625 -12.599609375 hlineto
            0 -9.4052734375 -0.8994140625 -14.4443359375 -27 0.8994140625 rrcurveto
            -43.6494140625 vlineto
            0 115.200195312 -30.5556640625 99.85546875 hvcurveto
            return
          </CharString>
          <CharString index="171">
            24.2998046875 -55.2998046875 rlineto
            33.7001953125 19.5 18.94921875 15.0498046875 41.25 0.4501953125 rrcurveto
            return
          </CharString>
          <CharString index="172">
            37.650390625 0.4501953125 25.4501953125 -33.650390625 48.849609375 -1.349609375 46.9501953125 -0.900390625 39.4501953125 39.4501953125 26.9501953125 29.400390625 rrcurveto
            -24.2001953125 59.599609375 rlineto
            -26.5 -20.2998046875 -32.7998046875 -19.4501953125 -32.80078125 1.5498046875 rrcurveto
            return
          </CharString>
          <CharString index="173">
            -34.599609375 0.4501953125 -25.150390625 33.2001953125 -46.69921875 1.349609375 rrcurveto
            -49.25 0 -39.75 -34.849609375 -31.75 -34.650390625 rrcurveto
            return
          </CharString>
          <CharString index="174">
            -85.0000152588 34.5 -45.5 98 vhcurveto
            75.8000030518 hlineto
            101 -1.52587890625e-05 33.5 45.5 0 85 rrcurveto
            90.0500030518 vlineto
            85 -34.5 45.5 -98 vhcurveto
            -75.8000030518 hlineto
            -101 -33.5 -45.5 -85 hvcurveto
            return
          </CharString>
          <CharString index="175">
            57.0500030518 vlineto
            38.9499969482 12.049987793 10.0500030518 38.200012207 vhcurveto
            48.3000030518 hlineto
            34.9000091553 13.3499908447 -8.80000305176 -40.1999969482 hvcurveto
            -57.0500030518 vlineto
            -32.3500061035 -5.44999694824 -16.6500091553 -44.8000030518 vhcurveto
            -48.3000030518 hlineto
            -39.3000030518 -1.52587890625e-05 -8.94999694824 14.8500061035 0 34.1499938965 rrcurveto
            return
          </CharString>
          <CharString index="176">
            104 0 294.300003052 570 -100.699996948 0 rlineto
            return
          </CharString>
          <CharString index="177">
            242 7 0 105 rlineto
            return
          </CharString>
          <CharString index="178">
            246.5 107.75 hlineto
            return
          </CharString>
          <CharString index="179">
            -81 0 -53 -8.5 -40 -11 rrcurveto
            -76.5 vlineto
            return
          </CharString>
          <CharString index="180">
            140 211.5 201 -211.5 140 571 -140 -230.5 -201 230.5 -140 hlineto
            return
          </CharString>
          <CharString index="181">
            140 570 -140 hlineto
            return
          </CharString>
          <CharString index="182">
            134.5 221 54.5 hlineto
            144.5 -221 159 0 -178.75 281 178.75 290 -159 0 -142.5 -232 -56.5 0 0 232 -134.5 0 rlineto
            return
          </CharString>
          <CharString index="183">
            1.52587890625e-05 -249 96.25 -36 161 0 rrcurveto
            168 90.25 47 245 256 -95.25 32 -163 -166 -91.25 -51 -244 hvcurveto
            return
          </CharString>
          <CharString index="184">
            1.52587890625e-05 155 43.1499938965 6 74.1000061035 0 rrcurveto
            86.1499938965 32.1000061035 -7.80000305176 -151.199996948 -149.350006104 -41.3000030518 -13.6499938965 -76.9499969482 -90.4000091553 -26.8499908447 21.3000030518 139.699996948 hvcurveto
            return
          </CharString>
          <CharString index="185">
            164 -441 140 441 164 129 -468 hlineto
            return
          </CharString>
          <CharString index="186">
            201 -374.5 0 -196.5 140 0 0 196.5 199 374.5 -152.5 0 -115.5 -225 -119.5 225 rlineto
            return
          </CharString>
          <CharString index="187">
            448 129 -258 hlineto
            258 312 0 129 -448 0 0 -129 267.5 0 -267.5 -312 rlineto
            return
          </CharString>
          <CharString index="188">
            147 0 42 116.25 178.900390625 0 39.099609375 -116.25 147 0 -186.5 570 -167.5 0 rlineto
            return
          </CharString>
          <CharString index="189">
            59.349609375 169.25 54.099609375 -169.25 rlineto
            return
          </CharString>
          <CharString index="190">
            140 210.299804688 hlineto
            0.4501953125 -0.8994140625 80.2998046875 -7.6005859375 13.5 -0.8994140625 rrcurveto
            93.349609375 -200.900390625 150 0 -111.799804688 213.200195312 rlineto
            57.150390625 15.25 27.5498046875 60.4501953125 0 102.94921875 rrcurveto
            145 -88.6005859375 33.05078125 -91.349609375 vhcurveto
            -270.549804688 hlineto
            return
          </CharString>
          <CharString index="191">
            148.950195312 117.349609375 vlineto
            20.2001953125 32.9501953125 -10.30078125 -60.099609375 -65 -24.75 -13.5498046875 -28.400390625 hvcurveto
            return
          </CharString>
          <CharString index="192">
            110.700195312 vlineto
            13.5 -5.400390625 10.7998046875 -16.19921875 vhcurveto
            -75.6005859375 hlineto
            -14.3994140625 -8.1005859375 -8.1005859375 -16.19921875 hvcurveto
            return
          </CharString>
          <CharString index="193">
            -81.9501953125 51.7001953125 -37.0498046875 67.2998046875 vhcurveto
            296 129 -215 hlineto
            -36.650390625 0 -23.7998046875 -0.099609375 0.4501953125 49.099609375 rrcurveto
            392 -140 vlineto
            return
          </CharString>
          <CharString index="194">
            -32.3999938965 26.8500061035 -26.8499908447 32.3999938965 32.4000091553 25.8499908447 26.8499908447 32.4000091553 32.3999938965 -25.8499908447 26.3000030518 -32.4000091553 -32.3999938965 -26.8500061035 -26.3000030518 -32.3999938965 vhcurveto
            return
          </CharString>
          <CharString index="195">
            -96 37.9501953125 -54.25 111.049804688 vhcurveto
            131.5 hlineto
            28.6005859375 10.8994140625 -10.650390625 -25.099609375 hvcurveto
            -39.2001953125 vlineto
            0 -7.2998046875 -35.2998046875 -32.2001953125 -100.399414062 -158.100585938 5.2001953125 0 vhcurveto
            -99 vlineto
            39.75 -20.7998046875 210.450195312 -3.400390625 46.7998046875 0 rrcurveto
            75.3505859375 65.6494140625 31.099609375 118.900390625 hvcurveto
            48 vlineto
            83.25 -31.4501953125 70.5 -109.549804688 vhcurveto
            -137 hlineto
            -27.099609375 -14.900390625 3.0498046875 34.7001953125 hvcurveto
            33.150390625 vlineto
            23 9.7998046875 20.349609375 32.2001953125 106.799804688 144.200195312 -6.75 0 vhcurveto
            101 vlineto
            -79.099609375 16.150390625 -147.400390625 6.599609375 -52 0 rrcurveto
            -121.149414062 -33.3505859375 -71.75 -85.849609375 hvcurveto
            return
          </CharString>
          <CharString index="196">
            0 -71.25 42.25 -34.650390625 63.75 -1.099609375 rrcurveto
            return
          </CharString>
          <CharString index="197">
            0 0 249.799804688 1.900390625 62.7001953125 14.2998046875 rrcurveto
            107.299804688 vlineto
            return
          </CharString>
          <CharString index="198">
            -242.5 hlineto
            -21 -15 3 29 hvcurveto
            0 70.9501953125 rlineto
            return
          </CharString>
          <CharString index="199">
            -242 8 0 71.0498046875 rlineto
            24 2 9 30 vhcurveto
            return
          </CharString>
          <CharString index="200">
            -51.150390625 9.349609375 -241.349609375 5.400390625 0 0 -72.25 -1.099609375 -53.75 -31.4501953125 0 -79.4501953125 rrcurveto
            return
          </CharString>
          <CharString index="201">
            -57 45.5500030518 -45.4499969482 56 56 45 45.4499969482 57 57 -45 46 -56 -56 -45.5500030518 -46 -57 vhcurveto
            return
          </CharString>
          <CharString index="202">
            -1.52587890625e-05 23.9499969482 19.0500030518 19.0500030518 23.9499969482 0 rrcurveto
            23.9499969482 18.5 -19.0500030518 -23.9499969482 -23.9499969482 -18.5 -18.5 -23.9499969482 -23.9499969482 -19.0500030518 18.5 23.9499969482 hvcurveto
            return
          </CharString>
          <CharString index="203">
            -158.900390625 24.650390625 -140.099609375 195.849609375 vhcurveto
            98.4501953125 0 61.849609375 6.650390625 65.7001953125 25.2998046875 rrcurveto
            95.5 vlineto
            0 0 -113.950195312 -14.0498046875 -79.0498046875 -0.900390625 -115 2 1.5 88.5498046875 0 95.9501953125 0 111.5 11.5 59 102 0 65 0 113 -12.5 15 -3 rrcurveto
            97.5 vlineto
            -63.6494140625 23 -86.900390625 7.5 -75.4501953125 0 rrcurveto
            -177.700195312 -42.7998046875 -116.549804688 -166.450195312 hvcurveto
            return
          </CharString>
          <CharString index="204">
            -32.400390625 26.8505859375 -26.849609375 32.3994140625 32.400390625 25.849609375 26.849609375 32.400390625 32.3994140625 -25.849609375 25.8505859375 -32.400390625 -32.3994140625 -26.8505859375 -25.8505859375 -32.3994140625 vhcurveto
            return
          </CharString>
          <CharString index="205">
            60.3999938965 -257.5 262.699996948 hlineto
            71.950012207 144.349990845 -5.5 288.5 hvcurveto
            0 141.149993896 -37.6999969482 146.300003052 -176.350006104 1.10000610352 -11.25 0 -248.299987793 0.899993896484 -5.40000915527 -0.449996948242 rrcurveto
            -249.5 -60.3999938965 vlineto
            return
          </CharString>
          <CharString index="206">
            133.550003052 80.3000030518 65 -80.3000030518 124.199996948 101.449996948 vlineto
            57.5999908447 -1.52587890625e-05 35 -42.6999969482 0 -121 rrcurveto
            -85.8500061035 -15.1500091553 -73.1999969482 -80.1499938965 vhcurveto
            return
          </CharString>
          <CharString index="207">
            140 320.849609375 hlineto
            220 -320.849609375 136 0 0 571 -139 0 0 -316.299804688 -220 316.299804688 -137 0 rlineto
            return
          </CharString>
          <CharString index="208">
            -249 96.25 -36 161 168 90.25 47 245 256 -95.25 32 -163 -166 -91.25 -51 -244 vhcurveto
            return
          </CharString>
          <CharString index="209">
            155 43.150390625 6 74.099609375 86.150390625 32.099609375 -7.7998046875 -151.200195312 -149.349609375 -41.2998046875 -13.650390625 -76.9501953125 -90.3994140625 -26.8505859375 21.2998046875 139.700195312 vhcurveto
            return
          </CharString>
          <CharString index="210">
            -1 -239 115 -26 136 0 rrcurveto
            121 124 32 233 hvcurveto
            310 -141 -310 vlineto
            -114.700195312 -37.4501953125 -21.2998046875 -66.5498046875 vhcurveto
            -72.4501953125 0 -37 19.099609375 0.4501953125 116.900390625 rrcurveto
            310 -141 vlineto
            return
          </CharString>
          <CharString index="211">
            -18.8000030518 12.3500061035 -8.44999694824 14.8999938965 vhcurveto
            return
          </CharString>
          <CharString index="212">
            137.050003052 vlineto
            16.8000030518 -6.44999694824 12.8999938965 -19.8000030518 vhcurveto
            -89.3999938965 hlineto
            -17.8000030518 -1.52587890625e-05 -9.44999694824 -9.89999389648 0 -19.8000030518 rrcurveto
            return
          </CharString>
          <CharString index="213">
            -18.8000030518 12.450012207 -8.44999694824 14.8999938965 vhcurveto
            return
          </CharString>
          <CharString index="214">
            137.050003052 vlineto
            1.52587890625e-05 16.8000030518 -6.90000915527 12.8999938965 -19.799987793 0 rrcurveto
            -88.8500061035 hlineto
            -17.8000030518 -1.52587890625e-05 -9.55000305176 -9.89999389648 0 -19.8000030518 rrcurveto
            return
          </CharString>
          <CharString index="215">
            -18.8000030518 12.25 -8.44999694824 14.8999938965 vhcurveto
            return
          </CharString>
          <CharString index="216">
            137.050003052 vlineto
            16.8000030518 -6.44999694824 12.8999938965 -19.8000030518 vhcurveto
            -89.5 hlineto
            -17.799987793 -1.52587890625e-05 -9.35000610352 -9.89999389648 0 -19.8000030518 rrcurveto
            return
          </CharString>
          <CharString index="217">
            269 hlineto
            78.7001953125 140.299804688 -5.0498046875 288.049804688 hvcurveto
            0 141.150390625 -38.599609375 145.849609375 -180.400390625 2 rrcurveto
            -269 hlineto
            return
          </CharString>
          <CharString index="218">
            0 -50 -5 -243.450195312 201.5 0.4501953125 70.4501953125 0 45.150390625 15.900390625 35.3994140625 35.099609375 rrcurveto
            return
          </CharString>
          <CharString index="219">
            31.5 -44 105.5 0 0 327.25 rlineto
            -24 2 -22 1 -21 0 rrcurveto
            return
          </CharString>
          <CharString index="220">
            101 -66.75 hlineto
            -9.8994140625 -23.0498046875 -46.1005859375 -23.4501953125 -53.5 0 -92.25 0.5498046875 -2.75 102.100585938 0 64.349609375 0 159.5 28.650390625 19 88.349609375 0 73.1005859375 0 62.44921875 -3.7001953125 77.9501953125 -9.2998046875 rrcurveto
            100.5 vlineto
            -62.9501953125 19.25 -131.75 9.0498046875 -73.7998046875 -3.2998046875 rrcurveto
            -159.899414062 -4.9501953125 -42.1005859375 -104.049804688 0 -184 rrcurveto
            return
          </CharString>
          <CharString index="221">
            229.5 -732 162 0 86.900390625 299.75 98.5 -299.75 162 0 201.5 732 -148.650390625 0 -134.200195312 -545.75 -115.950195312 356.849609375 50.9501953125 188.900390625 -150 0 -131.5 -543.049804688 -162.399414062 543.049804688 rlineto
            return
          </CharString>
          <CharString index="222">
            169.850585938 -531 159.19921875 0 60.05078125 192.349609375 79.5 -192.349609375 156.5 0 171.649414062 531 -150.299804688 0 -104.799804688 -367 -87.9501953125 223.950195312 36.9501953125 143.049804688 -139.400390625 0 -95.099609375 -367 -106.400390625 367 rlineto
            return
          </CharString>
          <CharString index="223">
            175.849609375 -570 169.30078125 0 56.2998046875 178.650390625 62.1494140625 -178.650390625 167.5 0 166.400390625 570 -144.299804688 0 -105.950195312 -396.650390625 -84.7001953125 236.75 47.2001953125 159.900390625 -146.549804688 0 -104.150390625 -396.650390625 -112.049804688 396.650390625 rlineto
            return
          </CharString>
          <CharString index="224">
            -32.400390625 26.849609375 -26.849609375 32.400390625 32.3994140625 25.8505859375 26.849609375 32.400390625 32.3994140625 -25.8505859375 25.8505859375 -32.3994140625 -32.400390625 -26.849609375 -25.8505859375 -32.3994140625 vhcurveto
            return
          </CharString>
          <CharString index="225">
            141 599.349609375 hlineto
            0 17 20.75 5.55078125 4.25 -15.55078125 rrcurveto
            147.849609375 -500.149414062 rlineto
            30.650390625 -166.600585938 264.25 30.5 0 156.200195312 rrcurveto
            605.700195312 -140 -591.549804688 vlineto
            0 -15 -19.2998046875 -7.1005859375 -4.7001953125 19.1005859375 rrcurveto
            -146.5 494.700195312 rlineto
            -29.099609375 149.25 -269.150390625 -4.30078125 0 -170.75 rrcurveto
            return
          </CharString>
          <CharString index="226">
            140 390.5 hlineto
            48.849609375 28.599609375 33.25 2.900390625 45.150390625 0 rrcurveto
            41.099609375 18.650390625 -22.2998046875 -51.7001953125 hvcurveto
            -348 140 370 vlineto
            92.400390625 -63.5 77.599609375 -106 vhcurveto
            -139.900390625 0 -58.1494140625 -10.7998046875 -99.4501953125 -57.2001953125 rrcurveto
            return
          </CharString>
          <CharString index="227">
            140 396 hlineto
            63.7998046875 26 73.4501953125 2.7001953125 76.7998046875 -11.2001953125 rrcurveto
            124.5 vlineto
            -163 14 -100.650390625 -14.9501953125 -90.3994140625 -59.5498046875 rrcurveto
            return
          </CharString>
          <CharString index="228">
            -113 72.69921875 -29 86.30078125 vhcurveto
            144 hlineto
            106 49 51.4501953125 115.549804688 hvcurveto
            95 vlineto
            0 181.599609375 -28.8505859375 92.9501953125 -158.149414062 0.4501953125 -111.650390625 0.4501953125 -54 -6.7998046875 -94.349609375 -28.6005859375 rrcurveto
            -86.25 vlineto
            89.849609375 8.2998046875 56.099609375 3.7001953125 56.05078125 0 83.599609375 0.4501953125 21.400390625 -11 0 -94.75 rrcurveto
            -159 hlineto
            -136.700195312 -22.2998046875 -61.5 -77 hvcurveto
            return
          </CharString>
          <CharString index="229">
            31 vlineto
            0 28.599609375 10.19921875 12.4501953125 36.30078125 2.4501953125 rrcurveto
            131.5 9.400390625 0 -74.30078125 rlineto
            -38.2998046875 -9.9501953125 -17.2998046875 -44.650390625 vhcurveto
            -76.349609375 hlineto
            -41.0498046875 -6 15 31 hvcurveto
            return
          </CharString>
          <CharString index="230">
            -32.3994140625 26.849609375 -26.8505859375 32.400390625 32.400390625 25.849609375 26.8505859375 32.3994140625 32.400390625 -25.849609375 25.849609375 -32.400390625 -32.400390625 -26.849609375 -25.849609375 -32.400390625 vhcurveto
            return
          </CharString>
          <CharString index="231">
            -142.299804688 -71.7001953125 100.099609375 -140.69921875 106.200195312 25.8994140625 rrcurveto
            76.5 vlineto
            -55.349609375 -2.3994140625 -32.8505859375 52.6494140625 79.7001953125 59.75 rrcurveto
            return
          </CharString>
          <CharString index="232">
            -92.3994140625 54.69921875 -77.6005859375 125.80078125 vhcurveto
            139.899414062 0 70.900390625 9.25 75.7001953125 45.25 rrcurveto
            485.5 -140 -401.75 vlineto
            -29.9501953125 -16.8994140625 -52.150390625 -3.3505859375 -45.1494140625 0 rrcurveto
            -41.1005859375 -18.6494140625 22.2998046875 51.7001953125 hvcurveto
            348 -140 vlineto
            return
          </CharString>
          <CharString index="233">
            -185.600006104 69.450012207 -83.3999938965 125 vhcurveto
            98.8499908447 0 126.699996948 6.35000610352 51.950012207 23.799987793 rrcurveto
            763 -140 -285.149993896 vlineto
            -40.9000091553 27.6499938965 -51.5999908447 11.3500061035 -45 0 rrcurveto
            -153 -41.450012207 -101.300003052 -176.699996948 hvcurveto
            return
          </CharString>
          <CharString index="234">
            100.75 0.950012207031 70.8000030518 79.8999938965 vhcurveto
            44.3000030518 0 22.8499908447 -4 43.950012207 -17.6999969482 rrcurveto
            -308 -110 vlineto
            -80.0500030518 -1.90000915527 96.8000030518 61.3499908447 hvcurveto
            return
          </CharString>
          <CharString index="235">
            -1.52587890625e-05 -146.5 55 -43.6000061035 75.3500061035 0 rrcurveto
            122.100006104 86 hlineto
            -7 -60 21 0 hvcurveto
            -27.3999938965 10.200012207 -18.0500030518 16.6999969482 0 78.1999969482 rrcurveto
            213 116.5 107 -116.5 148 -140 vlineto
            return
          </CharString>
        <CharString name=".notdef">
          202 0 13 505 13 hstem
          75.8000030518 14 530 14 vstem
          619.800003052 506 rmoveto
          0 -481 -252 241 rlineto
          -264.999984741 -253 rmoveto
          254 243 253 -243 rlineto
          -519.999984741 9 rmoveto
          0 485 256 -241 rlineto
          265.000015259 252 rmoveto
          -254 -242 -257 242 rlineto
          -23.9999847412 -518 rmoveto
          558 531 -558 hlineto
          endchar
        </CharString>
        <CharString name="A">
          185 21 -21 21 -21 162.199996948 124.050003052 445.75 -20 hstemhm
          hintmask 10110000
          34 hmoveto
          150.399993896 0 52.8000030518 162.199996948 239.75 0 52 -162.199996948 149.050003052 0 -237.75 732 -159.25 0 rlineto
          -7.44999694824 -445.75 rmoveto
          -81 callsubr
          endchar
        </CharString>
        <CharString name="AE">
          447 -3.89999389648 134 -117 116.550003052 64.3499908447 123.5 -24.8000030518 135.100006104 -125.650009155 115.100006104 182.550003052 132.199996948 -132.199996948 116.199996948 hstemhm
          449.050003052 140 hintmask 10100001
          22.8500061035 hmoveto
          154.699996948 0 96.1499938965 194 175.350006104 0 0 -73 rlineto
          1.52587890625e-05 -113 100.800003052 -15.8999938965 68.1999969482 4 rrcurveto
          hintmask 01000001
          0 0 244.849990845 9.29998779297 56.6500091553 7.70001220703 rrcurveto
          0 116.550003052 rlineto
          hintmask 10010001
          -268.5 0.449996948242 rlineto
          -28.9999847412 -33 -3.25 53 hvcurveto
          0 112.850006104 rlineto
          hintmask 00001001
          285.449996948 9.44999694824 0 115.100006104 rlineto
          hintmask 00010101
          -285.449996948 10.5500030518 0 117.350006104 rlineto
          0.900009155273 27 0 27.6500091553 50.1999969482 0 rrcurveto
          hintmask 00000011
          279.850006104 116.199996948 hlineto
          hintmask 10100101
          -64.3500061035 8.80000305176 -248.5 7.19999694824 0 0 -113.799987793 3.85000610352 -110.400009155 -4.90000915527 -76.9499969482 -155.550003052 rrcurveto
          27.25 -257.899993896 rmoveto
          115.800003052 241 0 -241 rlineto
          endchar
        </CharString>
        <CharString name="Aacute">
          185 0 21 141.199996948 124.050003052 425.75 20 65 138.5 hstem
          315.125 213 vstem
          315.125 797 rmoveto
          -60 callsubr
          -371.625 -935.5 rmoveto
          -52 callsubr
          -7.4501953125 -445.75 rmoveto
          -81 callsubr
          endchar
        </CharString>
        <CharString name="Abreve">
          185 0 21 141.199996948 124.050003052 425.75 20 65 58 hstem
          245.625 58 114 58 vstem
          245.625 911 rmoveto
          19 callsubr
          -269.625 -911 rmoveto
          -52 callsubr
          -7.4501953125 -445.75 rmoveto
          -81 callsubr
          endchar
        </CharString>
        <CharString name="Acircumflex">
          185 0 21 141.199996948 124.050003052 425.75 20 65 135.5 hstem
          206.375 308.5 vstem
          206.375 797 rmoveto
          -51 callsubr
          0 vmoveto
          104 hmoveto
          -384.025390625 -932.5 rmoveto
          -52 callsubr
          -7.4501953125 -445.75 rmoveto
          -81 callsubr
          endchar
        </CharString>
        <CharString name="Adieresis">
          185 0 21 141.199996948 124.050003052 425.75 20 65 117.5 hstem
          174.375 117.5 137.5 117.5 vstem
          174.375 856.25 rmoveto
          -47 callsubr
          255 hmoveto
          -47 callsubr
          -395.375 -856.25 rmoveto
          -52 callsubr
          -7.4501953125 -445.75 rmoveto
          -81 callsubr
          endchar
        </CharString>
        <CharString name="Agrave">
          185 0 21 141.199996948 124.050003052 425.75 20 65 138.5 hstem
          193.125 213 vstem
          193.125 935.5 rmoveto
          -72 callsubr
          -281.625 -935.5 rmoveto
          -52 callsubr
          -7.4501953125 -445.75 rmoveto
          -81 callsubr
          endchar
        </CharString>
        <CharString name="Amacron">
          185 0 21 141.199996948 124.050003052 425.75 20 65 79.5 hstem
          214.625 292 vstem
          214.625 797 rmoveto
          -62 callsubr
          -180.625 -876.5 rmoveto
          -52 callsubr
          -7.4501953125 -445.75 rmoveto
          -81 callsubr
          endchar
        </CharString>
        <CharString name="Aogonek">
          185 -185.656295776 76.5 90 20 -0.843704223633 21 141.199996948 124.050003052 425.75 20 hstemhm
          hintmask 11000000
          579.200195312 0.84375 rmoveto
          -142.299804688 -71.7001953125 100.099609375 -140.700195312 106.200195312 25.900390625 rrcurveto
          76.5 vlineto
          -55.3505859375 -2.400390625 -32.849609375 52.650390625 79.7001953125 59.75 rrcurveto
          hintmask 00111000
          -600.700195312 -0.84375 rmoveto
          -52 callsubr
          -7.4501953125 -445.75 rmoveto
          -81 callsubr
          endchar
        </CharString>
        <CharString name="Aring">
          185 0 21 141.199996948 124.050003052 425.75 20 -1.83299255371 59.5500030518 85.8999938965 59.5500030518 hstemhm
          259.125 58.5500030518 85.8999938965 58.5500030518 hintmask 00011110
          259.125 832.166992188 rmoveto
          -61 callsubr
          58.5498046875 hmoveto
          -46 callsubr
          hintmask 11100000
          -283.674804688 -832.166992188 rmoveto
          -52 callsubr
          -7.4501953125 -445.75 rmoveto
          -81 callsubr
          endchar
        </CharString>
        <CharString name="Atilde">
          185 0 21 141.199996948 124.050003052 425.75 20 65.4499969482 89.3500061035 -54.8000030518 89.8000030518 hstemhm
          hintmask 00001000
          188.875 852.299804688 rmoveto
          -50 callsubr
          hintmask 00010000
          -49 callsubr
          hintmask 00001000
          -48 callsubr
          hintmask 11100000
          -154.875 -852.299804688 rmoveto
          -52 callsubr
          -7.4501953125 -445.75 rmoveto
          -81 callsubr
          endchar
        </CharString>
        <CharString name="B">
          97 0 123.5 200.5 118 166.5 123.5 hstemhm
          60.75 140.449996948 230.050003052 137.800003052 -128.300003052 140 hintmask 11110100
          60.75 hmoveto
          304.550003052 hlineto
          154.000015259 61.4499969482 78.8999938965 136.100006104 hvcurveto
          0 93.1000061035 -50.8999938965 60.799987793 -61.0500030518 11.1000061035 rrcurveto
          hintmask 11111000
          71.5500030518 13.1999969482 28.6999969482 75.9000091553 0 67.3999938965 rrcurveto
          105.100006104 -55 90.3999938965 -151.5 vhcurveto
          -301.800003052 hlineto
          140.449996948 -608.5 rmoveto
          200.5 158.600006104 vlineto
          hintmask 11110100
          59.2500152588 21.6999969482 -48.9499969482 -53.6500091553 -77.75 -38.4499969482 -20.1499938965 -42.5 hvcurveto
          -158.600006104 318.5 rmoveto
          166.5 153.100006104 vlineto
          hintmask 11111000
          35.5000152588 41.4499969482 -15.6999969482 -67.8500061035 -52.3000030518 -26.6999969482 -30.6499938965 -50.25 hvcurveto
          endchar
        </CharString>
        <CharString name="C">
          64 -6 129 488 129 hstem
          41.8000030518 140 vstem
          41.8000030518 368 rmoveto
          1.52587890625e-05 -232.050003052 63.9499969482 -140.300003052 185 -1.64999389648 104.800003052 -1.64999389648 84.5999908447 9 65.6000061035 20.1499938965 rrcurveto
          109.600006104 vlineto
          0 -116.449996948 -8.10000610352 -105 -115.400009155 -27.0999908447 79 164 221.550003052 39.5 23.4499969482 102.449996948 vhcurveto
          98.0500030518 0 122.949996948 -13.8500061035 1 0 rrcurveto
          109.600006104 vlineto
          -78.8000030518 23.4499969482 -73.5999908447 9.80000305176 -102.600006104 0 -199 0 -49.9499969482 -138 0 -234 rrcurveto
          endchar
        </CharString>
        <CharString name="Cacute">
          64 -6 129 488 129 60 138.5 hstem
          41.8000030518 140 104.449996948 213 vstem
          286.25 800 rmoveto
          -60 callsubr
          -334.950195312 -570.5 rmoveto
          -44 callsubr
          endchar
        </CharString>
        <CharString name="Ccaron">
          64 -6 129 488 129 60 135.5 hstem
          41.8000030518 140 2.34999084473 308.5 vstem
          184.150390625 935.5 rmoveto
          20 callsubr
          9.25 -135.5 rmoveto
          104 hmoveto
          -349.049804688 -432 rmoveto
          -44 callsubr
          endchar
        </CharString>
        <CharString name="Ccedilla">
          64 -178.050003052 141.5 30.5500030518 129 488 129 hstem
          41.8000030518 140 5.69999694824 94.5 vstem
          113.5 -117.950195312 rmoveto
          -45 callsubr
          -115.900390625 470.950195312 rmoveto
          -44 callsubr
          endchar
        </CharString>
        <CharString name="Ccircumflex">
          64 -6 129 488 129 60 135.5 hstemhm
          41.8000030518 140 -5.40000915527 308.5 hintmask 00101000
          176.400390625 800 rmoveto
          -36 callsubr
          0 vmoveto
          104 hmoveto
          hintmask 11010000
          -346.25 -567.5 rmoveto
          -44 callsubr
          endchar
        </CharString>
        <CharString name="Cdotaccent">
          64 -6 129 488 129 60.8999938965 124 hstem
          41.8000030518 140 89.5 119 vstem
          271.299804688 823.900390625 rmoveto
          9 callsubr
          -229.5 -531.900390625 rmoveto
          -44 callsubr
          endchar
        </CharString>
        <CharString name="D">
          155 0 124.850006104 483.649993896 123.5 hstem
          60.75 140 285 140 vstem
          60.75 hmoveto
          311.050003052 hlineto
          178.700012207 75.25 147.5 215.5 181.350006104 -43.25 187.649993896 -210.699996948 hvcurveto
          -311.050003052 hlineto
          140 -607.149993896 rmoveto
          483.649993896 160.050003052 vlineto
          78.0500183105 46.8999938965 -48.6499938965 -195.850006104 -146.850006104 -34.1999969482 -92.299987793 -90.75 hvcurveto
          endchar
        </CharString>
        <CharString name="Dcaron">
          155 0 124.850006104 483.649993896 123.5 62.75 135.5 hstemhm
          60.75 140 -37 308.5 13.5 140 hintmask 00101000
          163.75 930.25 rmoveto
          12 callsubr
          9.25 -135.5 rmoveto
          104 hmoveto
          hintmask 11010100
          -309.700195312 -794.75 rmoveto
          21 callsubr
          140 -607.150390625 rmoveto
          22 callsubr
          endchar
        </CharString>
        <CharString name="Dcroat">
          155 0 124.850006104 215.649993896 65 200.300003052 126.199996948 hstem
          60.75 140 283.649993896 141.350006104 vstem
          -4.25 340.5 rmoveto
          65 -340.5 311.5 hlineto
          178.700195312 74.7998046875 147.5 215.5 181.349609375 -42.7998046875 187.650390625 -210.700195312 -27 -284.5 0 -0.4501953125 hvcurveto
          -326.049804688 -65 vlineto
          205 -280.650390625 rmoveto
          215.650390625 111.5 65 -111.5 200.299804688 vlineto
          160.5 0.4501953125 rlineto
          74.4501953125 48.7001953125 -48.2001953125 -194.049804688 -146.849609375 -32.400390625 -92.30078125 -90.75 hvcurveto
          endchar
        </CharString>
        <CharString name="E">
          60 -3 131.75 -114.75 114.75 166.199996948 135.100006104 -125.650009155 115.100006104 180.75 131.75 -131.75 115.75 hstemhm
          58 140 hintmask 10000010
          58 143.899993896 rmoveto
          0 -135 103.714996338 -14.799987793 65.2850036621 2.89999389648 rrcurveto
          hintmask 01000010
          0 0 255.399993896 9.30000305176 56.6500091553 7.69999694824 rrcurveto
          114.75 vlineto
          hintmask 10100010
          -279.050003052 hlineto
          -29 0 -32.5500030518 -1 -0.449996948242 53 rrcurveto
          0 114.199996948 rlineto
          hintmask 00010010
          -80 callsubr
          hintmask 00101010
          -79 callsubr
          hintmask 00000110
          -78 callsubr
          hintmask 10001010
          -64.3499908447 8.80000305176 -257.699996948 7.19999694824 0 0 -69.0350036621 1.35000610352 -89.9649963379 -26.325012207 0 -127.024993896 rrcurveto
          endchar
        </CharString>
        <CharString name="Eacute">
          60 -3 131.75 -114.75 114.75 166.199996948 135.100006104 -125.650009155 115.100006104 180.75 115.75 -115.75 131.75 62.75 138.5 hstemhm
          58 140 77.4499969482 213 hintmask 0000001010000000
          275.450195312 794.75 rmoveto
          -60 callsubr
          hintmask 1000000100000000
          -307.950195312 -789.349609375 rmoveto
          -43 callsubr
          hintmask 0100000100000000
          -42 callsubr
          hintmask 1010000100000000
          -41 callsubr
          hintmask 0001000100000000
          -40 callsubr
          hintmask 0010010100000000
          -39 callsubr
          hintmask 0000100100000000
          -38 callsubr
          hintmask 1000010100000000
          -37 callsubr
          endchar
        </CharString>
        <CharString name="Ecaron">
          60 -3 131.75 -114.75 114.75 166.199996948 135.100006104 -125.650009155 115.100006104 180.75 115.75 -115.75 131.75 62.75 135.5 hstemhm
          58 140 -32.8500061035 308.5 hintmask 0000001010000000
          165.150390625 930.25 rmoveto
          20 callsubr
          9.25 -135.5 rmoveto
          104 hmoveto
          hintmask 1000000100000000
          -313.849609375 -650.849609375 rmoveto
          -43 callsubr
          hintmask 0100000100000000
          -42 callsubr
          hintmask 1010000100000000
          -41 callsubr
          hintmask 0001000100000000
          -40 callsubr
          hintmask 0010010100000000
          -39 callsubr
          hintmask 0000100100000000
          -38 callsubr
          hintmask 1000010100000000
          -37 callsubr
          endchar
        </CharString>
        <CharString name="Ecircumflex">
          60 -3 131.75 -114.75 114.75 166.199996948 135.100006104 -125.650009155 115.100006104 180.75 115.75 -115.75 131.75 65 135.5 hstemhm
          58 140 -34.6000061035 308.5 hintmask 0000001010000000
          163.400390625 797 rmoveto
          -36 callsubr
          0 vmoveto
          104 hmoveto
          hintmask 1000000100000000
          -317.049804688 -788.599609375 rmoveto
          -43 callsubr
          hintmask 0100000100000000
          -42 callsubr
          hintmask 1010000100000000
          -41 callsubr
          hintmask 0001000100000000
          -40 callsubr
          hintmask 0010010100000000
          -39 callsubr
          hintmask 0000100100000000
          -38 callsubr
          hintmask 1000010100000000
          -37 callsubr
          endchar
        </CharString>
        <CharString name="Edieresis">
          60 -3 131.75 -114.75 114.75 166.199996948 135.100006104 -125.650009155 115.100006104 180.75 115.75 -115.75 131.75 62.75 117.5 hstemhm
          58 140 -71.6499938965 117.5 137.5 117.5 hintmask 0000001011000000
          126.349609375 854 rmoveto
          -35 callsubr
          255 hmoveto
          -35 callsubr
          hintmask 1000000100000000
          -323.349609375 -710.099609375 rmoveto
          -43 callsubr
          hintmask 0100000100000000
          -42 callsubr
          hintmask 1010000100000000
          -41 callsubr
          hintmask 0001000100000000
          -40 callsubr
          hintmask 0010010100000000
          -39 callsubr
          hintmask 0000100100000000
          -38 callsubr
          hintmask 1000010100000000
          -37 callsubr
          endchar
        </CharString>
        <CharString name="Edotaccent">
          60 -3 131.75 -114.75 114.75 166.199996948 135.100006104 -125.650009155 115.100006104 180.75 115.75 -115.75 131.75 63.6499938965 124 hstemhm
          58 140 67.3999938965 119 hintmask 0000001010000000
          265.400390625 818.650390625 rmoveto
          9 callsubr
          hintmask 1000000100000000
          -207.400390625 -750.75 rmoveto
          -43 callsubr
          hintmask 0100000100000000
          -42 callsubr
          hintmask 1010000100000000
          -41 callsubr
          hintmask 0001000100000000
          -40 callsubr
          hintmask 0010010100000000
          -39 callsubr
          hintmask 0000100100000000
          -38 callsubr
          hintmask 1000010100000000
          -37 callsubr
          endchar
        </CharString>
        <CharString name="Egrave">
          60 -3 131.75 -114.75 114.75 166.199996948 135.100006104 -125.650009155 115.100006104 180.75 115.75 -115.75 131.75 63.3000030518 138.5 hstemhm
          58 140 -33.5500030518 213 hintmask 0000001010000000
          164.450195312 933.799804688 rmoveto
          -72 callsubr
          hintmask 1000000100000000
          -228.950195312 -789.899414062 rmoveto
          -43 callsubr
          hintmask 0100000100000000
          -42 callsubr
          hintmask 1010000100000000
          -41 callsubr
          hintmask 0001000100000000
          -40 callsubr
          hintmask 0010010100000000
          -39 callsubr
          hintmask 0000100100000000
          -38 callsubr
          hintmask 1000010100000000
          -37 callsubr
          endchar
        </CharString>
        <CharString name="Emacron">
          60 -3 131.75 -114.75 114.75 166.199996948 135.100006104 -125.650009155 115.100006104 180.75 115.75 -115.75 131.75 64.1000061035 79.5 hstemhm
          58 140 -32.1499938965 292 hintmask 0000001010000000
          165.849609375 796.099609375 rmoveto
          -62 callsubr
          hintmask 1000000100000000
          -107.849609375 -731.69921875 rmoveto
          -43 callsubr
          hintmask 0100000100000000
          -42 callsubr
          hintmask 1010000100000000
          -41 callsubr
          hintmask 0001000100000000
          -40 callsubr
          hintmask 0010010100000000
          -39 callsubr
          hintmask 0000100100000000
          -38 callsubr
          hintmask 1000010100000000
          -37 callsubr
          endchar
        </CharString>
        <CharString name="Eng">
          170 -257 101 177 -21 21 -21 732 -20 hstemhm
          60.75 140.550003052 291 140 hintmask 11011100
          60.75 hmoveto
          140.550003052 0 0.899993896484 467.5 rlineto
          hintmask 10111100
          290.100006104 -467.5 0 -64.5 rlineto
          1.52587890625e-05 -85.8999938965 -58.3500061035 2.14999389648 -54.1499938965 -7.75 rrcurveto
          -101 vlineto
          119.100006104 -7.14999389648 133.400009155 16.5999908447 0 174.550003052 rrcurveto
          0 73 0 732 -140 0 0 -468.5 -289.550003052 468.5 -142 0 rlineto
          endchar
        </CharString>
        <CharString name="Eogonek">
          60 -172.17640686 76.5 90 20 -17.3235931396 131.75 -114.75 114.75 166.199996948 135.100006104 -125.650009155 115.100006104 180.75 115.75 -115.75 131.75 hstemhm
          58 140 hintmask 1100000000000000
          483.474609375 14.3232421875 rmoveto
          -142.299804688 -71.69921875 100.100585938 -140.700195312 106.19921875 25.8994140625 rrcurveto
          76.5 vlineto
          -55.349609375 -2.3994140625 -32.849609375 52.6494140625 79.69921875 59.75 rrcurveto
          hintmask 0010000010000000
          -480.974609375 129.577148438 rmoveto
          -43 callsubr
          hintmask 0001000010000000
          -42 callsubr
          hintmask 0010100010000000
          -41 callsubr
          hintmask 0000010010000000
          -40 callsubr
          hintmask 0000100110000000
          -39 callsubr
          hintmask 0000001010000000
          -38 callsubr
          hintmask 0010000110000000
          -37 callsubr
          endchar
        </CharString>
        <CharString name="Eth">
          155 0 124.850006104 215.649993896 65 200.300003052 126.199996948 hstem
          60.75 140 283.649993896 141.350006104 vstem
          -4.25 340.5 rmoveto
          65 -340.5 311.5 hlineto
          178.699996948 74.8000030518 147.5 215.5 181.350006104 -42.8000030518 187.649993896 -210.699996948 -27 -284.5 0 -0.449996948242 hvcurveto
          -326.050003052 -65 vlineto
          205 -280.649993896 rmoveto
          215.649993896 111.5 65 -111.5 200.300003052 vlineto
          160.5 0.449996948242 rlineto
          74.4499969482 48.6999969482 -48.1999969482 -194.050003052 -146.850006104 -32.3999938965 -92.299987793 -90.75 hvcurveto
          endchar
        </CharString>
        <CharString name="Euro">
          110 -6 118 130.5 83 -76 69 75 82 -74 65 150 123.5 hstemhm
          92.0500030518 140 hintmask 10100110
          15.0500030518 249.5 rmoveto
          hintmask 11000110
          77 -7 rlineto
          1.52587890625e-05 -226 168 -22.5 77 0 105 0 86.6499938965 8.69999694824 73.8500061035 31.8000030518 rrcurveto
          100 vlineto
          1.52587890625e-05 0 -141.550003052 -22.5 -90.9499969482 0 -74.1999969482 0 -63.8000030518 20.1499938965 0 110.350006104 rrcurveto
          hintmask 10100110
          -3 2 237 5 0 0 rrcurveto
          0 69 rlineto
          hintmask 11010110
          -234 7 0 68 234 7 0 68 -234 7 rlineto
          1.52587890625e-05 89.5 4.39999389648 51.5 133.600006104 0 rrcurveto
          82 146.5 -15 0 hvcurveto
          103 vlineto
          -78.799987793 23.4499969482 -130.699996948 12.0500030518 -52 0 rrcurveto
          -244 -1 -192.5 -72 hvcurveto
          hintmask 10001110
          -77 -9 0 -65 rlineto
          hintmask 11010110
          77 -8 0 -68 rlineto
          hintmask 10100110
          -77 -7 rlineto
          endchar
        </CharString>
        <CharString name="Euro.smcp">
          11 -5 121 80.25 63.5 48 60.5 90.75 118 hstem
          69.1499938965 141 vstem
          12.1499938965 196.25 rmoveto
          57 -6 rlineto
          -176 128.600006104 -19.25 75.3999938965 vhcurveto
          65 0 101.850006104 7.25 53.6499938965 20.75 rrcurveto
          106 vlineto
          0 -117.399993896 -13 -75.6000061035 -46.1999969482 -44.3000030518 9.39999389648 64.8500061035 vhcurveto
          -2 2 176 4 0 0 rrcurveto
          0 63.5 -174 5 0 37 174 5 0 62.5 -174 6 rlineto
          51.1000061035 16.3000030518 32.6499938965 74.1999969482 64 126 -11 0 vhcurveto
          106 vlineto
          -73.1499938965 13.3000030518 -103.350006104 9.69999694824 -41 0 rrcurveto
          -196.599990845 -7.40000915527 -145.75 -56 hvcurveto
          -57 -7 0 -60.5 57 -6 0 -37 -57 -5 rlineto
          endchar
        </CharString>
        <CharString name="F">
          60 21 -21 21 -21 294.949996948 135.100006104 -125.650009155 115.100006104 180.75 131.75 -131.75 115.75 hstemhm
          58 140 hintmask 10100010
          58 hmoveto
          140 294.949996948 hlineto
          hintmask 00010010
          -80 callsubr
          hintmask 00101010
          -79 callsubr
          hintmask 00000110
          -78 callsubr
          hintmask 10101010
          -64.3499908447 8.80000305176 -257.699996948 7.19999694824 0 0 -76.7350006104 1.89999389648 -82.2649993896 -36.6499938965 0 -119.449996948 rrcurveto
          endchar
        </CharString>
        <CharString name="G">
          107 -5 130.75 177.25 113.5 -113.5 88.5 225 123.5 hstemhm
          41.8000030518 140 251.5 140 hintmask 11011100
          41.8000030518 370 rmoveto
          1.52587890625e-05 -208.699996948 31 -174.350006104 207 8.05000305176 84.5 2.75 38.5 21.4499969482 32.5 29.8000030518 rrcurveto
          37.4499969482 -49 100.550003052 0 0 413.5 rlineto
          -23.9999847412 2 -23 1 -21 0 rrcurveto
          hintmask 10111100
          -72.75 0 -59.0500030518 -6.85000610352 -42.75 -18.1499938965 rrcurveto
          -88.5 vlineto
          hintmask 11011100
          102.550003052 -131.25 hlineto
          1.52587890625e-05 0 -57.6999969482 -46.4499969482 -68.3000030518 0.449996948242 -103.75 0.899993896484 -21.75 51.25 0 190.100006104 0 180.550003052 21.3999938965 67.9499969482 110.550003052 0 114.399993896 0 128.100006104 -17.5 6 0 rrcurveto
          108.5 vlineto
          -105.75 26.1999969482 -64.8999938965 6.30000305176 -110.850006104 0 rrcurveto
          -199 -39.9499969482 -157.350006104 -212.649993896 hvcurveto
          endchar
        </CharString>
        <CharString name="Gbreve">
          107 -5 130.75 177.25 88.5 -88.5 113.5 200 123.5 60 58 hstemhm
          41.8000030518 140 29.8499908447 58 114 58 -8.34999084473 140 hintmask 0000101100000000
          211.650390625 914 rmoveto
          19 callsubr
          hintmask 1011010010000000
          -227.850585938 -544 rmoveto
          45 callsubr
          hintmask 1101010010000000
          46 callsubr
          hintmask 1011010010000000
          47 callsubr
          endchar
        </CharString>
        <CharString name="Gcircumflex">
          107 -5 130.75 177.25 88.5 -88.5 113.5 200 123.5 60 135.5 hstemhm
          41.8000030518 140 -2.25 308.5 -54.75 140 hintmask 00001010
          179.549804688 800 rmoveto
          -30 callsubr
          0 vmoveto
          104 hmoveto
          hintmask 10110101
          -349.400390625 -565.5 rmoveto
          45 callsubr
          hintmask 11010101
          46 callsubr
          hintmask 10110101
          47 callsubr
          endchar
        </CharString>
        <CharString name="Gcommaaccent">
          107 -281.100006104 43.6499938965 232.450012207 130.75 177.25 88.5 -88.5 113.5 200 123.5 hstemhm
          41.8000030518 140 71.4349975586 119.699996948 -87.3000030518 87.3000030518 60.3650054932 140 hintmask 0000000000000000
          hintmask 1000001000000000
          253.235351562 -179.400390625 rmoveto
          59 callsubr
          hintmask 1000000100000000
          60 callsubr
          hintmask 1000001000000000
          61 callsubr
          hintmask 0101110010000000
          -211.435546875 471.099609375 rmoveto
          45 callsubr
          hintmask 0110110010000000
          46 callsubr
          hintmask 0101110010000000
          47 callsubr
          endchar
        </CharString>
        <CharString name="Gdotaccent">
          107 -5 130.75 177.25 88.5 -88.5 113.5 200 123.5 60 124 hstemhm
          41.8000030518 140 84.5500030518 119 47.9499969482 140 hintmask 00001010
          266.349609375 823 rmoveto
          9 callsubr
          hintmask 10110101
          -224.549804688 -529 rmoveto
          45 callsubr
          hintmask 11010101
          46 callsubr
          hintmask 10110101
          47 callsubr
          endchar
        </CharString>
        <CharString name="H">
          129 21 -21 21 -21 289.5 129 313.5 -20 hstemhm
          60.75 140 251 140 hintmask 10111100
          60.75 hmoveto
          -77 callsubr
          endchar
        </CharString>
        <CharString name="Hbar">
          179 21 -21 21 -21 289.5 129 97.5 65 151 -20 hstemhm
          77.8000030518 140 251 140 hintmask 10111110
          14.6000061035 516 rmoveto
          63.1999969482 -516 140 289.5 251 -289.5 140 516 62.3000030518 65 -62.3000030518 151 -140 -151 -251 hlineto
          151 -140 -151 -63.1999969482 vlineto
          203.199996948 -162.5 rmoveto
          97.5 251 -97.5 vlineto
          endchar
        </CharString>
        <CharString name="Hcircumflex">
          129 0 21 268.5 129 293.5 20 65 135.5 hstemhm
          60.75 140 -28.75 308.5 -28.75 140 hintmask 00010100
          172 797 rmoveto
          -51 callsubr
          0 vmoveto
          104 hmoveto
          hintmask 11101010
          -322.900390625 -932.5 rmoveto
          -77 callsubr
          endchar
        </CharString>
        <CharString name="I">
          -262 21 -21 21 -21 732 -20 hstemhm
          60.75 140 hintmask 10110000
          60.75 hmoveto
          -76 callsubr
          endchar
        </CharString>
        <CharString name="Iacute">
          -262 0 21 691 20 65 138.5 hstemhm
          60.75 140 -115.5 213 hintmask 00101000
          85.25 797 rmoveto
          -60 callsubr
          hintmask 11010000
          -115 -935.5 rmoveto
          -76 callsubr
          endchar
        </CharString>
        <CharString name="Icircumflex">
          -262 0 21 691 20 65 135.5 hstemhm
          -23.5 308.5 -224.25 140 hintmask 00110000
          -23.5 797 rmoveto
          -51 callsubr
          0 vmoveto
          104 hmoveto
          hintmask 11001000
          -127.400390625 -932.5 rmoveto
          -76 callsubr
          endchar
        </CharString>
        <CharString name="Idieresis">
          -262 0 21 691 20 65 117.5 hstemhm
          -55.5 117.5 -1.25 140 -1.25 117.5 hintmask 00110100
          -55.5 856.25 rmoveto
          -47 callsubr
          255 hmoveto
          -47 callsubr
          hintmask 11001000
          -138.75 -856.25 rmoveto
          -76 callsubr
          endchar
        </CharString>
        <CharString name="Idotaccent">
          -262 0 21 691 20 65 124 hstemhm
          60.75 140 -129.5 119 hintmask 00101000
          71.25 820 rmoveto
          9 callsubr
          hintmask 11010000
          -10.5 -896 rmoveto
          -76 callsubr
          endchar
        </CharString>
        <CharString name="Idotaccent.smcp">
          -279 21 -21 21 -21 634.600006104 124 hstemhm
          42.9499969482 140 -127.550003052 119 hintmask 10110000
          42.9499969482 hmoveto
          74 callsubr
          hintmask 00101000
          12.450378418 87.599609375 rmoveto
          9 callsubr
          endchar
        </CharString>
        <CharString name="Igrave">
          -262 0 21 691 20 65 138.5 hstemhm
          -36.75 213 -115.5 140 hintmask 00110000
          -36.75 935.5 rmoveto
          -72 callsubr
          hintmask 11001000
          -25 -935.5 rmoveto
          -76 callsubr
          endchar
        </CharString>
        <CharString name="Imacron">
          -262 0 21 691 20 65 79.5 hstemhm
          -15.25 292 -216 140 hintmask 00110000
          -15.25 797 rmoveto
          -62 callsubr
          hintmask 11001000
          76 -876.5 rmoveto
          -76 callsubr
          endchar
        </CharString>
        <CharString name="Iogonek">
          -262 -186.206298828 76.5 90 20 -0.293701171875 21 691 20 hstemhm
          60.75 140 hintmask 11000000
          109.625 0.2939453125 rmoveto
          14 callsubr
          hintmask 00111000
          -104.375 -0.2939453125 rmoveto
          -76 callsubr
          endchar
        </CharString>
        <CharString name="Itilde">
          -262 0 21 691 20 65.4499969482 89.3500061035 -54.8000030518 89.8000030518 hstemhm
          60.75 140 hintmask 00010000
          -41 852.299804688 rmoveto
          -50 callsubr
          hintmask 00100000
          -49 callsubr
          hintmask 00010000
          -48 callsubr
          hintmask 11001000
          101.75 -852.299804688 rmoveto
          -76 callsubr
          endchar
        </CharString>
        <CharString name="J">
          -151 732 -20 hstem
          171.649993896 140 vstem
          26.75 23.1999969482 rmoveto
          52 -34.0000152588 126.800003052 -5.19999694824 53 34 50 32 3.09999084473 68 0 47 rrcurveto
          567 -140 -505.949996948 vlineto
          -0.449996948242 -104.899993896 -51.5999908447 2.95001220703 -91.0500030518 8.09999084473 rrcurveto
          endchar
        </CharString>
        <CharString name="Jcircumflex">
          -151 712 20 65 135.5 hstemhm
          87.3999938965 308.5 -224.25 140 hintmask 01100000
          87.400390625 797 rmoveto
          -36 callsubr
          0 vmoveto
          104 hmoveto
          hintmask 10010000
          -272.299804688 -909.299804688 rmoveto
          52 -34 126.799804688 -5.2001953125 53 34 50 32 3.1005859375 68 0 47 rrcurveto
          567 -140 -505.950195312 vlineto
          -0.4501953125 -104.899414062 -51.6005859375 2.94921875 -91.0498046875 8.1005859375 rrcurveto
          endchar
        </CharString>
        <CharString name="K">
          121 21 -21 21 -21 302.5 123.5 306 -20 hstemhm
          60.75 134.5 hintmask 10111000
          60.75 hmoveto
          135.5 302.5 57.8999938965 hlineto
          185.449996948 -302.5 163.149993896 0 -223.949996948 365.350006104 223.949996948 366.649993896 -163.149993896 0 -185.449996948 -306 -58.8999938965 0 0 306 -134.5 0 rlineto
          endchar
        </CharString>
        <CharString name="Kcommaaccent">
          121 -276.100006104 43.6499938965 232.450012207 21 281.5 123.5 286 20 hstemhm
          60.75 134.5 57.2850036621 119.699996948 -87.3000030518 87.3000030518 hintmask 00000000
          hintmask 10000100
          252.53515625 -174.400390625 rmoveto
          59 callsubr
          hintmask 10000010
          63 callsubr
          hintmask 10000100
          58 callsubr
          hintmask 01111000
          -191.78515625 96.099609375 rmoveto
          135.5 302.5 57.900390625 hlineto
          185.44921875 -302.5 163.150390625 0 -223.950195312 365.349609375 223.950195312 366.650390625 -163.150390625 0 -185.44921875 -306 -58.900390625 0 0 306 -134.5 0 rlineto
          endchar
        </CharString>
        <CharString name="L">
          32 0 129 603 -20 hstem
          60.75 140 vstem
          60.75 142.5 rmoveto
          -75 callsubr
          endchar
        </CharString>
        <CharString name="Lacute">
          32 0 129 583 20 65 138.5 hstemhm
          60.75 140 -115.5 213 hintmask 00101000
          85.25 797 rmoveto
          -60 callsubr
          hintmask 11010000
          -115 -793 rmoveto
          -75 callsubr
          endchar
        </CharString>
        <CharString name="Lcaron">
          32 0 129 603 -20 hstem
          60.75 140 62.1499938965 96 vstem
          60.75 142.5 rmoveto
          -113 72.7460021973 -29.5 79.7539978027 vhcurveto
          300.5 129 -251 hlineto
          -29 -33 -1 53 hvcurveto
          551 -140 vlineto
          202.149993896 -27 rmoveto
          10 callsubr
          endchar
        </CharString>
        <CharString name="Lcommaaccent">
          32 -273.350006104 43.6499938965 229.700012207 129 583 20 hstemhm
          60.75 140 33.3350067139 119.699996948 -87.3000030518 87.3000030518 hintmask 00000000
          hintmask 10001000
          234.084960938 -171.650390625 rmoveto
          55 callsubr
          hintmask 10000100
          57 callsubr
          hintmask 10001000
          58 callsubr
          hintmask 01110000
          -173.334960938 235.849609375 rmoveto
          -75 callsubr
          endchar
        </CharString>
        <CharString name="Lslash">
          63 0 129 603 -20 hstem
          92.1000061035 140 vstem
          14.0500030518 305.149993896 rmoveto
          78.0500030518 33.25 0 -195.899993896 rlineto
          -113 72.7459869385 -29.5 79.7540130615 vhcurveto
          300.5 129 -251 hlineto
          -29 -33 -1 53 hvcurveto
          0 217.449996948 112.050003052 48.3500061035 0.449996948242 71.5500030518 -112.5 -47.8999938965 0 261.550003052 -140 0 0 -321.600006104 -78.0500030518 -33.25 rlineto
          endchar
        </CharString>
        <CharString name="M">
          340 21 -21 21 -21 732 -20 hstemhm
          hintmask 10100000
          41.8000030518 hmoveto
          138.350006104 0 43.3000030518 488.550003052 122.5 -488.550003052 156.300003052 0 118.149993896 488.550003052 47.75 -488.550003052 138.350006104 0 -68.6499938965 732 -193.949996948 0 -121.350006104 -500.100006104 -121.850006104 500.100006104 -194.399993896 0 rlineto
          endchar
        </CharString>
        <CharString name="M.salt">
          351 21 -21 21 -21 hstemhm
          41.8000030518 139 hintmask 10100000
          41.8000030518 hmoveto
          139 0 26.6000061035 563.050003052 rlineto
          1 17.0000152588 22.75 6.55000305176 2.25 -16.5500030518 rrcurveto
          58.4499969482 -310.550003052 rlineto
          16.8499908447 -124.75 240.199996948 4.85000610352 16.0500030518 118.25 rrcurveto
          51.6000061035 306.600006104 rlineto
          1.80001831055 15.9999847412 24.0999908447 1.15000915527 0.550003051758 -17 rrcurveto
          33.3999938965 -564.600006104 141.100006104 0 -41.3000030518 630 rlineto
          -5.50001525879 138.850006104 -268.199996948 8.19999694824 -12.1499938965 -150.5 rrcurveto
          -50.3999938965 -318.050003052 rlineto
          -1.80001831055 -15.5500030518 -23.3499908447 -4 -2.69999694824 19.5500030518 rrcurveto
          -55.8000030518 315.399993896 rlineto
          -12.1499938965 152.700012207 -263.449996948 -7.20001220703 -4.94999694824 -146 rrcurveto
          endchar
        </CharString>
        <CharString name="N">
          171 21 -21 21 -21 732 -20 hstemhm
          60.75 141 291.449996948 140 hintmask 10111000
          60.75 hmoveto
          141 467.5 hlineto
          291.449996948 -467.5 140 0 0 732 -140 0 0 -473 -290.449996948 473 -142 0 rlineto
          endchar
        </CharString>
        <CharString name="N.salt">
          207 21 -21 21 -21 732 -20 hstemhm
          60.75 141 327.75 140 hintmask 10111000
          60.75 hmoveto
          141 599.350006104 hlineto
          0 17 20.75 5.54998779297 4.25 -15.549987793 rrcurveto
          147.850006104 -500.149993896 rlineto
          30.6499938965 -166.600006104 264.25 30.5 0 156.199996948 rrcurveto
          605.699996948 -140 -591.550003052 vlineto
          0 -15.0000152588 -19.3000030518 -7.09999084473 -4.69999694824 19.0999908447 rrcurveto
          -146.5 494.699996948 rlineto
          -29.1000061035 149.25 -269.149993896 -4.29998779297 0 -170.75 rrcurveto
          endchar
        </CharString>
        <CharString name="Nacute">
          171 0 21 691 20 65 138.5 hstemhm
          60.75 141 104.225006104 213 -25.7750091553 140 hintmask 00101000
          305.974609375 797 rmoveto
          -60 callsubr
          hintmask 11010100
          -335.724609375 -935.5 rmoveto
          -33 callsubr
          endchar
        </CharString>
        <CharString name="Nacute.salt">
          207 0 21 691 20 67.1999969482 138.5 hstemhm
          60.75 141 114.800003052 213 -0.0500030517578 140 hintmask 00101000
          316.549804688 799.200195312 rmoveto
          -60 callsubr
          hintmask 11010100
          -346.299804688 -937.700195312 rmoveto
          118 callsubr
          endchar
        </CharString>
        <CharString name="Ncaron">
          171 0 21 691 20 65 135.5 hstemhm
          60.75 141 -4.52499389648 308.5 -12.5250091553 140 hintmask 00101000
          197.224609375 932.5 rmoveto
          12 callsubr
          9.25 -135.5 rmoveto
          104 hmoveto
          hintmask 11010100
          -343.174804688 -797 rmoveto
          -33 callsubr
          endchar
        </CharString>
        <CharString name="Ncaron.salt">
          207 0 21 691 20 67.1999969482 135.5 hstemhm
          60.75 141 22.0500030518 308.5 -2.80000305176 140 hintmask 00101000
          223.799804688 934.700195312 rmoveto
          12 callsubr
          9.25 -135.5 rmoveto
          104 hmoveto
          hintmask 11010100
          -369.75 -799.200195312 rmoveto
          118 callsubr
          endchar
        </CharString>
        <CharString name="Ncommaaccent">
          171 -276.100006104 43.6499938965 232.450012207 21 691 20 hstemhm
          60.75 141 81.6849975586 119.699996948 -87.299987793 87.3000030518 90.0649871826 140 hintmask 00000000
          hintmask 10001000
          283.434570312 -174.400390625 rmoveto
          55 callsubr
          hintmask 10000100
          57 callsubr
          hintmask 10001000
          62 callsubr
          hintmask 01110010
          -222.684570312 96.099609375 rmoveto
          -33 callsubr
          endchar
        </CharString>
        <CharString name="Ncommaaccent.salt">
          207 -282 43.6499938965 238.350006104 21 691 20 hstemhm
          60.75 141 94.0850067139 119.699996948 -87.3000030518 87.3000030518 113.964996338 140 hintmask 00000000
          hintmask 10001000
          295.834960938 -180.299804688 rmoveto
          55 callsubr
          hintmask 10000100
          56 callsubr
          hintmask 10001000
          110.700195312 vlineto
          13.5 -5.400390625 10.7998046875 -16.2001953125 vhcurveto
          -75.599609375 hlineto
          -14.400390625 -8.099609375 -8.099609375 -16.2001953125 hvcurveto
          hintmask 01110010
          -235.084960938 102 rmoveto
          118 callsubr
          endchar
        </CharString>
        <CharString name="Ntilde">
          171 0 21 691 20 65.4499969482 89.3500061035 -54.8000030518 89.8000030518 hstemhm
          60.75 141 291.449996948 140 hintmask 00010000
          175.224609375 852.299804688 rmoveto
          24.30078125 -55.2998046875 rlineto
          33.69921875 19.5 18.9501953125 15.0498046875 41.25 0.4501953125 rrcurveto
          hintmask 00100000
          37.650390625 0.4501953125 25.4501953125 -33.650390625 48.849609375 -1.349609375 46.9501953125 -0.900390625 39.4501953125 39.4501953125 26.94921875 29.400390625 rrcurveto
          -24.19921875 59.599609375 rlineto
          -26.5 -20.2998046875 -32.80078125 -19.4501953125 -32.7998046875 1.5498046875 rrcurveto
          hintmask 00010000
          -34 callsubr
          hintmask 11001100
          -114.474609375 -852.299804688 rmoveto
          -33 callsubr
          endchar
        </CharString>
        <CharString name="Ntilde.salt">
          207 0 21 691 20 67.6499938965 89.3500061035 -54.8000030518 89.8000030518 hstemhm
          60.75 141 327.75 140 hintmask 00010000
          203.549804688 854.5 rmoveto
          -50 callsubr
          hintmask 00100000
          37.650390625 0.4501953125 25.44921875 -33.650390625 48.8505859375 -1.349609375 46.9501953125 -0.900390625 39.44921875 39.4501953125 26.9501953125 29.3994140625 rrcurveto
          -24.2001953125 59.6005859375 rlineto
          -26.5 -20.2998046875 -32.7998046875 -19.4501953125 -32.7998046875 1.5498046875 rrcurveto
          hintmask 00010000
          -34 callsubr
          hintmask 11001100
          -142.799804688 -854.5 rmoveto
          118 callsubr
          endchar
        </CharString>
        <CharString name="O">
          164 -4 129 483 129 hstem
          49.6000061035 140 308 140 vstem
          49.6000061035 361 rmoveto
          -333 114.449996948 -32 180 180 113.550003052 42 323 343 -120.550003052 33 -173 -168 -126.449996948 -33 -343 vhcurveto
          140 hmoveto
          233 46.1999969482 14 108.25 111.25 42.3000030518 -18.9499969482 -228.050003052 -197.300003052 -36.0500030518 -38.6999969482 -117.5 -125 -29.4499969482 36.1999969482 199.800003052 vhcurveto
          endchar
        </CharString>
        <CharString name="OE">
          501 -4 129 -111 114.75 166.199996948 135.100006104 -125.650009155 115.100006104 180.75 131.75 -131.75 115.75 -108 129 hstemhm
          49.6000061035 140 307.449996948 140 hintmask 1000001110000000
          189.600006104 361 rmoveto
          233 45.75 14 108.25 111.25 42.1999969482 -18.9499969482 -228.050003052 -197.300003052 -35.9499969482 -38.6999969482 -117.5 vhcurveto
          -125 -29 36.1999969482 199.800003052 hvcurveto
          -140 hmoveto
          -333 114 -32 180 vhcurveto
          78.5 0 64.0999908447 8.14999389648 47.4499969482 38.200012207 32.6500091553 -42.75 56.0999908447 -5.05000305176 43.6500091553 2.44999694824 rrcurveto
          hintmask 0110000110000000
          0 0 244.849990845 9.30000305176 56.6500091553 7.69999694824 rrcurveto
          114.75 -268.5 vlineto
          -28.9999847412 0 -32.5500030518 -1 -0.449996948242 53 rrcurveto
          0 114.199996948 rlineto
          hintmask 0001000110000000
          285 9.44999694824 0 115.100006104 rlineto
          hintmask 0010100110000000
          -285 10.5500030518 0 114.199996948 rlineto
          1.52587890625e-05 27 0 29 52 0 rrcurveto
          hintmask 0000010110000000
          278.5 115.75 hlineto
          hintmask 0000100110000000
          -64.3499908447 8.80000305176 -247.149993896 7.19999694824 0 0 -46.0500030518 2.44999694824 -44.8999938965 -12.3000030518 -27.25 -34.9499969482 rrcurveto
          hintmask 1000001110000000
          -49 42.5500030518 -66.6500091553 7.25 -78.5999908447 0 rrcurveto
          -168 -126 -33 -343 hvcurveto
          endchar
        </CharString>
        <CharString name="Oacute">
          164 -4 129 483 129 60 138.5 hstemhm
          49.6000061035 140 108.949996948 213 -13.9499969482 140 hintmask 00101000
          298.549804688 797 rmoveto
          -60 callsubr
          hintmask 11010100
          -339.450195312 -574.5 rmoveto
          -32 callsubr
          140 hmoveto
          -31 callsubr
          endchar
        </CharString>
        <CharString name="Ocircumflex">
          164 -4 129 483 129 60 135.5 hstemhm
          49.6000061035 140 0.199996948242 308.5 -0.699996948242 140 hintmask 00101000
          189.799804688 797 rmoveto
          -30 callsubr
          0 vmoveto
          104 hmoveto
          hintmask 11010100
          -351.850585938 -571.5 rmoveto
          -32 callsubr
          140 hmoveto
          -31 callsubr
          endchar
        </CharString>
        <CharString name="Odieresis">
          164 -4 129 483 129 60 117.5 hstemhm
          49.6000061035 140 -31.8000030518 117.5 137.5 117.5 -32.6999969482 140 hintmask 00101100
          157.799804688 856.25 rmoveto
          -35 callsubr
          255 hmoveto
          -35 callsubr
          hintmask 11010010
          -363.200195312 -495.25 rmoveto
          -32 callsubr
          140 hmoveto
          -31 callsubr
          endchar
        </CharString>
        <CharString name="Ograve">
          164 -4 129 483 129 60 138.5 hstemhm
          49.6000061035 140 -13.0500030518 213 108.050003052 140 hintmask 00101000
          176.549804688 935.5 rmoveto
          -72 callsubr
          hintmask 11010100
          -249.450195312 -574.5 rmoveto
          -32 callsubr
          140 hmoveto
          -31 callsubr
          endchar
        </CharString>
        <CharString name="Ohungarumlaut">
          164 -4 129 483 129 60 138.5 hstem
          49.6000061035 140 308 140 vstem
          220.599609375 797 rmoveto
          -60 callsubr
          65.400390625 -138.5 rmoveto
          -60 callsubr
          -417.400390625 -574.5 rmoveto
          -32 callsubr
          140 hmoveto
          -31 callsubr
          endchar
        </CharString>
        <CharString name="Omacron">
          164 -4 129 483 129 60 79.5 hstem
          49.6000061035 140 8.44999694824 292 7.55000305176 140 vstem
          198.049804688 797 rmoveto
          -62 callsubr
          -148.450195312 -515.5 rmoveto
          -32 callsubr
          140 hmoveto
          -31 callsubr
          endchar
        </CharString>
        <CharString name="Omega">
          256 0 116.5 493.5 129 hstem
          49.0500030518 140 380.5 140 vstem
          49.0500030518 393.5 rmoveto
          1.52587890625e-05 -112 16.5500030518 -87.9499969482 100.449996948 -66.0500030518 rrcurveto
          -111 -10 0 -117.5 242 0 0 127.5 rlineto
          -100.699981689 86.3000030518 -7.30000305176 58.9499969482 0 107.25 rrcurveto
          105.100006104 31.75 124.899993896 161.5 156 31.25 -124 -101 vhcurveto
          0 -108.800003052 -10.3000030518 -75.5999908447 -94.6999969482 -73.1000061035 rrcurveto
          -127.5 250 116.5 vlineto
          -106 10 rlineto
          79.5000152588 69.8000030518 21.5 75.1999969482 0 117 rrcurveto
          182 -79.25 168.5 -248 -262 -71.25 -191.5 -154 vhcurveto
          endchar
        </CharString>
        <CharString name="Oslash">
          172 -4 129 483 129 hstem
          54.5500030518 140 308 140 vstem
          54.5500030518 361 rmoveto
          1.52587890625e-05 -138.550003052 19.4499969482 -85.8000030518 35.6999969482 -53.549987793 rrcurveto
          -57.1000061035 -83.1000061035 74.75 0 25.8500061035 37.3000030518 rlineto
          49.7499847412 -35.299987793 66.4000091553 -6 79.1999969482 0 180 0 114 42 0 323 0 152.050003052 -24.1000061035 90.8999938965 -41.4499969482 54.5500030518 rrcurveto
          50.6000061035 73.5 -74.75 0 -21.5500030518 -31.4499969482 rlineto
          -48.6499938965 30.9000091553 -62.6499938965 5.55000305176 -71.4499969482 0 -169.800003052 0 -124.199996948 -33 0 -343 rrcurveto
          140 hmoveto
          1.52587890625e-05 233 45.75 14 108.25 0 44.6999969482 0 34.3500061035 -2.19999694824 24.0999908447 -18.9499969482 rrcurveto
          -242.649993896 -361.800003052 rlineto
          -10.4499816895 30.3500061035 -4.05000305176 42.700012207 0 62.8999938965 rrcurveto
          41.3499908447 -204.899993896 rmoveto
          248.600006104 370.050003052 rlineto
          12.5500030518 -35.1999969482 5.5 -51.6499938965 0 -78.3000030518 0 -197.300003052 -36.5 -38.6999969482 -117.5 0 -54 0 -35 7.10000610352 -23.6500091553 24 rrcurveto
          endchar
        </CharString>
        <CharString name="Otilde">
          164 -4 129 483 129 60.4499969482 89.3500061035 -54.8000030518 89.8000030518 hstemhm
          49.6000061035 140 308 140 hintmask 00010000
          172.299804688 852.299804688 rmoveto
          -50 callsubr
          hintmask 00100000
          -29 callsubr
          hintmask 00010000
          -34 callsubr
          hintmask 11001100
          -122.700195312 -491.299804688 rmoveto
          -32 callsubr
          140 hmoveto
          -31 callsubr
          endchar
        </CharString>
        <CharString name="P">
          95 21 -21 21 -21 270.5 123.5 -103.5 103.5 213.5 124.5 hstemhm
          51.1999969482 140 236.800003052 141 hintmask 10011110
          51.1999969482 hmoveto
          140 290.5 hlineto
          hintmask 10101110
          4.99998474121 -3 129.75 -15.3500061035 40 -1.64999389648 83.9000091553 -3.85000610352 119.149993896 16.3000030518 0 223.300003052 rrcurveto
          197.149993896 -111.399993896 28.6000061035 -91.6500091553 vhcurveto
          -314.75 hlineto
          hintmask 00011110
          139.999984741 -338 rmoveto
          213.5 163.75 vlineto
          34.9999847412 0 37.1500091553 -16.4499969482 0.899993896484 -86.4499969482 rrcurveto
          hintmask 00101110
          -87.9000091553 -28.75 -22.6999969482 -44.3000030518 vhcurveto
          endchar
        </CharString>
        <CharString name="Q">
          164 -174.25 113 57.25 129 483 129 hstem
          49.6000061035 140 308 140 vstem
          49.6000061035 361 rmoveto
          -333 113.549987793 -32 180 vhcurveto
          180 1.10000610352 114.450012207 40.8999938965 0 323 rrcurveto
          343 -121.450012207 33 -173 -169.799987793 -123.75 -33 -343 vhcurveto
          140 hmoveto
          233 45.299987793 14 108.25 111.25 43.200012207 -18.9499969482 -228.050003052 -197.300003052 -36.950012207 -38.6999969482 -117.5 -125 -28.549987793 36.1999969482 199.800003052 vhcurveto
          110.349990845 -394 rmoveto
          7.74998474121 -128.050003052 133.650009155 -35.25 100.599990845 22.0500030518 rrcurveto
          113 vlineto
          -59.1000061035 -16.0500030518 -72.200012207 -9.05000305176 -31.1999969482 53.3500061035 rrcurveto
          endchar
        </CharString>
        <CharString name="R">
          100 21 -21 21 -21 291 110 206.5 124.5 hstemhm
          51.1999969482 140 238.5 141 hintmask 10111100
          51.1999969482 hmoveto
          140 291 hlineto
          123 -14 121 -277 157.550003052 0 -138.600006104 288.25 rlineto
          40.6500091553 12.8000030518 75.8999938965 21.5 0 181.199996948 rrcurveto
          174.800003052 -85 53.4499969482 -114.25 vhcurveto
          -320.25 hlineto
          140.549987793 -331 rmoveto
          206.5 165.949996948 vlineto
          43.9999847412 28 -20.6000061035 -83.1499938965 -88.4499969482 -23.25 -14.3000030518 -48.75 hvcurveto
          endchar
        </CharString>
        <CharString name="Racute">
          100 0 21 270 110 206.5 124.5 62.75 138.5 hstemhm
          51.1999969482 140 67.5500030518 213 -42.0500030518 141 hintmask 00010100
          258.75 794.75 rmoveto
          -60 callsubr
          hintmask 11101010
          -298.049804688 -933.25 rmoveto
          17 callsubr
          140.549804688 -331 rmoveto
          18 callsubr
          endchar
        </CharString>
        <CharString name="Rcaron">
          100 0 21 270 110 206.5 124.5 65 135.5 hstemhm
          51.1999969482 140 -40.3000030518 308.5 -29.6999969482 141 hintmask 00010100
          150.900390625 932.5 rmoveto
          20 callsubr
          9.25 -135.5 rmoveto
          104 hmoveto
          hintmask 11101010
          -306.399414062 -797 rmoveto
          17 callsubr
          140.549804688 -331 rmoveto
          18 callsubr
          endchar
        </CharString>
        <CharString name="Rcommaaccent">
          100 -272.25 43.6499938965 228.600006104 21 270 110 206.5 124.5 hstemhm
          51.1999969482 140 47.7350006104 119.699996948 -87.299987793 87.3000030518 71.0649871826 141 hintmask 00000000
          hintmask 10000100
          238.934570312 -170.549804688 rmoveto
          55 callsubr
          hintmask 10000010
          56 callsubr
          hintmask 10000100
          110.700195312 vlineto
          13.5 -5.3994140625 10.7998046875 -16.2001953125 vhcurveto
          -75.6005859375 hlineto
          -14.3994140625 -8.1005859375 -8.099609375 -16.2001953125 hvcurveto
          hintmask 01111001
          -187.734375 92.25 rmoveto
          17 callsubr
          140.549804688 -331 rmoveto
          18 callsubr
          endchar
        </CharString>
        <CharString name="S">
          83 -8 129 170.75 140 177.25 129 hstem
          49.6000061035 140 227.549987793 140 vstem
          49.6000061035 485.75 rmoveto
          -63.6499938965 12.5 -130.350006104 176.5 vhcurveto
          112.5 hlineto
          53.4499969482 12.5999908447 -26.6999969482 -41.6000061035 hvcurveto
          -39.3999938965 vlineto
          -56.0999908447 -47.9499969482 -6.94999694824 -42.0999908447 vhcurveto
          -93 0 -121.950012207 7 -40 4 rrcurveto
          -110.050003052 vlineto
          75.700012207 -22.3000183105 81.8499908447 -7.64999389648 124.900009155 0 rrcurveto
          99 103.549987793 30.8000030518 166.199996948 hvcurveto
          48.75 vlineto
          80.8999938965 -29.5999908447 113.100006104 -143.449996948 vhcurveto
          -115.600006104 hlineto
          -56.6999969482 -22.1999969482 12.5 58 hvcurveto
          35.75 vlineto
          0 68.1000061035 35.299987793 4.25 61.200012207 -1.35000610352 36.299987793 0 144.200012207 -4.35000610352 64 -5.64999389648 rrcurveto
          110.050003052 vlineto
          -57.8000030518 17.1000061035 -119.949996948 14.0500030518 -105.25 -2.19999694824 -112 -1.64999389648 -86 -42.3500061035 0 -145 rrcurveto
          endchar
        </CharString>
        <CharString name="Sacute">
          83 -8 129 170.75 140 177.25 129 60.4669952393 138.5 hstemhm
          49.6000061035 140 71.4059906006 213 -56.8560028076 140 hintmask 00010100
          261.005859375 798.466796875 rmoveto
          -60 callsubr
          hintmask 11101010
          -301.90625 -451.216796875 rmoveto
          11 callsubr
          endchar
        </CharString>
        <CharString name="Scaron">
          83 -8 129 170.75 140 177.25 129 60.4669952393 135.5 hstemhm
          49.6000061035 140 -34.1690063477 308.5 -46.7810058594 140 hintmask 00010100
          155.430664062 933.966796875 rmoveto
          12 callsubr
          9.25 -135.5 rmoveto
          104 hmoveto
          hintmask 11101010
          -312.53125 -312.716796875 rmoveto
          11 callsubr
          endchar
        </CharString>
        <CharString name="Scedilla">
          83 -185.399993896 141.5 35.8999938965 129 170.75 140 177.25 129 hstem
          49.6000061035 140 80.3999938965 94.5 52.6499938965 140 vstem
          196 -125.299804688 rmoveto
          13 callsubr
          -190.600585938 596.049804688 rmoveto
          11 callsubr
          endchar
        </CharString>
        <CharString name="Scircumflex">
          83 -8 129 170.75 140 177.25 129 60.4669952393 135.5 hstemhm
          49.6000061035 140 -34.4190063477 308.5 -46.5310058594 140 hintmask 00010100
          155.180664062 798.466796875 rmoveto
          -30 callsubr
          0 vmoveto
          104 hmoveto
          hintmask 11101010
          -317.231445312 -448.216796875 rmoveto
          11 callsubr
          endchar
        </CharString>
        <CharString name="T">
          86 21 -21 21 -21 603 129 hstemhm
          228.75 140 hintmask 10110000
          31.25 603 rmoveto
          -74 callsubr
          endchar
        </CharString>
        <CharString name="Tbar">
          77 21 -21 21 -21 368 65 170 129 hstemhm
          219.300003052 140 hintmask 10111000
          21.8000030518 603 rmoveto
          197.5 -170 -98 -65 98 -368 140 368 98 65 -98 170 203.5 129 -541 hlineto
          endchar
        </CharString>
        <CharString name="Tcaron">
          86 0 21 582 129 65 135.5 hstemhm
          143 308.5 -222.75 140 hintmask 00110000
          143 932.5 rmoveto
          12 callsubr
          9.25 -135.5 rmoveto
          104 hmoveto
          hintmask 11001000
          -318.450195312 -194 rmoveto
          -74 callsubr
          endchar
        </CharString>
        <CharString name="Tcommaaccent">
          86 -183.899993896 141.5 42.3999938965 21 582 129 hstemhm
          168.600006104 94.5 -34.3500061035 140 hintmask 10010000
          94.599609375 -123.799804688 rmoveto
          -60.1005859375 56.5 vlineto
          86.6005859375 25.3994140625 39.5 102 hvcurveto
          -94.5 hlineto
          0 -38 -1.7998046875 -16.3994140625 -28 -12 rrcurveto
          hintmask 01101000
          -107.549804688 711.799804688 rmoveto
          -74 callsubr
          endchar
        </CharString>
        <CharString name="Thorn">
          39 21 -21 21 -21 149 123.5 191.550003052 123.949996948 hstemhm
          45.6999969482 140 182.5 141 hintmask 10111100
          45.6999969482 hmoveto
          140 168 hlineto
          81.2499847412 -22.3500061035 17.1000061035 2.25 49.1499938965 1.10000610352 74 1.64999389648 102 20.3500061035 0 204 0 179 -97 33.5500030518 -79 0.449996948242 rrcurveto
          -147.5 141 -140 hlineto
          139.999984741 -456.5 rmoveto
          191.550003052 103.5 vlineto
          37.7499847412 1.52587890625e-05 40.3500061035 -2.80000305176 0.899993896484 -87 0 -90.1000061035 -27 -12.0999908447 -52 0.449996948242 rrcurveto
          endchar
        </CharString>
        <CharString name="U">
          157 -5 129 608 -20 hstem
          60.75 140 278 141 vstem
          60.75 320 rmoveto
          -333 146 8 136 121 156 2 323 vhcurveto
          412 -141 -412 vlineto
          -161.550003052 -42.5 -34.4499969482 -93.5 -104.899993896 -37.1000061035 28.6499938965 167.350006104 vhcurveto
          412 -140 vlineto
          endchar
        </CharString>
        <CharString name="Uacute">
          157 -5 129 588 20 65 138.5 hstemhm
          60.75 140 94 213 -29 141 hintmask 00101000
          294.75 797 rmoveto
          -60 callsubr
          hintmask 11010100
          -324.5 -615.5 rmoveto
          -28 callsubr
          endchar
        </CharString>
        <CharString name="Ubreve">
          157 -5 129 588 20 65 58 hstem
          60.75 140 24.5 58 114 58 23.5 141 vstem
          225.25 911 rmoveto
          19 callsubr
          -222.5 -591 rmoveto
          -28 callsubr
          endchar
        </CharString>
        <CharString name="Ucircumflex">
          157 -5 129 588 20 65 135.5 hstemhm
          60.75 140 -14.75 308.5 -15.75 141 hintmask 00101000
          186 797 rmoveto
          -51 callsubr
          0 vmoveto
          104 hmoveto
          hintmask 11010100
          -336.900390625 -612.5 rmoveto
          -28 callsubr
          endchar
        </CharString>
        <CharString name="Udieresis">
          157 -5 129 588 20 65 117.5 hstemhm
          60.75 140 -46.75 117.5 137.5 117.5 -47.75 141 hintmask 00101100
          154 856.25 rmoveto
          -47 callsubr
          255 hmoveto
          -47 callsubr
          hintmask 11010010
          -348.25 -536.25 rmoveto
          -28 callsubr
          endchar
        </CharString>
        <CharString name="Ugrave">
          157 -5 129 588 20 65 138.5 hstemhm
          60.75 140 -28 213 93 141 hintmask 00101000
          172.75 935.5 rmoveto
          -72 callsubr
          hintmask 11010100
          -234.5 -615.5 rmoveto
          -28 callsubr
          endchar
        </CharString>
        <CharString name="Uhungarumlaut">
          157 -5 129 588 20 65 138.5 hstem
          60.75 140 278 141 vstem
          216.799804688 797 rmoveto
          -60 callsubr
          65.400390625 -138.5 rmoveto
          -60 callsubr
          -402.450195312 -615.5 rmoveto
          -28 callsubr
          endchar
        </CharString>
        <CharString name="Umacron">
          157 -5 129 588 20 65 79.5 hstemhm
          60.75 140 -6.5 292 -7.5 141 hintmask 00101000
          194.25 797 rmoveto
          -62 callsubr
          hintmask 11010100
          -133.5 -556.5 rmoveto
          -28 callsubr
          endchar
        </CharString>
        <CharString name="Uogonek">
          157 -188.300003052 76.5 90 20 -3.19999694824 129 588 20 hstemhm
          60.75 140 278 141 hintmask 11000000
          313.900390625 -1.7998046875 rmoveto
          26 callsubr
          hintmask 00111100
          -308.650390625 321.799804688 rmoveto
          -28 callsubr
          endchar
        </CharString>
        <CharString name="Uring">
          157 -5 129 588 20 65 59.5500030518 85.8999938965 59.5500030518 hstem
          60.75 140 38 58.5500030518 85.8999938965 58.5500030518 37 141 vstem
          238.75 899 rmoveto
          -61 callsubr
          58.5498046875 hmoveto
          -46 callsubr
          -236.549804688 -579 rmoveto
          -28 callsubr
          endchar
        </CharString>
        <CharString name="Utilde">
          157 -5 129 588 20 63.1999969482 89.3500061035 -54.8000030518 89.8000030518 hstemhm
          60.75 140 278 141 hintmask 00010000
          168.275390625 850.049804688 rmoveto
          64 callsubr
          hintmask 00100000
          65 callsubr
          hintmask 00010000
          66 callsubr
          hintmask 11001100
          -107.525390625 -530.049804688 rmoveto
          -28 callsubr
          endchar
        </CharString>
        <CharString name="V">
          178 21 -21 21 -21 732 -20 hstemhm
          hintmask 10100000
          34 732 rmoveto
          229.5 -732 162 0 241.5 732 -148.649993896 0 -172.850006104 -548 -162.850006104 548 rlineto
          endchar
        </CharString>
        <CharString name="W">
          485 21 -21 21 -21 732 -20 hstemhm
          hintmask 10100000
          34 732 rmoveto
          229.5 -732 162 0 86.8999938965 299.75 98.5 -299.75 162 0 201.5 732 -148.649993896 0 -134.199996948 -545.75 -115.949996948 356.850006104 50.9499969482 188.899993896 -150 0 -131.5 -543.050003052 -162.399993896 543.050003052 rlineto
          endchar
        </CharString>
        <CharString name="Wacute">
          485 0 21 691 20 62.75 138.5 hstem
          463.425003052 213 vstem
          463.424804688 794.75 rmoveto
          -60 callsubr
          -519.924804688 -201.25 rmoveto
          114 callsubr
          endchar
        </CharString>
        <CharString name="Wcircumflex">
          485 0 21 691 20 62.75 135.5 hstem
          358.850006104 308.5 vstem
          358.849609375 794.75 rmoveto
          -30 callsubr
          0 vmoveto
          104 hmoveto
          -536.5 -198.25 rmoveto
          114 callsubr
          endchar
        </CharString>
        <CharString name="Wdieresis">
          485 0 21 691 20 62.75 117.5 hstem
          318.600006104 117.5 137.5 117.5 vstem
          318.599609375 854 rmoveto
          -35 callsubr
          255 hmoveto
          -35 callsubr
          -539.599609375 -122 rmoveto
          114 callsubr
          endchar
        </CharString>
        <CharString name="Wgrave">
          485 0 21 691 20 62.75 138.5 hstem
          340.975006104 213 vstem
          340.974609375 933.25 rmoveto
          -72 callsubr
          -429.474609375 -201.25 rmoveto
          114 callsubr
          endchar
        </CharString>
        <CharString name="X">
          134 21 -21 21 -21 732 -20 hstemhm
          hintmask 10100000
          34 732 rmoveto
          217.5 -365.399993896 -214.5 -366.600006104 154.699996948 0 135.75 246.399993896 135.550003052 -246.399993896 154.699996948 0 -214.850006104 366.600006104 219.850006104 365.399993896 -154.699996948 0 -140.550003052 -249.800003052 -138.75 249.800003052 rlineto
          endchar
        </CharString>
        <CharString name="X.salt">
          149 21 -21 21 -21 732 -20 hstemhm
          hintmask 10100000
          15.0500030518 hmoveto
          153.300003052 0 137 271.350006104 rlineto
          18 30.1499938965 -8.35000610352 154.5 -18.6499938965 31 rrcurveto
          -133.5 245 -147.800003052 0 140.5 -275 rlineto
          32.700012207 -65.5 7.80000305176 -24.3999938965 -30.5 -62.1000061035 rrcurveto
          185.099990845 -33.6499938965 rmoveto
          137.550003052 -271.350006104 153.300003052 0 -150.5 305 rlineto
          -30.5 62.1000061035 7.80000305176 24.3999938965 32.6999969482 65.5 rrcurveto
          140.5 275 -147.800003052 0 -134.050003052 -245 rlineto
          -18.0999908447 -29.8999938965 -8.90000915527 -155.600006104 18 -30.1499938965 rrcurveto
          endchar
        </CharString>
        <CharString name="Y">
          149 21 -21 21 -21 732 -20 hstemhm
          257.100006104 140 hintmask 10110000
          34 732 rmoveto
          223.100006104 -505 0 -227 140 0 0 227 240.899993896 505 -152.5 0 -156.199996948 -351 -142.800003052 351 rlineto
          endchar
        </CharString>
        <CharString name="Yacute">
          149 0 21 691 20 65 138.5 hstemhm
          257.100006104 140 -106.600006104 213 hintmask 00101000
          290.5 797 rmoveto
          -60 callsubr
          hintmask 11010000
          -347 -203.5 rmoveto
          -27 callsubr
          endchar
        </CharString>
        <CharString name="Ycircumflex">
          149 0 21 691 20 62.75 135.5 hstemhm
          177.25 308.5 -228.649993896 140 hintmask 00110000
          177.25 794.75 rmoveto
          -51 callsubr
          0 vmoveto
          104 hmoveto
          hintmask 11001000
          -354.900390625 -198.25 rmoveto
          -27 callsubr
          endchar
        </CharString>
        <CharString name="Ydieresis">
          149 0 21 691 20 65 117.5 hstemhm
          149.75 117.5 -10.1499938965 140 7.64999389648 117.5 hintmask 00110100
          149.75 856.25 rmoveto
          -47 callsubr
          255 hmoveto
          -47 callsubr
          hintmask 11001000
          -370.75 -124.25 rmoveto
          -27 callsubr
          endchar
        </CharString>
        <CharString name="Ygrave">
          149 0 21 691 20 65 138.5 hstemhm
          168.5 213 -124.399993896 140 hintmask 00110000
          168.5 935.5 rmoveto
          -72 callsubr
          hintmask 11001000
          -257 -203.5 rmoveto
          -27 callsubr
          endchar
        </CharString>
        <CharString name="Z">
          49 0 129 474 129 hstem
          26.75 hmoveto
          -73 callsubr
          endchar
        </CharString>
        <CharString name="Zacute">
          49 0 129 474 129 65 138.5 hstem
          233.25 213 vstem
          233.25 797 rmoveto
          -60 callsubr
          -297 -935.5 rmoveto
          -73 callsubr
          endchar
        </CharString>
        <CharString name="Zcaron">
          49 0 129 474 129 65 135.5 hstem
          124.5 308.5 vstem
          124.5 932.5 rmoveto
          12 callsubr
          9.25 -135.5 rmoveto
          104 hmoveto
          -304.450195312 -797 rmoveto
          -73 callsubr
          endchar
        </CharString>
        <CharString name="Zdotaccent">
          49 0 129 474 129 65 124 hstem
          219.25 119 vstem
          219.25 820 rmoveto
          9 callsubr
          -192.5 -896 rmoveto
          -73 callsubr
          endchar
        </CharString>
        <CharString name="a">
          12 -6 112.5 324 110.5 hstem
          30.1000061035 140 171.549987793 140 vstem
          30.1000061035 135.350006104 rmoveto
          0 -69.0500030518 47.8999938965 -69.5500030518 102.149993896 -2.75 81.1000061035 -1.64999389648 74.5500030518 54.5999908447 5.84999084473 11.5500030518 rrcurveto
          29.4499969482 -58.5 110.550003052 0 0 370.5 rlineto
          0 131.449996948 -77.6999969482 39.5 -114.349990845 -0.449996948242 -99 -0.449996948242 -73.0500030518 -7.90000915527 -69.9000091553 -27.1499938965 rrcurveto
          -86.4499969482 vlineto
          43.6500091553 3.15000915527 133.199996948 8.30000305176 46.1499938965 0 44.5 0 26.5 -8.89999389648 0 -56.6000061035 1 -1 -1 -33 0 0 rrcurveto
          -1 -156 1 0 -113.799987793 -41.75 -68.3999938965 -77.25 vhcurveto
          140 -30.1500091553 rmoveto
          25.8000030518 vlineto
          0 23.1999969482 6.09999084473 27.3500061035 36.9499969482 3.44999694824 rrcurveto
          128.5 9.94999694824 0 -97.3500061035 rlineto
          0 -63.3499908447 -41.1000061035 -58.5500030518 -25.75 -23.8999938965 4.55000305176 44.1499938965 vhcurveto
          endchar
        </CharString>
        <CharString name="a.salt">
          26 0 107 129.899993896 85.6000061035 105.300003052 109.199996948 hstem
          37.8999938965 140 178 140 vstem
          37.8999938965 142 rmoveto
          -113 72.700012207 -29 86.299987793 vhcurveto
          144 hlineto
          106 49 51.4499969482 115.550003052 hvcurveto
          95 vlineto
          0 181.600006104 -28.8499908447 92.9499969482 -158.150009155 0.449996948242 -111.649993896 0.449996948242 -54 -6.80000305176 -94.3500061035 -28.5999908447 rrcurveto
          -86.25 vlineto
          89.8500061035 8.30001831055 56.1000061035 3.69999694824 56.049987793 0 83.6000061035 0.449996948242 21.3999938965 -11 0 -94.75 rrcurveto
          -159 hlineto
          -136.699996948 -22.3000030518 -61.5 -77 hvcurveto
          140 -31 rmoveto
          31 vlineto
          0 28.6000061035 10.200012207 12.4499969482 36.299987793 2.44999694824 rrcurveto
          131.5 9.39999389648 0 -74.3000030518 rlineto
          -38.3000030518 -9.94999694824 -17.3000030518 -44.6499938965 vhcurveto
          -76.3500061035 hlineto
          -41.0500183105 -6 15 31 hvcurveto
          endchar
        </CharString>
        <CharString name="a.smcp">
          99 21 -21 21 -21 116.25 112.5 hstemhm
          hintmask 10100000
          26.75 hmoveto
          147 0 42 116.25 178.899993896 0 39.1000061035 -116.25 147 0 -186.5 570 -167.5 0 rlineto
          23.3999938965 -341.25 rmoveto
          59.3500061035 169.25 54.1000061035 -169.25 rlineto
          endchar
        </CharString>
        <CharString name="a.superior">
          -134 374 80.6999969482 198.800003052 84.9499969482 hstem
          23.3000030518 101.600006104 110.349990845 108.199996948 vstem
          23.3000030518 466.300003052 rmoveto
          1.52587890625e-05 -45.8999938965 35.8999938965 -44.75 71.25 -1.64999389648 53.5 -1.10000610352 47.5500030518 40.9000091553 4.19999694824 8.80000305176 rrcurveto
          25.9499969482 -44.6000061035 81.8000030518 0 0 247 rlineto
          -1.52587890625e-05 87.3000030518 -57.9499969482 26.5999908447 -85.6499938965 -0.449996948242 -70.1500091553 -1.34999084473 -42 -4.55000305176 -52.3999938965 -20.9499969482 rrcurveto
          -66.1999969482 vlineto
          33.7500152588 2.25 68.25 5.85000610352 46.8499908447 0 32.5 0 18.6000061035 -4.75 0 -35.8999938965 1 -1 -1 -15.1500091553 0 0 rrcurveto
          -1 -100.949996948 0.550003051758 0 -80.6999969482 -30.3000030518 -44.25 -50.6999969482 vhcurveto
          101.599990845 -16.5 rmoveto
          14.3500061035 vlineto
          0 14.5 4.30000305176 16.3500061035 25.9499969482 2.44999694824 rrcurveto
          80.1000061035 7.5 0 -58.5 rlineto
          -1.52587890625e-05 -32.1999969482 -26.75 -43.5 -18.8500061035 -15.8000030518 4.5 25.6000061035 vhcurveto
          endchar
        </CharString>
        <CharString name="aacute">
          12 -6 112.5 324 110.5 60 138.5 hstemhm
          30.1000061035 140 49.4749908447 213 -90.9250030518 140 hintmask 00101000
          219.575195312 601 rmoveto
          -60 callsubr
          hintmask 11010100
          -279.975585938 -604.150390625 rmoveto
          -26 callsubr
          140 -30.1494140625 rmoveto
          -25 callsubr
          endchar
        </CharString>
        <CharString name="aacute.salt">
          26 0 107 129.899993896 85.6000061035 105.300003052 109.199996948 60.0540924072 138.5 hstemhm
          37.8999938965 140 51.262008667 213 -86.262008667 140 hintmask 00010100
          229.162109375 597.053710938 rmoveto
          -60 callsubr
          hintmask 11101010
          -281.76171875 -593.553710938 rmoveto
          121 callsubr
          140 -31 rmoveto
          122 callsubr
          endchar
        </CharString>
        <CharString name="aacute.smcp">
          99 0 21 95.25 112.5 401.25 138.5 hstem
          265 213 vstem
          265 630 rmoveto
          -60 callsubr
          -328.75 -768.5 rmoveto
          81 callsubr
          23.400390625 -341.25 rmoveto
          82 callsubr
          endchar
        </CharString>
        <CharString name="abreve">
          12 -6 112.5 324 110.5 60 58 hstemhm
          30.1000061035 140 -14.8500061035 58 114 58 -43.6000061035 140 hintmask 00101100
          155.25 715 rmoveto
          19 callsubr
          hintmask 11010010
          -183.150390625 -579.650390625 rmoveto
          -26 callsubr
          140 -30.1494140625 rmoveto
          -25 callsubr
          endchar
        </CharString>
        <CharString name="abreve.salt">
          26 0 107 129.899993896 85.6000061035 105.300003052 109.199996948 60.0540924072 58 hstemhm
          37.8999938965 140 -16.6629943848 58 114 58 -35.3370056152 140 hintmask 00010110
          161.237304688 711.053710938 rmoveto
          19 callsubr
          hintmask 11101001
          -181.336914062 -569.053710938 rmoveto
          121 callsubr
          140 -31 rmoveto
          122 callsubr
          endchar
        </CharString>
        <CharString name="abreve.smcp">
          99 0 21 95.25 112.5 401.25 58 hstem
          195.5 58 114 58 vstem
          195.5 744 rmoveto
          19 callsubr
          -226.75 -744 rmoveto
          81 callsubr
          23.400390625 -341.25 rmoveto
          82 callsubr
          endchar
        </CharString>
        <CharString name="acircumflex">
          12 -6 112.5 324 110.5 60 135.5 hstemhm
          30.1000061035 140 -58.6000061035 308.5 -78.3500061035 140 hintmask 00101000
          111.5 601 rmoveto
          -51 callsubr
          0 vmoveto
          104 hmoveto
          hintmask 11010100
          -293.05078125 -601.150390625 rmoveto
          -26 callsubr
          140 -30.1494140625 rmoveto
          -25 callsubr
          endchar
        </CharString>
        <CharString name="acircumflex.salt">
          26 0 107 129.899993896 85.6000061035 105.300003052 109.199996948 60.0540924072 135.5 hstemhm
          37.8999938965 140 -57.2632904053 308.5 -73.2367095947 140 hintmask 00010100
          120.63671875 597.053710938 rmoveto
          -51 callsubr
          0 vmoveto
          104 hmoveto
          hintmask 11101010
          -294.38671875 -590.553710938 rmoveto
          121 callsubr
          140 -31 rmoveto
          122 callsubr
          endchar
        </CharString>
        <CharString name="acircumflex.smcp">
          99 0 21 95.25 112.5 401.25 135.5 hstem
          156.25 308.5 vstem
          156.25 630 rmoveto
          -51 callsubr
          0 vmoveto
          104 hmoveto
          -341.150390625 -765.5 rmoveto
          81 callsubr
          23.400390625 -341.25 rmoveto
          82 callsubr
          endchar
        </CharString>
        <CharString name="acute">
          -264 531 138.5 hstem
          15.0500030518 213 vstem
          15.0500030518 531 rmoveto
          -60 callsubr
          endchar
        </CharString>
        <CharString name="acute.smcp">
          -264 531 138.5 hstem
          15.0500030518 213 vstem
          15.0500030518 531 rmoveto
          -60 callsubr
          endchar
        </CharString>
        <CharString name="adieresis">
          12 -6 112.5 324 110.5 60.0072937012 117.5 hstemhm
          30.1000061035 140 -91.3433990479 117.5 137.5 117.5 -109.606613159 140 hintmask 00101100
          78.7568359375 660.256835938 rmoveto
          -24 callsubr
          255 hmoveto
          -24 callsubr
          hintmask 11010010
          -303.657226562 -524.907226562 rmoveto
          -26 callsubr
          140 -30.1494140625 rmoveto
          -25 callsubr
          endchar
        </CharString>
        <CharString name="adieresis.salt">
          26 0 107 129.899993896 85.6000061035 105.300003052 109.199996948 60.0540924072 117.5 hstemhm
          37.8999938965 140 -84.7632904053 117.5 137.5 117.5 -109.736709595 140 hintmask 00010110
          93.13671875 656.303710938 rmoveto
          123 callsubr
          255 hmoveto
          123 callsubr
          hintmask 11101001
          -310.236328125 -514.303710938 rmoveto
          121 callsubr
          140 -31 rmoveto
          122 callsubr
          endchar
        </CharString>
        <CharString name="adieresis.smcp">
          99 0 21 95.25 112.5 401.25 117.5 hstem
          124.25 117.5 137.5 117.5 vstem
          124.25 689.25 rmoveto
          -47 callsubr
          255 hmoveto
          -47 callsubr
          -352.5 -689.25 rmoveto
          81 callsubr
          23.400390625 -341.25 rmoveto
          82 callsubr
          endchar
        </CharString>
        <CharString name="ae">
          335 -2.30000305176 111.949996948 113.650009155 95 114.899993896 110.5 hstem
          30.1000061035 140 171.549987793 154.199996948 177.000015259 140 vstem
          30.1000061035 138.050003052 rmoveto
          0 -69.049987793 47.8999938965 -69.5500030518 102.149993896 -2.75 76.1500091553 -1.09999084473 118.550003052 48.4499969482 10.799987793 22.5500030518 31.0500030518 -43.6500091553 37.6000061035 -25.25 76.5500030518 0 83 0 114.049987793 0.0500030517578 74.950012207 27.9499969482 rrcurveto
          94.5 vlineto
          -75 -11.0000152588 -39 0.449996948242 -81 0 rrcurveto
          -75.8000030518 -36.1999969482 17.8000030518 95.8500061035 hvcurveto
          168.449996948 hlineto
          96.0000152588 1.52587890625e-05 52.5500030518 32.8999938965 0 94.6000061035 0 166.099990845 -71.950012207 20.8000030518 -153.599990845 0 -67.75 0 -49.4499969482 -5.80000305176 -40.8500061035 -30.799987793 -29.6499938965 29.4499969482 -55.3500061035 12.5 -54.6499938965 0.649993896484 -99 -0.449996948242 -75.3000030518 -7 -67.6500091553 -28.0500030518 rrcurveto
          -87 vlineto
          45 3.14999389648 123.600006104 8.84999084473 54.3999938965 0 44.5 0 26.5 -8.89999389648 0 -56.6000061035 1 -1 -1 -47.9499969482 0 0 rrcurveto
          -1 -156 1 0 -113.799987793 -41.75 -68.3999938965 -77.25 vhcurveto
          140 -17.950012207 rmoveto
          16.3000030518 vlineto
          0 23.1999816895 6.09999084473 27.3500061035 36.9499969482 3.44999694824 rrcurveto
          128.5 9.94999694824 0 -85.1000061035 rlineto
          1.52587890625e-05 -63.3499908447 -41.1000061035 -58.5500030518 -25.75 -23.8999938965 1.80000305176 44.1499938965 vhcurveto
          325.75 163.150009155 rmoveto
          -1.10000610352 114.700012207 26.75 -2.30000305176 73.9499969482 0 rrcurveto
          67.3000030518 10.1000061035 -5.69999694824 -67.0500030518 -25.3000030518 -15.700012207 -14.3499908447 -29.1499938965 hvcurveto
          endchar
        </CharString>
        <CharString name="ae.smcp">
          296 -2.55000305176 123.5 -107.75 107.300003052 15.5 101.5 -15.8500061035 120 -112.549987793 105 113.399993896 122.5 -122.5 107.75 hstemhm
          356.5 140.449996948 hintmask 10100001
          17.5 hmoveto
          151.75 0 61.1999969482 136 126.050003052 0 0 -38.5 rlineto
          0 -73 51.8000030518 -28.5 57.8000030518 1.44999694824 rrcurveto
          hintmask 01000001
          0 0 243.5 1.44999694824 62.6999969482 14.3000030518 rrcurveto
          0 107.300003052 rlineto
          hintmask 10010001
          -238.449996948 0.449996948242 rlineto
          -21.450012207 -1.52587890625e-05 -15.4499969482 2.10000610352 0 29.4499969482 rrcurveto
          0 69.1499938965 rlineto
          hintmask 00001001
          238.850006104 7.44999694824 0 105 rlineto
          hintmask 00010101
          -238.850006104 7.55000305176 0 73.3000030518 rlineto
          0.899993896484 22.6499938965 1.54998779297 9.89999389648 30.450012207 0 rrcurveto
          hintmask 00000011
          242.449996948 107.75 hlineto
          hintmask 10100101
          -51.1499938965 9.35000610352 -237.299987793 5.39999389648 0 0 -94 -1 -123.350006104 2.19999694824 -45.6999969482 -109.550003052 rrcurveto
          52.25 -224.149993896 rmoveto
          83.4499969482 183.399993896 0 -183.399993896 rlineto
          endchar
        </CharString>
        <CharString name="afii61289">
          -46 0.550003051758 86 -65 -21 hstemhm
          79.8500061035 140 70 125 hintmask 01110000
          22.8500061035 253.5 rmoveto
          24.3500061035 -65.5500030518 rlineto
          10.9999847412 5.99998474121 11.6500091553 6.55000305176 10 7 rrcurveto
          -25.1000061035 vlineto
          0 -135 51.5 -46.3999938965 97 -0.449996948242 rrcurveto
          hintmask 10110000
          0 0 154.449996948 -0.449996948242 -0.449996948242 0.449996948242 rrcurveto
          86 vlineto
          -4.30000305176 -0.449981689453 -68.75 15.5 0 0.449996948242 -81.9499969482 14.3999938965 -7.05000305176 31.8500061035 -0.449996948242 74.25 rrcurveto
          49.4499969482 vlineto
          84.5999908447 62.5 110.850006104 113.800003052 -0.449996948242 122.199996948 -0.450012207031 112.949996948 -72.799987793 55.5500030518 -82.75 0 -113.800003052 0 -64.75 -53.75 -0.449996948242 -97.25 rrcurveto
          -278.5 vlineto
          -19 -20 -19 -19 -19 -17 rrcurveto
          197 164.5 rmoveto
          171.149993896 vlineto
          0 57 70.6499938965 -15.9499969482 -0.649993896484 -39.6999969482 6.84999084473 -48.1999969482 -26.9499969482 -61.1999969482 -49.8999938965 -63.1000061035 rrcurveto
          endchar
        </CharString>
        <CharString name="afii61352">
          599 21 -21 21 -21 381 100.5 150 102.949996948 hstemhm
          54.3999938965 140.550003052 326.050003052 140 73.4499969482 106 129 106 hintmask 10111111
          54.3999938965 hmoveto
          140.550003052 599.350006104 hlineto
          -1.52587890625e-05 17 20.75 5.54998779297 4.25 -15.549987793 rrcurveto
          146.149993896 -500.149993896 rlineto
          30.6499938965 -166.600006104 264.25 30.5 0 156.199996948 rrcurveto
          422.25 vlineto
          69.450012207 35.6999969482 13.5 72.8000030518 63.75 80 -1 0 vhcurveto
          45.0500030518 -0.899993896484 11.1499938965 -6 0 -70.6000061035 rrcurveto
          -67.8999938965 -15.5 -3.60000610352 -33 vhcurveto
          -32 hlineto
          -33.0000152588 -15.5 4.89999389648 106.600006104 hvcurveto
          -106 hlineto
          -1.52587890625e-05 -176 37.8000030518 -33.25 110.699996948 -2.75 rrcurveto
          44 hlineto
          112.899993896 2.75 35.5999908447 51.8000030518 0 117.449996948 0 130.899993896 -35.5 48.75 -102 1.35000610352 rrcurveto
          0 -215.649993896 0.449996948242 -33.3000030518 -92.5500030518 -75.4499969482 -44.4499969482 -123.649993896 vhcurveto
          -425.899993896 vlineto
          0 -15.0000152588 -19.3000030518 -7.09999084473 -4.69999694824 19.0999908447 rrcurveto
          -144.25 494.699996948 rlineto
          -28.6499938965 149.25 -269.700012207 -4.29998779297 0 -170.75 rrcurveto
          endchar
        </CharString>
        <CharString name="agrave">
          12 -6 112.5 324 110.5 60 138.5 hstemhm
          30.1000061035 140 -70.2750091553 213 28.8249969482 140 hintmask 00101000
          99.8251953125 739.5 rmoveto
          -72 callsubr
          hintmask 11010100
          -192.225585938 -604.150390625 rmoveto
          -26 callsubr
          140 -30.1494140625 rmoveto
          -25 callsubr
          endchar
        </CharString>
        <CharString name="agrave.salt">
          26 0 107 129.899993896 85.6000061035 105.300003052 109.199996948 60.0540924072 138.5 hstemhm
          37.8999938965 140 -60.8379974365 213 25.8379974365 140 hintmask 00010100
          117.061523438 735.553710938 rmoveto
          -72 callsubr
          hintmask 11101010
          -201.661132812 -593.553710938 rmoveto
          121 callsubr
          140 -31 rmoveto
          122 callsubr
          endchar
        </CharString>
        <CharString name="agrave.smcp">
          99 0 21 95.25 112.5 401.25 138.5 hstem
          136.024993896 213 vstem
          136.025390625 768.5 rmoveto
          -72 callsubr
          -231.775390625 -768.5 rmoveto
          81 callsubr
          23.400390625 -341.25 rmoveto
          82 callsubr
          endchar
        </CharString>
        <CharString name="amacron">
          12 -6 112.5 324 110.5 60 79.5 hstemhm
          30.1000061035 140 -45.8500061035 292 -74.6000061035 140 hintmask 00101000
          124.25 601 rmoveto
          -62 callsubr
          hintmask 11010100
          -94.150390625 -545.150390625 rmoveto
          -26 callsubr
          140 -30.1494140625 rmoveto
          -25 callsubr
          endchar
        </CharString>
        <CharString name="amacron.salt">
          26 0 107 129.899993896 85.6000061035 105.300003052 109.199996948 60.0540924072 79.5 hstemhm
          37.8999938965 140 -46.763092041 292 -67.236907959 140 hintmask 00010100
          131.13671875 597.053710938 rmoveto
          -62 callsubr
          hintmask 11101010
          -93.236328125 -534.553710938 rmoveto
          121 callsubr
          140 -31 rmoveto
          122 callsubr
          endchar
        </CharString>
        <CharString name="amacron.smcp">
          99 0 21 95.25 112.5 401.25 79.5 hstem
          164.5 292 vstem
          164.5 630 rmoveto
          -62 callsubr
          -137.75 -709.5 rmoveto
          81 callsubr
          23.400390625 -341.25 rmoveto
          82 callsubr
          endchar
        </CharString>
        <CharString name="ampersand">
          172 21 -21 21 -21 608.300003052 101.699996948 hstemhm
          hintmask 10100000
          65.3500061035 82 rmoveto
          74.299987793 -109.800003052 153.650009155 5.05000305176 68.3499908447 60.6999969482 rrcurveto
          65.3999938965 58.1999969482 70.4499969482 -96.1499938965 165 0 -136.800003052 182.800003052 37.6999969482 43.8999938965 59.8000030518 107.550003052 -48.8500061035 59.1999969482 -121.699996948 -114.050003052 -168.449996948 231.100006104 rlineto
          -49.7500152588 68.25 8.94999694824 29.5500030518 76.1000061035 0 rrcurveto
          164.5 101.699996948 hlineto
          -72 17 -85.6999969482 20.0500030518 -119.300003052 -17.0500030518 -79.3500061035 -11.3999938965 -79 -107.950012207 79 -107 rrcurveto
          51.4499969482 -74 -69.5 -60.3500061035 rlineto
          -85.9000091553 -75.0999908447 -29.5 -112.800003052 71.1500091553 -99.3999938965 rrcurveto
          114.699996948 79.6000061035 rmoveto
          -27.299987793 34.799987793 -9.35000610352 41.8000030518 53.6000061035 46.1999969482 rrcurveto
          51.6000061035 45.1999969482 101 -133.75 -50.3000030518 -48.6000061035 rlineto
          -42.4499816895 -41.6499938965 -50 22.5999908447 -26.8000030518 33.4000091553 rrcurveto
          endchar
        </CharString>
        <CharString name="ampersand.salt">
          472 -1.10000610352 116.350006104 50.3999938965 104.350006104 61.1999969482 104.800003052 50.6000061035 116.350006104 -96.3500061035 94.3500061035 hstemhm
          33.5500030518 140 50.5 140 159.5 140 49.5 140 hintmask 1110111110000000
          33.5500030518 319.550003052 rmoveto
          1.52587890625e-05 -124.699981689 92 -32.6000061035 98.5 0 0 -124.649993896 96.8000030518 -38.1500091553 107.699996948 -0.550003051758 rrcurveto
          164 hlineto
          130.500015259 130 42.950012207 176.5 hvcurveto
          0 268.800003052 111 19.4499969482 0 94.3500061035 -111 0 0 126.350006104 -122 0 rlineto
          hintmask 1111011110000000
          -18 -124.350006104 -430 0 rlineto
          -164.249984741 -1.10000610352 -85.25 -31.5500030518 0 -165.050003052 rrcurveto
          140 -80.75 rmoveto
          80.75 vlineto
          1.52587890625e-05 66.1499938965 18 15.200012207 97 0 rrcurveto
          424.5 -266.600006104 hlineto
          1.52587890625e-05 -68.3500061035 -37.5 -36.3999938965 -83 0 rrcurveto
          -161.25 hlineto
          -38.6999816895 1.35000610352 -28.1000061035 3.75 -0.449996948242 45.299987793 rrcurveto
          122.350006104 hlineto
          103.300003052 73.8500061035 7.15000915527 116.349990845 123.25 -84.8000030518 23.6000061035 -90.6999969482 hvcurveto
          -74 hlineto
          -119.249984741 -70.75 -42.6999969482 -122.199996948 hvcurveto
          -31 -19.5 14.3499908447 39.0500030518 hvcurveto
          190.5 -54.5 rmoveto
          1.52587890625e-05 59.8500061035 20.1499938965 1.34999084473 35.3500061035 0 rrcurveto
          65.75 hlineto
          30.6000061035 -1.52587890625e-05 7.65000915527 -4.25 0 -25.6999969482 rrcurveto
          -29.9499969482 -10.0500030518 -1.30000305176 -28.1999969482 vhcurveto
          endchar
        </CharString>
        <CharString name="ampersand.smcp">
          88 21 -21 21 -21 453.699996948 97 hstemhm
          hintmask 10100000
          59.6499938965 66.3999938965 rmoveto
          68.6000061035 -100.199996948 131.850006104 19.1500091553 53.0999908447 47.549987793 rrcurveto
          49.5500030518 46.8999938965 63.6499938965 -79.8000030518 150.699996948 0 -122.949996948 161.350006104 25.1999969482 24.6499938965 53.3000030518 87.3999938965 -51.5 57.8999938965 -97.3000030518 -77.3000030518 -120.050003052 153.199996948 rlineto
          -23.6999816895 29.4999847412 4.39999389648 17 42.8999938965 0 rrcurveto
          128.600006104 97 hlineto
          -59.75 16.6999816895 -101.699996948 14.8000030518 -74.9000091553 -12.0999908447 -63.1999969482 -10.1000061035 -56.4499969482 -85.4499969482 63.5 -82.6999969482 rrcurveto
          30.8000030518 -39.6999969482 -55.9499969482 -47.3500061035 rlineto
          -73.700012207 -63.549987793 -27.9499969482 -84.75 62.9499969482 -90.1000061035 rrcurveto
          102.800003052 71.700012207 rmoveto
          -15.0500183105 19.049987793 -6.04998779297 31 34.5999908447 27.1000061035 rrcurveto
          49.8999938965 39.8500061035 62.75 -79.6999969482 -47.5500030518 -44.3500061035 rlineto
          -30.9499816895 -29.1999816895 -31.1500091553 15.299987793 -16.5 20.950012207 rrcurveto
          endchar
        </CharString>
        <CharString name="aogonek">
          12 -186.29019165 76.5 90 20 -6.20980834961 112.5 324 110.5 hstemhm
          30.1000061035 140 171.549987793 140 hintmask 11000000
          401.459960938 0.2099609375 rmoveto
          14 callsubr
          hintmask 00111100
          -426.860351562 135.139648438 rmoveto
          -26 callsubr
          140 -30.1494140625 rmoveto
          -25 callsubr
          endchar
        </CharString>
        <CharString name="aogonek.salt">
          35 -167.606292725 76.5 90 20 -18.8937072754 107 129.899993896 85.6000061035 105.300003052 109.199996948 hstemhm
          37.8999938965 140 178 140 hintmask 11000000
          373.049804688 18.8935546875 rmoveto
          124 callsubr
          hintmask 00111110
          -390.649414062 123.106445312 rmoveto
          121 callsubr
          140 -31 rmoveto
          122 callsubr
          endchar
        </CharString>
        <CharString name="aogonek.smcp">
          105 -185.656295776 76.5 90 20 -0.843704223633 21 95.25 112.5 hstemhm
          hintmask 11000000
          483.049804688 0.84375 rmoveto
          14 callsubr
          hintmask 00110000
          -511.799804688 -0.84375 rmoveto
          81 callsubr
          23.400390625 -341.25 rmoveto
          82 callsubr
          endchar
        </CharString>
        <CharString name="approxequal">
          2 196.899993896 97 -59 96 46.8500061035 97 -59 96 hstemhm
          hintmask 10000000
          37.8999938965 259.899993896 rmoveto
          21 -63 rlineto
          hintmask 01000000
          48 15 25 23 51 0 rrcurveto
          hintmask 10000000
          60 0 37.25 -38 51.75 0 61.1000061035 0 41.8500061035 40.0500030518 36.799987793 33.6000061035 rrcurveto
          -24.75 62.3500061035 rlineto
          -43.1499938965 -22.9499969482 -22.8500061035 -16.0500030518 -47 0 rrcurveto
          hintmask 01000000
          -60 0 -29 37 -60 0 rrcurveto
          -64 0 -46.8499908447 -38.549987793 -36.1500091553 -32.450012207 rrcurveto
          0 180.850006104 rmoveto
          hintmask 00100000
          21 -63 rlineto
          hintmask 00010000
          48 15 25 23 51 0 rrcurveto
          hintmask 00100000
          60 0 37.25 -38 51.75 0 61.1000061035 0 41.8500061035 40.0500030518 36.799987793 33.5999908447 rrcurveto
          -24.75 62.3500061035 rlineto
          -43.1499938965 -22.9499969482 -22.8500061035 -16.0500030518 -47 0 rrcurveto
          hintmask 00010000
          -60 0 -29 37 -60 0 -64 0 -46.8499908447 -38.5500030518 -36.1500091553 -32.4499969482 rrcurveto
          endchar
        </CharString>
        <CharString name="aring">
          12 -6 112.5 324 110.5 46.5 59.5500030518 85.8999938965 59.5500030518 hstemhm
          30.1000061035 140 -4.97500610352 58.5500030518 85.8999938965 58.5500030518 -26.4750061035 140 hintmask 00110110
          165.125 689.5 rmoveto
          -61 callsubr
          58.5498046875 hmoveto
          -46 callsubr
          hintmask 11001001
          -193.575195312 -554.150390625 rmoveto
          -26 callsubr
          140 -30.1494140625 rmoveto
          -25 callsubr
          endchar
        </CharString>
        <CharString name="aring.salt">
          26 0 107 129.899993896 85.6000061035 105.300003052 109.199996948 60.0704040527 59.5500030518 85.8999938965 59.5500030518 hstemhm
          37.8999938965 140 -4.32299804688 58.5500030518 85.8999938965 58.5500030518 -20.6770019531 140 hintmask 0001101100000000
          173.577148438 699.0703125 rmoveto
          -61 callsubr
          58.5498046875 hmoveto
          -46 callsubr
          hintmask 1110010010000000
          -194.2265625 -557.0703125 rmoveto
          121 callsubr
          140 -31 rmoveto
          122 callsubr
          endchar
        </CharString>
        <CharString name="aring.smcp">
          99 0 21 95.25 112.5 338 59.5500030518 85.8999938965 59.5500030518 hstem
          209.675003052 58.5500030518 85.8999938965 58.5500030518 vstem
          209.674804688 668.75 rmoveto
          -61 callsubr
          58.5498046875 hmoveto
          -46 callsubr
          -241.474609375 -668.75 rmoveto
          81 callsubr
          23.400390625 -341.25 rmoveto
          82 callsubr
          endchar
        </CharString>
        <CharString name="asciicircum">
          -123 531 135.5 hstem
          37.8999938965 308.5 vstem
          37.8999938965 531 rmoveto
          94 0 63.0500030518 60 58.4499969482 -60 93 0 -96.8500061035 135.5 -104 0 rlineto
          1.52587890625e-05 hmoveto
          104.000015259 hmoveto
          endchar
        </CharString>
        <CharString name="asciitilde">
          -88 531 91.6000061035 -56.6000061035 91.6000061035 hstemhm
          hintmask 10000000
          37.8999938965 586.300003052 rmoveto
          24.3000030518 -55.3000030518 rlineto
          hintmask 01000000
          33.2499847412 19.5 20.75 15.5 39 0 rrcurveto
          hintmask 10000000
          39 0 29.9499969482 -35 43.9000091553 0 51.8999938965 0 37.1999969482 42.6000061035 24.25 29.3999938965 rrcurveto
          -24.1999969482 59.6000061035 rlineto
          -23.8000183105 -19.8500061035 -29.6499938965 -21.25 -39.5500030518 1.10000610352 rrcurveto
          hintmask 01000000
          -40 0 -22 35 -44 0 rrcurveto
          -54.6499938965 0 -33.9000091553 -36.6500091553 -31.75 -34.6499938965 rrcurveto
          endchar
        </CharString>
        <CharString name="asterisk">
          -80 566 56.5 hstem
          37.8999938965 566 rmoveto
          144 -5 -5 85 -139 -23.5 rlineto
          57 -206.300003052 rmoveto
          53.5 -16.9499969482 53.5 132.75 -82.4499969482 20.8500061035 rlineto
          46.0999908447 166.899993896 rmoveto
          42.6999969482 -135.75 79 32.6499938965 -67.3000030518 122.399993896 rlineto
          -29.5500183105 -272.399993896 rmoveto
          126.149993896 -63.75 32.5500030518 45.1999969482 -112.199996948 89.8999938965 rlineto
          2.55000305176 33 rmoveto
          54.0500030518 -65.3500061035 96.5 97 -31.1000061035 47.1000061035 rlineto
          endchar
        </CharString>
        <CharString name="asterisk.smcp">
          -81 399.75 56.5 hstem
          37.8999938965 399.75 rmoveto
          143.550003052 -5 -4.55000305176 85 -139 -23.5 rlineto
          56.5500030518 -206.300003052 rmoveto
          53.5 -16.9499969482 53.9499969482 132.75 -82.4499969482 20.8500061035 rlineto
          46.0999908447 166.899993896 rmoveto
          42.6999969482 -135.300003052 79 32.1999969482 -67.3000030518 122.399993896 rlineto
          -29.5500183105 -272.399993896 rmoveto
          126.149993896 -63.75 32.5500030518 45.1999969482 -112.199996948 90.3500061035 rlineto
          2.55000305176 32.9999847412 rmoveto
          54.0500030518 -65.8000030518 96.5 97 -31.5500030518 47.1000061035 rlineto
          endchar
        </CharString>
        <CharString name="at">
          361 -200 113.5 77.5 112.5 -82.5 -21 21 -21 399.5 112.5 83.75 112.5 -112.5 85.5 hstemhm
          49.6000061035 112.5 68.3999938965 118 162.899993896 111.600006104 68.6000061035 112.5 hintmask 1000110111100000
          49.6000061035 11 rmoveto
          -151.75 93.5 -59.25 113 vhcurveto
          338 hlineto
          142.949996948 67.0500030518 74.5 147.5 hvcurveto
          457 vlineto
          0 168.449996948 -104.550003052 59.9000091553 -110.949996948 0.899993896484 rrcurveto
          -99.5 hlineto
          hintmask 1000101111100000
          -82 callsubr
          hintmask 1100110111100000
          404 hlineto
          61 42 -39.75 -77 hvcurveto
          -457 vlineto
          -68 -21 -40.5 -82 vhcurveto
          -332.5 hlineto
          -40 -54 18.5 90 hvcurveto
          287.5 vlineto
          80 46 10 48 vhcurveto
          193.300003052 hlineto
          41.3500061035 20.6499938965 -8.14999389648 -43.3500061035 hvcurveto
          1 -0.550003051758 -1 -42.4499969482 0 0 rrcurveto
          -1 -84.4499969482 1 -50.9499969482 -92.3500061035 -53.1499938965 -48.6000061035 -89.8999938965 vhcurveto
          -42 vlineto
          -0.449996948242 -68 43.4499969482 -66.3999938965 85 0.899993896484 91 0 61.8999938965 67.5 2 0 rrcurveto
          hintmask 1010110111100000
          19.5 -58.5 90.1000061035 0 0 355.5 rlineto
          136.399993896 -90.25 20.1000061035 -84.75 vhcurveto
          -191.899993896 hlineto
          -171.5 -35 -111.5 -85.5 hvcurveto
          298.899993896 -172.949996948 rmoveto
          -0.550003051758 1.00001525879 0 24.8499908447 0.550003051758 1 -0.449996948242 28.950012207 14.3999938965 14.25 29.5500030518 2.89999389648 rrcurveto
          119.399993896 10.5 0 -79 rlineto
          hintmask 1100100111100000
          -29.6499938965 -27.3000030518 -44.0500030518 -16.1499938965 -42.5 0.449996948242 -29.6999969482 -0.449996948242 -17 18 0 21 rrcurveto
          endchar
        </CharString>
        <CharString name="at.alt">
          362 -96.6999969482 113.5 77.5 112.5 296 112.5 83.75 112.5 -112.5 85.5 hstemhm
          50.0500030518 112.5 68.3999938965 118 162.900009155 111.600006104 68.5999908447 112.5 hintmask 1111011110000000
          49.6000061035 418.300003052 rmoveto
          0.449996948242 -304 rlineto
          1.52587890625e-05 -151.749984741 93.5 -59.25 113 0 rrcurveto
          338 hlineto
          142.950012207 1.52587890625e-05 67.0500030518 74.5 0 147.5 rrcurveto
          457 vlineto
          1.52587890625e-05 168.450012207 -104.550003052 59.4499969482 -110.949996948 0.900009155273 rrcurveto
          -99.5 0.449996948242 rlineto
          hintmask 1110111110000000
          -125.999984741 1.00001525879 -130.5 -18 -48 -10 rrcurveto
          -85.5 vlineto
          hintmask 1111011110000000
          404 hlineto
          61.0000152588 1.52587890625e-05 42 -39.75 0 -77 rrcurveto
          -457 vlineto
          1.52587890625e-05 -67.9999847412 -21 -40.5 -82 0 rrcurveto
          -332.5 hlineto
          -39.9999847412 1.52587890625e-05 -54 18.5 0 90 rrcurveto
          287.5 vlineto
          1.52587890625e-05 80.0000152588 46 10 48 0 rrcurveto
          193.300003052 hlineto
          41.3499908447 1.52587890625e-05 20.6500091553 -8.15000915527 0 -43.3499908447 1 -0.550003051758 -1 -42.4499969482 0 0 rrcurveto
          -1 -84.450012207 1 -50.9499969482 -92.3499908447 -53.1500091553 -48.6000061035 -89.8999938965 vhcurveto
          -42 vlineto
          -0.450012207031 -67.9999847412 43.4499969482 -66.4000091553 85 0.900009155273 91 0 61.9000091553 67.5 2 0 rrcurveto
          19.5 -58.5 90.1000061035 0 0 355.5 rlineto
          -1.52587890625e-05 136.400009155 -90.25 20.1000061035 -84.75 0 rrcurveto
          -191.899993896 hlineto
          -171.499984741 1.52587890625e-05 -35.4499969482 -111.5 0 -85.5 rrcurveto
          299.349990845 -172.949996948 rmoveto
          -0.550018310547 1 0 24.8499908447 0.550003051758 1 -0.449996948242 28.9499969482 14.3999938965 14.25 29.5500030518 2.90000915527 rrcurveto
          119.399993896 10.5 0 -79 rlineto
          -29.6500091553 -27.299987793 -44.0500030518 -16.1499938965 -42.5 0.449996948242 -29.6999969482 -0.449996948242 -17 18 0 21 rrcurveto
          endchar
        </CharString>
        <CharString name="at.smcp">
          361 -159.100006104 113.5 77.5 112.5 296 112.5 83.75 112.5 -112.5 85.5 hstemhm
          49.6000061035 112.5 68.3999938965 118 162.899993896 111.600006104 68.6000061035 112.5 hintmask 1111011110000000
          49.6000061035 51.8999938965 rmoveto
          -151.75 93.5 -59.25 113 vhcurveto
          338 hlineto
          142.949996948 67.0500030518 74.5 147.5 hvcurveto
          457 vlineto
          0 168.450012207 -104.550003052 59.8999938965 -110.949996948 0.899993896484 rrcurveto
          -99.5 hlineto
          hintmask 1110111110000000
          -82 callsubr
          hintmask 1111011110000000
          404 hlineto
          61 42 -39.75 -77 hvcurveto
          -457 vlineto
          -68 -21 -40.5 -82 vhcurveto
          -332.5 hlineto
          -40 -54 18.5 90 hvcurveto
          287.5 vlineto
          80 46 10 48 vhcurveto
          193.300003052 hlineto
          41.3500061035 20.6499938965 -8.14999389648 -43.3500061035 hvcurveto
          1 -0.549987792969 -1 -42.450012207 0 0 rrcurveto
          -1 -84.4499969482 1 -50.9499969482 -92.3500061035 -53.1499938965 -48.5999908447 -89.9000091553 vhcurveto
          -42 vlineto
          -0.449996948242 -68 43.4499969482 -66.3999938965 85 0.899993896484 91 0 61.8999938965 67.5 2 0 rrcurveto
          19.5 -58.5 90.1000061035 0 0 355.5 rlineto
          136.400009155 -90.25 20.0999908447 -84.75 vhcurveto
          -191.899993896 hlineto
          -171.5 -35 -111.5 -85.5 hvcurveto
          298.899993896 -172.949996948 rmoveto
          -0.550003051758 0.999984741211 0 24.8500061035 0.550003051758 1 -0.449996948242 28.9499969482 14.3999938965 14.25 29.5500030518 2.89999389648 rrcurveto
          119.399993896 10.5 0 -79 rlineto
          -29.6499938965 -27.299987793 -44.0500030518 -16.1500091553 -42.5 0.449996948242 -29.6999969482 -0.449996948242 -17 18 0 21 rrcurveto
          endchar
        </CharString>
        <CharString name="atilde">
          12 -6 112.5 324 110.5 60.4499969482 89.3500061035 -54.8000030518 89.8000030518 hstemhm
          30.1000061035 140 171.549987793 140 hintmask 00010000
          91.75 656.299804688 rmoveto
          -50 callsubr
          hintmask 00100000
          -49 callsubr
          hintmask 00010000
          -48 callsubr
          hintmask 11001100
          -61.650390625 -520.950195312 rmoveto
          -26 callsubr
          140 -30.1494140625 rmoveto
          -25 callsubr
          endchar
        </CharString>
        <CharString name="atilde.salt">
          26 0 107 129.899993896 85.6000061035 105.300003052 109.199996948 60.520401001 89.3500061035 -54.8000030518 89.8000030518 hstemhm
          37.8999938965 140 178 140 hintmask 00001000
          106.4765625 652.370117188 rmoveto
          -50 callsubr
          hintmask 00010000
          -49 callsubr
          hintmask 00001000
          -48 callsubr
          hintmask 11100110
          -68.576171875 -510.370117188 rmoveto
          121 callsubr
          140 -31 rmoveto
          122 callsubr
          endchar
        </CharString>
        <CharString name="atilde.smcp">
          99 0 21 95.25 112.5 401.699996948 89.3500061035 -54.8000030518 89.8000030518 hstemhm
          hintmask 00010000
          138.75 685.299804688 rmoveto
          -50 callsubr
          hintmask 00100000
          -49 callsubr
          hintmask 00010000
          -48 callsubr
          hintmask 11000000
          -112 -685.299804688 rmoveto
          81 callsubr
          23.400390625 -341.25 rmoveto
          82 callsubr
          endchar
        </CharString>
        <CharString name="b">
          49 -6 119.649993896 315.600006104 109.75 hstem
          45.6999969482 139.100006104 194.599990845 140 vstem
          45.6999969482 hmoveto
          115.149993896 0 24.9499969482 53.5 rlineto
          33.1500091553 -26.6999969482 64.0500030518 -32.8000030518 63.0500030518 0 rrcurveto
          130.699996948 42.6499938965 107.949996948 161.050003052 165.149993896 -26.1999969482 110.850006104 -147.149993896 hvcurveto
          -45 0 -67.6500091553 -12.3500061035 -48.5999908447 -22.1499938965 rrcurveto
          280.5 -139.100006104 vlineto
          140.099990845 -638.550003052 rmoveto
          262.850006104 vlineto
          36.5500183105 14.1500091553 39 5.80000305176 48.3999938965 0 rrcurveto
          44.1999969482 25.4499969482 -25.25 -135.5 -118.449996948 -24.4499969482 -36.4000091553 -45.1999969482 hvcurveto
          -52.6000061035 0 -41.549987793 13.5500030518 -29.8000030518 19.25 rrcurveto
          endchar
        </CharString>
        <CharString name="b.salt">
          48 -10.25 107 329.699996948 110.300003052 245.600006104 -20 hstem
          45.6999969482 140 191.949996948 140 vstem
          45.6999969482 19.8999938965 rmoveto
          51.9499816895 -23.799987793 126.700012207 -6.35000610352 98.8499908447 0 rrcurveto
          125 69.4499969482 83.3999938965 185.600006104 176.699996948 -41.4499969482 101.300003052 -153 hvcurveto
          -45 0 -51.5999908447 -11.3500061035 -40.9000091553 -27.6499938965 rrcurveto
          284.600006104 -140 vlineto
          139.999984741 -685.600006104 rmoveto
          308 vlineto
          43.9499816895 17.6999969482 22.8500061035 4 44.3000030518 0 rrcurveto
          79.8999938965 0.949996948242 -70.8000030518 -100.75 -61.3499908447 -1.89999389648 -96.8000030518 -80.0500030518 hvcurveto
          endchar
        </CharString>
        <CharString name="b.smcp">
          41 0 119 125.25 101.5 107.25 118 hstem
          60.75 140 172.350006104 141.649993896 vstem
          60.75 hmoveto
          269.5 hlineto
          126 58.5 48.3999938965 113.600006104 hvcurveto
          0 79.3999938965 -40.1499938965 40 -41.3500061035 9.60000610352 44.9499969482 9.89999389648 33.5500030518 36.8500061035 0 80.25 rrcurveto
          96.6999969482 -57.5 56.3000030518 -124 vhcurveto
          -269.5 hlineto
          140 -452 rmoveto
          125.25 vlineto
          16.1999969482 -0.899993896484 102.300003052 0.899993896484 0 0 rrcurveto
          40.25 13.6000061035 -23.9499969482 -40.1500091553 -55.3499908447 -29.3000030518 -5.80000305176 -24.5500030518 hvcurveto
          -118.5 226.75 rmoveto
          107.25 118.5 vlineto
          26.8000030518 25.6999969482 -9.75 -41.75 -39.4499969482 -11.0500030518 -16.3000030518 -41.4499969482 hvcurveto
          endchar
        </CharString>
        <CharString name="b.superior">
          -105 374 92.8000030518 190.399993896 85.6499938965 hstem
          28.6499938965 108.199996948 130.150009155 108.199996948 vstem
          28.6499938965 378 rmoveto
          86.75 0 22 40.6000061035 rlineto
          24.4000091553 -20.0500030518 39.75 -24.5500030518 46.0500030518 0 rrcurveto
          95.799987793 31.8000030518 72.6999969482 109.5 111.900009155 -19.0999908447 74.75 -108.5 hvcurveto
          -32.9000091553 0 -41.9499969482 -9.45001220703 -35.8999938965 -16.6999969482 rrcurveto
          184.75 -108.199996948 vlineto
          108.75 -414.450012207 rmoveto
          156.5 vlineto
          27.25 9.35000610352 16.200012207 4.34999084473 34.8999938965 0 rrcurveto
          32.6000061035 18.6499938965 -12.9499969482 -84.1999969482 -73.1000061035 -17.6499938965 -20.1499938965 -32.5 hvcurveto
          -38.1000061035 0 -19.0500030518 8.39999389648 -22.3000030518 11.8000030518 rrcurveto
          endchar
        </CharString>
        <CharString name="backslash">
          -51 15.0500030518 770 rmoveto
          281 -842 145 0 -281 842 rlineto
          endchar
        </CharString>
        <CharString name="bar">
          -260 65.1000061035 118 vstem
          65.1000061035 -72 rmoveto
          118 842 -118 hlineto
          endchar
        </CharString>
        <CharString name="braceleft">
          -186 -210 112.5 821.5 118 hstem
          87.5500030518 140 vstem
          15.0500030518 280.75 rmoveto
          40.0000152588 3 32.5 -18.3999938965 0 -37.6000061035 rrcurveto
          -265.75 vlineto
          1.52587890625e-05 -103.300003052 54.6499938965 -68.6999969482 163.850006104 0 rrcurveto
          112.5 vlineto
          -56.799987793 -1.80000305176 -21.6999969482 34.8000030518 0 65 rrcurveto
          239.5 vlineto
          1.52587890625e-05 50.25 -37.6500091553 33.4499969482 -57.3499908447 10.3000030518 57.3499908447 6.80000305176 38.6500091553 27.8999938965 0 62.3000030518 rrcurveto
          181 vlineto
          1.52587890625e-05 91 26.0500030518 21 51.4499969482 0 rrcurveto
          118 vlineto
          -150.049987793 -67.4499969482 -76.8000030518 -109.199996948 hvcurveto
          -216.75 vlineto
          1.52587890625e-05 -43.8500061035 -40.5 -6.14999389648 -33 -3 rrcurveto
          endchar
        </CharString>
        <CharString name="braceright">
          -186 -210 112.5 821.5 118 hstem
          93.5500030518 140 vstem
          15.0500030518 -97.5 rmoveto
          -112.5 vlineto
          163.850006104 54.6500091553 68.6999969482 103.300003052 hvcurveto
          265.75 vlineto
          1.52587890625e-05 37.6000061035 32.5 18.3999938965 40 -3 rrcurveto
          105.5 vlineto
          -32.9999847412 3 -40.5 6.14999389648 0 43.8500061035 rrcurveto
          216.75 vlineto
          1.52587890625e-05 109.199996948 -67.4499969482 76.8000030518 -150.050003052 0 rrcurveto
          -118 vlineto
          51.450012207 26.0500030518 -21 -91 hvcurveto
          -181 vlineto
          1.52587890625e-05 -62.3000030518 38.6499938965 -27.8999938965 57.3500061035 -6.80000305176 -57.3500061035 -10.3000030518 -37.6499938965 -33.4499969482 0 -50.25 rrcurveto
          -239.5 vlineto
          1.52587890625e-05 -65 -21.6999969482 -34.8000030518 -56.8000030518 1.80000305176 rrcurveto
          endchar
        </CharString>
        <CharString name="bracketleft">
          -174 -210 118 816 118 hstem
          64.6499938965 140 vstem
          64.6499938965 -10.5 rmoveto
          -80.8999938965 21.6000061035 -118.600006104 147.399993896 vhcurveto
          85.5 118 -52.5 hlineto
          -38 -24 27 60 hvcurveto
          642 vlineto
          60 24 27 38 vhcurveto
          52.5 118 -85.5 hlineto
          -130.899993896 -38.1000061035 -88.8999938965 -99.6000061035 hvcurveto
          endchar
        </CharString>
        <CharString name="bracketright">
          -174 -210 118 816 118 hstem
          129.550003052 140 vstem
          15.0500030518 -92 rmoveto
          -118 85.5 vlineto
          147.400009155 21.6000061035 118.600006104 80.8999938965 hvcurveto
          664 vlineto
          1.52587890625e-05 99.6000061035 -38.1000061035 88.8999938965 -130.899993896 0 rrcurveto
          -85.5 -118 52.5 hlineto
          38.0000152588 24 -27 -60 hvcurveto
          -642 vlineto
          1.52587890625e-05 -60 -24 -27 -38 0 rrcurveto
          endchar
        </CharString>
        <CharString name="breve">
          -203 530 58 hstem
          37.8999938965 58 114 58 vstem
          37.8999938965 644 rmoveto
          -69.8000030518 51.3000030518 -44.1999969482 62.6999969482 63.8000030518 52.1999969482 42.3999938965 71.6000061035 vhcurveto
          -58 hlineto
          -34.3000030518 -20 -21.6999969482 -38 -32.4499969482 -23.5500030518 21.9499969482 34.0500030518 vhcurveto
          endchar
        </CharString>
        <CharString name="brokenbar">
          -259 65.1000061035 118 vstem
          65.1000061035 -72 rmoveto
          118 328 -118 hlineto
          0 173 rmoveto
          118 341 -118 hlineto
          endchar
        </CharString>
        <CharString name="bullet">
          -198 289.75 185.5 hstem
          64.6499938965 180.5 vstem
          64.6499938965 321.75 rmoveto
          -13 callsubr
          endchar
        </CharString>
        <CharString name="bullet.smcp">
          -198 231.100006104 185.5 hstem
          64.6499938965 180.5 vstem
          64.6499938965 263.100006104 rmoveto
          -13 callsubr
          endchar
        </CharString>
        <CharString name="c">
          -13 -5 112.5 316 112.5 hstem
          37.8999938965 140 vstem
          37.8999938965 266 rmoveto
          -219.25 76 -51.75 99 vhcurveto
          83 1 90.8000030518 -6.55000305176 77.6999969482 39.5 rrcurveto
          87.8999938965 vlineto
          0 -99.549987793 -9.35000610352 -92 -72 -22.950012207 19.6499938965 135.950012207 156.549987793 30.5500030518 3.85000610352 64.4000091553 89 95.549987793 -6 0 vhcurveto
          87 vlineto
          -87.5999908447 28.3999938965 -104.900009155 3.10000610352 -52 0 rrcurveto
          -102 -73 -51.1999969482 -218.800003052 hvcurveto
          endchar
        </CharString>
        <CharString name="c.smcp">
          7 -4 112.5 357 112.5 hstem
          41.7998046875 140.000198364 vstem
          41.7998046875 295 rmoveto
          -158.899993896 24.650390625 -140.100006104 195.849807739 vhcurveto
          98.4499969482 0 61.8500061035 6.650390625 65.6999969482 25.2998046875 rrcurveto
          95.4998016357 vlineto
          1.52587890625e-05 -1.52587890625e-05 -113.949996948 -14.0500030518 -79.0500030518 -0.899993896484 -115 2 1.5 88.5500030518 0 95.9499969482 0 111.5 11.5 59 102 0 65 0 113 -12.5 15 -3 rrcurveto
          97.5 vlineto
          -63.6499938965 23 -86.8999938965 7.5 -75.4499969482 0 rrcurveto
          -177.700408936 -42.7997894287 -116.550003052 -166.449996948 hvcurveto
          endchar
        </CharString>
        <CharString name="c.superior">
          -154 374.100006104 87.3000030518 187.199996948 87.3000030518 hstem
          23.3000030518 108.199996948 vstem
          23.3000030518 555 rmoveto
          1.52587890625e-05 -146.100006104 54.8000030518 -34.799987793 71.799987793 0 59.8000030518 1 61.6000061035 -4.80000305176 56.5999908447 29.6499938965 rrcurveto
          66.8000030518 vlineto
          0 -64.5999908447 -5.35000610352 -64.6000061035 -50.6999969482 -16.5 15.5 76.6500091553 96.8999938965 22.1999969482 -1.84999084473 45 62.6000061035 61.5999908447 -4.45001220703 0 vhcurveto
          67.4499969482 vlineto
          -63.4499969482 21.549987793 -71.6499938965 2.75 -37.9000091553 0 rrcurveto
          -74.25 -52.3499908447 -35.25 -145.649993896 hvcurveto
          endchar
        </CharString>
        <CharString name="c_h">
          550 -7 112.5 -84.5 -21 21 -21 424.399993896 112.5 246 -20 hstemhm
          30.1000061035 140 383.449996948 139.449996948 187.550003052 140 hintmask 10011111
          30.1000061035 266 rmoveto
          -233 104.049987793 -40 99 vhcurveto
          176.450012207 3.14999389648 283.949996948 -51.4499969482 0 279.449996948 rrcurveto
          157.350006104 vlineto
          34.950012207 28.3500061035 33.4499969482 17.6499938965 59.9499969482 0 rrcurveto
          35.0500030518 23.6000061035 -19 -52.8000030518 hvcurveto
          hintmask 01011111
          -355.699996948 140 353.5 vlineto
          1.52587890625e-05 101.199996948 -34.9000091553 85.3000030518 -123.599990845 0 -81.9000091553 0 -47.0999908447 -35.1499938965 -40.0500030518 -30.3500061035 rrcurveto
          308.399993896 -139.449996948 -548.300003052 vlineto
          hintmask 10011111
          1.52587890625e-05 -133.950012207 -92.9000091553 4.85000610352 -189 0 rrcurveto
          -72 -29.549987793 24.3999938965 132.100006104 157.649993896 30.549987793 4.75 64.4000091553 89 96.0999908447 -6.89999389648 0 hvcurveto
          87 vlineto
          -87.5999908447 28.3999938965 -104.900009155 4 -52 0 rrcurveto
          -102 -73.549987793 -52.0999908447 -218.800003052 hvcurveto
          endchar
        </CharString>
        <CharString name="c_k">
          566 -7 112.5 -84.5 -21 21 -21 426.050003052 112.5 -6.55000305176 -20 270 -20 hstemhm
          30.1000061035 140 386.899993896 140 hintmask 10000111
          30.1000061035 267.649993896 rmoveto
          -234.649993896 111.799987793 -40 145.75 vhcurveto
          80.25 0 88.3500061035 33.6999969482 100.75 71.1000061035 rrcurveto
          hintmask 01001111
          -97.8000030518 140 194.600006104 vlineto
          7.14999389648 5.5 20.1000061035 17.6499938965 6.60000610352 5.5 rrcurveto
          162.5 -223.25 164.600006104 0 -225.699996948 312.600006104 rlineto
          30.25 32.4499969482 160.699996948 149.099990845 35.1999969482 36.8500061035 rrcurveto
          -184.550003052 1 rlineto
          0 0 -135.600006104 -126.850006104 -41.25 -39.049987793 rrcurveto
          415.899993896 -140 -535.25 vlineto
          hintmask 10010111
          -78.8500061035 -63.5 -110.099990845 -77.75 -80.4000091553 0 rrcurveto
          -93 -24.549987793 40.3500061035 118.899993896 156.550003052 30.549987793 4.75 64.4000091553 89 96.0999908447 -6.90000915527 0 hvcurveto
          87 vlineto
          -87.5999908447 28.4000091553 -104.900009155 4 -52 0 rrcurveto
          -102 -73.549987793 -52.1000061035 -218.800003052 hvcurveto
          endchar
        </CharString>
        <CharString name="c_t">
          348 -7 112.5 -106.149993896 87.3500061035 336.849990845 108.350006104 hstemhm
          30.1000061035 140 412.5 140 hintmask 10111000
          30.1000061035 261 rmoveto
          -233 76 -35 100.649993896 vhcurveto
          108.850006104 0.449996948242 64.3999938965 6.10000610352 78.8000030518 27.3999938965 rrcurveto
          87.8999938965 vlineto
          1.52587890625e-05 0 -99.5500030518 -9.35000610352 -92 0 rrcurveto
          -72 -25.1499938965 12.25 139.25 168.649993896 41.549987793 -2.64999389648 60 hvcurveto
          310.949996948 0.550003051758 0 -234.100006104 rlineto
          hintmask 01111000
          -140.550018311 44.049987793 -49.549987793 86.75 vhcurveto
          117.600006104 87.3500061035 hlineto
          -4.30000305176 -1.52587890625e-05 -57.75 19.6500091553 0 0 -32.3499908447 11.0999908447 -14 10.4000091553 0 83.5999908447 rrcurveto
          212.100006104 118.699996948 107.899993896 -118.699996948 148 -116.5 vlineto
          -23.5 -147.550003052 -371.449996948 1.10000610352 rlineto
          -102 -79.049987793 -40 -232 hvcurveto
          endchar
        </CharString>
        <CharString name="cacute">
          -13 -5 112.5 316 112.5 61.0057983398 138.5 hstem
          37.8999938965 140 50.9730072021 213 vstem
          228.873046875 597.005859375 rmoveto
          -60 callsubr
          -281.47265625 -469.505859375 rmoveto
          25 callsubr
          endchar
        </CharString>
        <CharString name="cacute.smcp">
          7 -4 112.5 357 112.5 65 138.5 hstem
          41.7998046875 140.000198364 45.5749969482 213 vstem
          227.375 643 rmoveto
          -60 callsubr
          -276.075195312 -486.5 rmoveto
          96 callsubr
          endchar
        </CharString>
        <CharString name="caron">
          -123 531 135.5 hstem
          37.8999938965 308.5 vstem
          37.8999938965 666.5 rmoveto
          102.699996948 -135.5 104 0 101.800003052 135.5 -93.5500030518 0 -58.5500030518 -60 -62.9499969482 60 rlineto
          9.25 -135.5 rmoveto
          104 hmoveto
          endchar
        </CharString>
        <CharString name="caron.smcp">
          -123 531 149 hstem
          37.8999938965 308.5 vstem
          37.8999938965 680 rmoveto
          96.8500061035 -149 104 0 107.649993896 149 -89.5 0 -67.1000061035 -69 -63.8500061035 69 rlineto
          8.79998779297 -149 rmoveto
          104 hmoveto
          endchar
        </CharString>
        <CharString name="ccaron">
          -13 -5 112.5 316 112.5 61.0057983398 135.5 hstemhm
          37.8999938965 140 -61.3016967773 308.5 hintmask 00101000
          116.598632812 732.505859375 rmoveto
          20 callsubr
          9.25 -135.5 rmoveto
          104 hmoveto
          hintmask 11010000
          -285.397460938 -331.005859375 rmoveto
          25 callsubr
          endchar
        </CharString>
        <CharString name="ccaron.smcp">
          7 -4 112.5 357 112.5 65 135.5 hstemhm
          41.7998046875 140.000198364 -44.4000091553 308.5 hintmask 00101000
          137.400390625 778.5 rmoveto
          20 callsubr
          9.25 -135.5 rmoveto
          104 hmoveto
          hintmask 11010000
          -302.299804688 -348 rmoveto
          96 callsubr
          endchar
        </CharString>
        <CharString name="ccedilla">
          -13 -5.89999389648 112.5 317.799987793 112.5 hstem
          37.8999938965 140 54.0500030518 94.5 vstem
          37.8999938965 266 rmoveto
          -219.25 76 -52.6499938965 99 vhcurveto
          83 1 90.8000030518 -6.55000305176 77.6999969482 39.5 rrcurveto
          87.8999938965 vlineto
          -1.52587890625e-05 -99.549987793 -9.34999084473 -92 -72 -22.950012207 20.549987793 135.950012207 156.549987793 30.5500030518 4.75 64.4000091553 89 95.549987793 -6.89999389648 0 vhcurveto
          87 vlineto
          -87.5999908447 28.3999938965 -104.900009155 4 -52 0 rrcurveto
          -102 -73 -52.0999908447 -218.800003052 hvcurveto
          120.050003052 -384.949996948 rmoveto
          -60.1000061035 56.5 vlineto
          86.5999908447 -1.52587890625e-05 25.3999938965 39.5 0 102 rrcurveto
          -94.5 hlineto
          -1.52587890625e-05 -38.0000152588 -1.80000305176 -16.3999938965 -28 -12 rrcurveto
          endchar
        </CharString>
        <CharString name="ccedilla.smcp">
          7 -175.649993896 141.5 30.1499938965 112.5 357 112.5 hstem
          41.7998046875 140.000198364 70.0999908447 94.5 vstem
          177.900390625 -115.549804688 rmoveto
          -60.1005859375 56.5 vlineto
          86.599609375 25.400390625 39.5 102 hvcurveto
          -94.5 hlineto
          0 -38 -1.80078125 -16.3994140625 -28 -12 rrcurveto
          -180.299804688 395.549804688 rmoveto
          96 callsubr
          endchar
        </CharString>
        <CharString name="ccircumflex">
          -13 -5 112.5 316 112.5 60.8999938965 135.5 hstemhm
          37.8999938965 140 -62.3499908447 308.5 hintmask 00101000
          115.549804688 596.900390625 rmoveto
          -30 callsubr
          0 vmoveto
          104 hmoveto
          hintmask 11010000
          -289.299804688 -466.400390625 rmoveto
          25 callsubr
          endchar
        </CharString>
        <CharString name="ccircumflex.smcp">
          7 -4 112.5 357 112.5 65 135.5 hstemhm
          41.7998046875 140.000198364 -42.4499969482 308.5 hintmask 00101000
          139.349609375 643 rmoveto
          -30 callsubr
          0 vmoveto
          104 hmoveto
          hintmask 11010000
          -309.200195312 -483.5 rmoveto
          96 callsubr
          endchar
        </CharString>
        <CharString name="cdotaccent">
          -13 -5 112.5 316 112.5 61.8000030518 124 hstem
          37.8999938965 140 46.75 119 vstem
          224.650390625 620.799804688 rmoveto
          9 callsubr
          -186.75 -430.799804688 rmoveto
          25 callsubr
          endchar
        </CharString>
        <CharString name="cdotaccent.smcp">
          7 -4 112.5 357 112.5 65 124 hstem
          41.7998046875 140.000198364 58.3999938965 119 vstem
          240.200195312 666 rmoveto
          9 callsubr
          -198.400390625 -447 rmoveto
          96 callsubr
          endchar
        </CharString>
        <CharString name="cedilla">
          -263 -178.5 141.5 hstem
          111.899993896 94.5 vstem
          37.8999938965 -118.399993896 rmoveto
          -60.1000061035 56.5 vlineto
          86.6000061035 25.3999938965 39.5 102 hvcurveto
          -94.5 hlineto
          0 -38 -1.79998779297 -16.3999938965 -28 -12 rrcurveto
          endchar
        </CharString>
        <CharString name="cent">
          -20 -5.89999389648 112.5 hstem
          30.1000061035 140 42.75 86.3999938965 vstem
          30.1000061035 266 rmoveto
          0 -221.649993896 75.8999938965 -50.0500030518 104.649993896 -0.199996948242 rrcurveto
          -89.5500030518 86.3999938965 90.3500061035 vlineto
          55.200012207 1.35000610352 54.3000030518 7 50.0500030518 24.8000030518 rrcurveto
          87.8999938965 vlineto
          -1.52587890625e-05 -99.5500030518 -9.34999084473 -92 -72 -22.9499969482 20.549987793 135.950012207 156.549987793 30.549987793 4.75 64.4000091553 89 96.0999908447 -6.89999389648 0 vhcurveto
          87 vlineto
          -48.3999938965 15.1499938965 -54.6999969482 9 -47.8000030518 4.90000915527 rrcurveto
          100.449996948 -86.3999938965 -97.1000061035 vlineto
          -108.300003052 2.25 -74.4499969482 -51.1999969482 0 -221.949996948 rrcurveto
          endchar
        </CharString>
        <CharString name="circumflex">
          -123 531 135.5 hstem
          37.8999938965 308.5 vstem
          37.8999938965 531 rmoveto
          32 callsubr
          1.52587890625e-05 hmoveto
          104.000015259 hmoveto
          endchar
        </CharString>
</ttFont>
